<?xml version="1.0" encoding="iso-8859-1"?>
<!-- Generator: Adobe Illustrator 19.0.0, SVG Export Plug-In . SVG Version: 6.00 Build 0)  -->
<svg version="1.1" id="Capa_1" xmlns="http://www.w3.org/2000/svg" xmlns:xlink="http://www.w3.org/1999/xlink" x="0px" y="0px"
	 viewBox="0 0 470 470" style="enable-background:new 0 0 470 470;" xml:space="preserve">
<g>
	<path style="fill:#E7453F;" d="M390.74,110.856C354.43,47.251,302.024,15,234.981,15c-67.04,0-119.438,32.25-155.74,95.855
		C46.34,168.504,28.949,248.598,28.949,342.479c0,43.012,34.035,69.043,62.587,83.307C129.246,444.624,180.196,455,235,455
		s105.754-10.376,143.464-29.215c28.552-14.264,62.587-40.295,62.587-83.307C441.051,248.604,423.654,168.51,390.74,110.856z
		 M235,57.703c32.727,0,59.352,26.625,59.352,59.352c0,4.143-3.357,7.5-7.5,7.5s-7.5-3.357-7.5-7.5
		c0-24.455-19.896-44.352-44.352-44.352s-44.352,19.896-44.352,44.352c0,4.143-3.357,7.5-7.5,7.5s-7.5-3.357-7.5-7.5
		C175.648,84.328,202.273,57.703,235,57.703z M112.526,214.535c0,4.143-3.357,7.5-7.5,7.5s-7.5-3.357-7.5-7.5
		c0-25.959,17.347-49.324,42.184-56.819c3.964-1.201,8.149,1.047,9.347,5.013s-1.047,8.15-5.013,9.347
		C125.487,177.676,112.526,195.137,112.526,214.535z M156.877,200.184c-7.913,0-14.352,6.438-14.352,14.352
		c0,4.143-3.357,7.5-7.5,7.5s-7.5-3.357-7.5-7.5c0-16.185,13.167-29.352,29.352-29.352c4.143,0,7.5,3.357,7.5,7.5
		S161.02,200.184,156.877,200.184z M208.729,222.035c-4.143,0-7.5-3.357-7.5-7.5c0-19.399-12.961-36.859-31.519-42.46
		c-3.966-1.196-6.21-5.381-5.013-9.347c1.196-3.966,5.38-6.214,9.347-5.013c24.838,7.495,42.185,30.86,42.185,56.819
		C216.229,218.678,212.871,222.035,208.729,222.035z M235,102.703c-7.913,0-14.352,6.438-14.352,14.352c0,4.143-3.357,7.5-7.5,7.5
		s-7.5-3.357-7.5-7.5c0-16.185,13.167-29.352,29.352-29.352c4.143,0,7.5,3.357,7.5,7.5S239.143,102.703,235,102.703z
		 M315.888,200.184c-7.913,0-14.352,6.438-14.352,14.352c0,4.143-3.357,7.5-7.5,7.5s-7.5-3.357-7.5-7.5
		c0-16.185,13.167-29.352,29.352-29.352c4.143,0,7.5,3.357,7.5,7.5S320.03,200.184,315.888,200.184z M345.337,390.565
		c-4.411,0-8-3.589-8-8s3.589-8,8-8s8,3.589,8,8S349.748,390.565,345.337,390.565z M367.739,222.035c-4.143,0-7.5-3.357-7.5-7.5
		c0-24.455-19.896-44.352-44.352-44.352s-44.351,19.896-44.351,44.352c0,4.143-3.357,7.5-7.5,7.5s-7.5-3.357-7.5-7.5
		c0-32.727,26.625-59.352,59.351-59.352c32.727,0,59.352,26.625,59.352,59.352C375.239,218.678,371.882,222.035,367.739,222.035z
		 M385.337,360.565c-4.411,0-8-3.589-8-8s3.589-8,8-8s8,3.589,8,8S389.748,360.565,385.337,360.565z"/>
	<path style="fill:#3D2A20;" d="M403.768,103.419c-18.617-32.61-41.813-57.958-68.946-75.338C305.732,9.447,272.142,0,234.981,0
		s-70.749,9.447-99.834,28.081c-27.129,17.38-50.321,42.728-68.934,75.339c-34.191,59.909-52.265,142.574-52.265,239.059
		c0,40.111,24.511,73.559,70.883,96.726C124.584,459.063,177.914,470,235,470s110.416-10.938,150.168-30.796
		c46.372-23.167,70.883-56.614,70.883-96.726C456.051,245.999,437.972,163.334,403.768,103.419z M378.464,425.785
		C340.754,444.624,289.804,455,235,455s-105.754-10.376-143.464-29.215c-28.552-14.264-62.587-40.295-62.587-83.307
		c0-93.881,17.391-173.975,50.292-231.623C115.543,47.25,167.941,15,234.981,15c67.043,0,119.448,32.251,155.759,95.856
		c32.914,57.653,50.311,137.747,50.311,231.622C441.051,385.49,407.016,411.521,378.464,425.785z"/>
	<path style="fill:#3D2A20;" d="M183.148,124.555c4.143,0,7.5-3.357,7.5-7.5c0-24.455,19.896-44.352,44.352-44.352
		s44.352,19.896,44.352,44.352c0,4.143,3.357,7.5,7.5,7.5s7.5-3.357,7.5-7.5c0-32.727-26.625-59.352-59.352-59.352
		s-59.352,26.625-59.352,59.352C175.648,121.197,179.006,124.555,183.148,124.555z"/>
	<path style="fill:#FFFFFF;" d="M235,87.703c-16.185,0-29.352,13.167-29.352,29.352c0,4.143,3.357,7.5,7.5,7.5s7.5-3.357,7.5-7.5
		c0-7.913,6.438-14.352,14.352-14.352c4.143,0,7.5-3.357,7.5-7.5S239.143,87.703,235,87.703z"/>
	<path style="fill:#FFFFFF;" d="M315.888,185.184c-16.185,0-29.352,13.167-29.352,29.352c0,4.143,3.357,7.5,7.5,7.5
		s7.5-3.357,7.5-7.5c0-7.913,6.438-14.352,14.352-14.352c4.143,0,7.5-3.357,7.5-7.5S320.03,185.184,315.888,185.184z"/>
	<path style="fill:#3D2A20;" d="M315.888,155.184c-32.726,0-59.351,26.625-59.351,59.352c0,4.143,3.357,7.5,7.5,7.5
		s7.5-3.357,7.5-7.5c0-24.455,19.896-44.352,44.351-44.352s44.352,19.896,44.352,44.352c0,4.143,3.357,7.5,7.5,7.5
		s7.5-3.357,7.5-7.5C375.239,181.809,348.614,155.184,315.888,155.184z"/>
	<path style="fill:#FFFFFF;" d="M156.877,185.184c-16.185,0-29.352,13.167-29.352,29.352c0,4.143,3.357,7.5,7.5,7.5
		s7.5-3.357,7.5-7.5c0-7.913,6.438-14.352,14.352-14.352c4.143,0,7.5-3.357,7.5-7.5S161.02,185.184,156.877,185.184z"/>
	<path style="fill:#3D2A20;" d="M174.044,157.716c-3.967-1.201-8.15,1.047-9.347,5.013c-1.197,3.966,1.047,8.15,5.013,9.347
		c18.558,5.601,31.519,23.061,31.519,42.46c0,4.143,3.357,7.5,7.5,7.5s7.5-3.357,7.5-7.5
		C216.229,188.576,198.882,165.211,174.044,157.716z"/>
	<path style="fill:#3D2A20;" d="M149.057,162.729c-1.197-3.966-5.383-6.214-9.347-5.013c-24.837,7.495-42.184,30.86-42.184,56.819
		c0,4.143,3.357,7.5,7.5,7.5s7.5-3.357,7.5-7.5c0-19.398,12.961-36.859,31.518-42.46
		C148.01,170.879,150.254,166.694,149.057,162.729z"/>
	<path style="fill:#3D2A20;" d="M385.337,344.565c-4.411,0-8,3.589-8,8s3.589,8,8,8s8-3.589,8-8S389.748,344.565,385.337,344.565z"
		/>
	<path style="fill:#3D2A20;" d="M345.337,374.565c-4.411,0-8,3.589-8,8s3.589,8,8,8s8-3.589,8-8S349.748,374.565,345.337,374.565z"
		/>
</g>
<g>
</g>
<g>
</g>
<g>
</g>
<g>
</g>
<g>
</g>
<g>
</g>
<g>
</g>
<g>
</g>
<g>
</g>
<g>
</g>
<g>
</g>
<g>
</g>
<g>
</g>
<g>
</g>
<g>
</g>
</svg>
