<?xml version="1.0" encoding="iso-8859-1"?>
<!-- Generator: Adobe Illustrator 19.0.0, SVG Export Plug-In . SVG Version: 6.00 Build 0)  -->
<svg version="1.1" id="Capa_1" xmlns="http://www.w3.org/2000/svg" xmlns:xlink="http://www.w3.org/1999/xlink" x="0px" y="0px"
	 viewBox="0 0 470 470" style="enable-background:new 0 0 470 470;" xml:space="preserve">
<g>
	<path style="fill:#EC6A65;" d="M197.28,15v275.155h30.22v-22.5c0-4.142,3.357-7.5,7.5-7.5s7.5,3.358,7.5,7.5v22.5h30.221V15H242.5
		v222.655c0,4.142-3.357,7.5-7.5,7.5s-7.5-3.358-7.5-7.5V15H197.28z"/>
	<path style="fill:#EC6A65;" d="M287.72,15v275.155h30.221v-82.5c0-4.142,3.357-7.5,7.5-7.5s7.5,3.358,7.5,7.5v82.5h30.22V67.5
		c0-4.142,3.357-7.5,7.5-7.5s7.5,3.358,7.5,7.5v222.655h17.936c2.023,0,3.974,0.304,5.825,0.845V20.825
		c0-3.212-2.613-5.825-5.825-5.825h-17.936v22.5c0,4.142-3.357,7.5-7.5,7.5s-7.5-3.358-7.5-7.5V15h-30.22v162.655
		c0,4.142-3.357,7.5-7.5,7.5s-7.5-3.358-7.5-7.5V15H287.72z"/>
	<path style="fill:#EC6A65;" d="M73.903,290.155h17.936V67.5c0-4.142,3.357-7.5,7.5-7.5s7.5,3.358,7.5,7.5v222.655h30.221V15
		h-30.221v22.5c0,4.142-3.357,7.5-7.5,7.5s-7.5-3.358-7.5-7.5V15H73.903c-3.212,0-5.824,2.613-5.824,5.825v270.175
		C69.929,290.459,71.88,290.155,73.903,290.155z"/>
	<rect x="152.059" y="15" style="fill:#EC6A65;" width="30.221" height="275.155"/>
	<path style="fill:#3D2A20;" d="M396.096,0H73.903C62.42,0,53.079,9.342,53.079,20.825v290.155v138.196
		c0,11.483,9.342,20.825,20.824,20.825h322.193c11.483,0,20.825-9.342,20.825-20.825V310.979V20.825
		C416.921,9.342,407.58,0,396.096,0z M73.903,15h17.936v22.5c0,4.142,3.357,7.5,7.5,7.5s7.5-3.358,7.5-7.5V15h30.221v275.155
		h-30.221V67.5c0-4.142-3.357-7.5-7.5-7.5s-7.5,3.358-7.5,7.5v222.655H73.903c-2.023,0-3.974,0.304-5.824,0.845V20.825
		C68.079,17.613,70.691,15,73.903,15z M235,245.155c4.143,0,7.5-3.358,7.5-7.5V15h30.221v275.155H242.5v-22.5
		c0-4.142-3.357-7.5-7.5-7.5s-7.5,3.358-7.5,7.5v22.5h-30.22V15h30.22v222.655C227.5,241.797,230.857,245.155,235,245.155z
		 M325.441,185.155c4.143,0,7.5-3.358,7.5-7.5V15h30.22v22.5c0,4.142,3.357,7.5,7.5,7.5s7.5-3.358,7.5-7.5V15h17.936
		c3.212,0,5.825,2.613,5.825,5.825V291c-1.851-0.541-3.802-0.845-5.825-0.845h-17.936V67.5c0-4.142-3.357-7.5-7.5-7.5
		s-7.5,3.358-7.5,7.5v222.655h-30.22v-82.5c0-4.142-3.357-7.5-7.5-7.5s-7.5,3.358-7.5,7.5v82.5H287.72V15h30.221v162.655
		C317.941,181.797,321.298,185.155,325.441,185.155z M182.28,290.155h-30.221V15h30.221V290.155z M68.079,449.175V310.979
		c0-3.212,2.612-5.825,5.824-5.825h322.193c3.212,0,5.825,2.613,5.825,5.825v138.196c0,3.212-2.613,5.825-5.825,5.825H73.903
		C70.691,455,68.079,452.387,68.079,449.175z"/>
	<path style="fill:#E7453F;" d="M401.921,449.175V310.979c0-3.212-2.613-5.825-5.825-5.825H73.903c-3.212,0-5.824,2.613-5.824,5.825
		v138.196c0,3.212,2.612,5.825,5.824,5.825h322.193C399.308,455,401.921,452.387,401.921,449.175z M386.921,432.5
		c0,4.142-3.357,7.5-7.5,7.5H90.579c-4.143,0-7.5-3.358-7.5-7.5V327.655c0-4.142,3.357-7.5,7.5-7.5h288.843
		c4.143,0,7.5,3.358,7.5,7.5V432.5z"/>
	<rect x="290.64" y="387.577" style="fill:#FFFFFF;" width="81.281" height="37.423"/>
	<rect x="194.36" y="335.155" style="fill:#FFFFFF;" width="81.28" height="37.422"/>
	<rect x="98.079" y="387.577" style="fill:#FFFFFF;" width="81.281" height="37.423"/>
	<rect x="290.64" y="335.155" style="fill:#FFFFFF;" width="81.281" height="37.422"/>
	<rect x="194.36" y="387.577" style="fill:#FFFFFF;" width="81.28" height="37.423"/>
	<rect x="98.079" y="335.155" style="fill:#FFFFFF;" width="81.281" height="37.422"/>
	<path style="fill:#3D2A20;" d="M379.421,320.155H90.579c-4.143,0-7.5,3.358-7.5,7.5V432.5c0,4.142,3.357,7.5,7.5,7.5h288.843
		c4.143,0,7.5-3.358,7.5-7.5V327.655C386.921,323.513,383.564,320.155,379.421,320.155z M371.921,372.577H290.64v-37.422h81.281
		V372.577z M98.079,387.577h81.281V425H98.079V387.577z M275.64,335.155v37.422h-81.28v-37.422H275.64z M194.36,387.577h81.28V425
		h-81.28V387.577z M179.36,335.155v37.422H98.079v-37.422H179.36z M290.64,425v-37.423h81.281V425H290.64z"/>
</g>
<g>
</g>
<g>
</g>
<g>
</g>
<g>
</g>
<g>
</g>
<g>
</g>
<g>
</g>
<g>
</g>
<g>
</g>
<g>
</g>
<g>
</g>
<g>
</g>
<g>
</g>
<g>
</g>
<g>
</g>
</svg>
