<?xml version="1.0" encoding="iso-8859-1"?>
<!-- Generator: Adobe Illustrator 19.0.0, SVG Export Plug-In . SVG Version: 6.00 Build 0)  -->
<svg version="1.1" id="Capa_1" xmlns="http://www.w3.org/2000/svg" xmlns:xlink="http://www.w3.org/1999/xlink" x="0px" y="0px"
	 viewBox="0 0 470.01 470.01" style="enable-background:new 0 0 470.01 470.01;" xml:space="preserve">
<g>
	<path style="fill:#A3E175;" d="M425.487,66.605c1.807-3.727,6.29-5.288,10.021-3.479c6.79,3.29,13.305,7.134,19.476,11.486
		c0.006-0.356,0.026-0.71,0.026-1.067c0-32.279-26.261-58.54-58.54-58.54c-15.634,0-30.334,6.088-41.391,17.142
		c-1.256,1.236-5.908,5.895-23.899,23.89c23.583-7.726,49.186-9.092,74.396-3.386c4.039,0.915,6.573,4.931,5.658,8.971
		c-0.016,0.069-0.039,0.135-0.057,0.203c4.813,1.381,9.563,3.042,14.225,4.98C425.432,66.739,425.455,66.671,425.487,66.605z"/>
	<path style="fill:#03E6FF;" d="M428.967,76.625c-3.662-1.774-5.221-6.133-3.564-9.82c-4.662-1.938-9.412-3.599-14.225-4.98
		c-1.002,3.919-4.942,6.351-8.914,5.456c-41.982-9.504-85.186,2.939-115.607,33.284c-10.389,10.389-22.347,22.348-36.114,36.114
		c9.962-3.281,20.314-5.454,30.867-6.415c4.108-0.375,7.772,2.664,8.148,6.79c0.007,0.074,0.004,0.146,0.009,0.22
		c4.954-0.17,9.914-0.066,14.858,0.318c0.008-0.073,0.009-0.145,0.018-0.218c0.553-4.105,4.328-6.983,8.435-6.431
		c28.012,3.775,53.609,15.664,74.501,34.478l50.479-50.478c6.728-6.726,11.604-14.804,14.401-23.617
		C445.056,85.574,437.242,80.634,428.967,76.625z"/>
	<path style="fill:#E7453F;" d="M289.567,137.274c0.25,4.033-2.747,7.56-6.798,7.929c-28.834,2.625-56.01,15.339-76.555,35.804
		c-13.041,13.041-27.216,27.215-42.637,42.636c46.191-15.111,98.759-5.542,136.866,28.712l76.311-76.309
		c-18.535-16.481-41.154-26.905-65.88-30.237c-4.031-0.543-6.874-4.197-6.449-8.217
		C299.481,137.208,294.521,137.103,289.567,137.274z"/>
	<path style="fill:#EC6A65;" d="M142.66,305.389c4.089,0.662,6.867,4.514,6.205,8.603c-0.011,0.07-0.031,0.135-0.044,0.204
		c4.894,1.079,9.738,2.443,14.508,4.085c0.026-0.068,0.044-0.137,0.072-0.205c1.57-3.833,5.951-5.669,9.782-4.1
		c14.852,6.079,28.38,14.585,40.313,25.324l76.319-76.317c-48.839-43.336-123.837-41.654-170.637,5.058
		c-13.429,13.429-27.618,27.618-42.619,42.617C97.59,303.73,120.259,301.762,142.66,305.389z"/>
	<path style="fill:#FFCB59;" d="M140.264,320.196c-18.744-3.034-37.697-1.681-55.459,3.592
		c35.222,5.437,62.276,35.956,62.276,72.677c0,3.372-0.249,6.686-0.69,9.94l56.48-56.479c-10.504-9.333-22.368-16.746-35.368-22.068
		c-3.766-1.541-5.595-5.794-4.173-9.577c-4.77-1.641-9.613-3.005-14.508-4.085C148.065,318.17,144.276,320.843,140.264,320.196z"/>
	<path style="fill:#FFFFFF;" d="M132.08,396.465c0-32.279-26.261-58.54-58.54-58.54S15,364.186,15,396.465s26.261,58.54,58.54,58.54
		S132.08,428.744,132.08,396.465z"/>
	<g>
		<path style="fill:#3D2A20;" d="M124.874,449.054C124.662,449.265,125.103,448.873,124.874,449.054L124.874,449.054z"/>
		<path style="fill:#3D2A20;" d="M396.47,0.005c-19.64,0-38.105,7.647-51.996,21.534C344.228,21.785,22.202,343.88,20.96,345.122
			C8.005,358.386,0,376.504,0,396.465c0,40.55,32.99,73.54,73.54,73.54c19.956,0,38.071-8.002,51.334-20.951L448.465,125.55
			c9.832-9.83,16.52-21.958,19.6-35.169c0.021-0.087,0.041-0.174,0.059-0.261c1.233-5.376,1.886-10.924,1.886-16.575
			C470.01,32.995,437.02,0.005,396.47,0.005z M73.54,455.005c-32.279,0-58.54-26.261-58.54-58.54s26.261-58.54,58.54-58.54
			s58.54,26.261,58.54,58.54S105.819,455.005,73.54,455.005z M213.496,339.3c-11.933-10.739-25.461-19.245-40.313-25.324
			c-3.831-1.569-8.212,0.267-9.782,4.1c-0.028,0.068-0.046,0.137-0.072,0.205c-1.423,3.784,0.406,8.036,4.173,9.577
			c13,5.322,24.864,12.734,35.368,22.068l-56.48,56.479c0.442-3.253,0.69-6.567,0.69-9.94c0-36.721-27.054-67.24-62.276-72.677
			c17.762-5.272,36.716-6.626,55.459-3.592c4.013,0.647,7.801-2.026,8.558-6.001c0.013-0.069,0.032-0.135,0.044-0.204
			c0.662-4.089-2.116-7.94-6.205-8.603c-22.401-3.627-45.07-1.658-66.1,5.27c15-15,29.189-29.188,42.619-42.617
			c46.8-46.713,121.798-48.394,170.637-5.058L213.496,339.3z M454.984,74.612c-6.171-4.352-12.686-8.196-19.476-11.486
			c-3.73-1.809-8.214-0.248-10.021,3.479c-0.032,0.066-0.055,0.134-0.085,0.2c-1.657,3.687-0.097,8.045,3.564,9.82
			c8.276,4.009,16.089,8.949,23.293,14.701c-2.798,8.813-7.674,16.892-14.401,23.617l-50.479,50.478
			c-20.892-18.814-46.489-30.703-74.501-34.478c-4.106-0.552-7.882,2.326-8.435,6.431c-0.01,0.073-0.01,0.145-0.018,0.218
			c-0.425,4.02,2.417,7.673,6.449,8.217c24.727,3.333,47.345,13.756,65.88,30.237l-76.311,76.309
			c-38.107-34.254-90.675-43.823-136.866-28.712c15.421-15.421,29.596-29.595,42.637-42.636
			c20.545-20.466,47.722-33.18,76.555-35.804c4.051-0.369,7.048-3.896,6.798-7.929c-0.004-0.074-0.002-0.146-0.009-0.22
			c-0.376-4.125-4.04-7.164-8.148-6.79c-10.553,0.961-20.905,3.135-30.867,6.415c13.767-13.767,25.725-25.725,36.114-36.114
			c30.422-30.344,73.625-42.788,115.607-33.284c3.972,0.896,7.912-1.536,8.914-5.456c0.018-0.069,0.041-0.134,0.057-0.203
			c0.915-4.04-1.619-8.056-5.658-8.971c-25.21-5.706-50.813-4.34-74.396,3.386c17.991-17.996,22.643-22.654,23.884-23.906
			c11.072-11.039,25.772-17.126,41.406-17.126c32.279,0,58.54,26.261,58.54,58.54C455.01,73.902,454.99,74.256,454.984,74.612z"/>
		<path style="fill:#3D2A20;" d="M20.96,345.122C21.14,344.895,20.75,345.332,20.96,345.122L20.96,345.122z"/>
	</g>
</g>
<g>
</g>
<g>
</g>
<g>
</g>
<g>
</g>
<g>
</g>
<g>
</g>
<g>
</g>
<g>
</g>
<g>
</g>
<g>
</g>
<g>
</g>
<g>
</g>
<g>
</g>
<g>
</g>
<g>
</g>
</svg>
