<?xml version="1.0" encoding="iso-8859-1"?>
<!-- Generator: Adobe Illustrator 19.0.0, SVG Export Plug-In . SVG Version: 6.00 Build 0)  -->
<svg version="1.1" id="Layer_1" xmlns="http://www.w3.org/2000/svg" xmlns:xlink="http://www.w3.org/1999/xlink" x="0px" y="0px"
	 viewBox="0 0 512.008 512.008" style="enable-background:new 0 0 512.008 512.008;" xml:space="preserve">
<path style="fill:#FF4F18;" d="M11.508,112.46l11.879,11.654c28.108,27.576,73.247,27.145,100.82-0.96
	c27.577-28.11,27.144-73.248-0.964-100.824l-11.879-11.654L11.508,112.46z"/>
<path style="fill:#FF7953;" d="M46.693,100.359L34.813,88.705L11.508,112.46l11.879,11.654
	c28.108,27.576,73.247,27.145,100.822-0.963c4.031-4.109,7.405-8.517,10.241-13.247C107.157,126.987,70.691,123.904,46.693,100.359z
	"/>
<path style="fill:#EE2300;" d="M99.948,46.076L88.069,34.422l23.305-23.756l11.879,11.654
	c28.108,27.576,28.541,72.714,0.965,100.822c-4.031,4.109-8.542,7.665-13.217,10.59C127.56,106.116,123.948,69.619,99.948,46.076z"
	/>
<path style="fill:#FF4F18;" d="M500.498,399.56l-11.879-11.654c-28.108-27.576-73.247-27.145-100.82,0.96
	c-27.577,28.11-27.144,73.248,0.964,100.824l11.879,11.654L500.498,399.56z"/>
<path style="fill:#FF7953;" d="M412.068,465.934l11.879,11.654l-23.305,23.755l-11.879-11.654
	c-28.108-27.576-28.541-72.714-0.965-100.822c4.031-4.109,8.513-7.442,13.187-10.368
	C384.428,406.116,388.069,442.391,412.068,465.934z"/>
<path style="fill:#EE2300;" d="M465.314,411.66l11.879,11.654l23.305-23.755l-11.879-11.654
	c-28.108-27.576-73.247-27.145-100.822,0.963c-4.031,4.109-7.278,8.655-10.114,13.384
	C404.977,385.169,441.314,388.117,465.314,411.66z"/>
<path style="fill:#FFD92D;" d="M389.602,387.068L389.602,387.068c-43.997,44.847-116.018,45.534-160.864,1.539L123.963,285.816
	c-44.847-43.997-45.534-116.018-1.539-160.864l0,0c43.997-44.847,116.018-45.534,160.864-1.539l104.776,102.792
	C432.911,270.202,433.6,342.223,389.602,387.068z"/>
<path style="fill:#FFE571;" d="M256.122,361.223L151.346,258.432c-40.391-39.626-44.943-101.976-13.308-146.739
	c-5.493,3.887-10.734,8.285-15.614,13.259l0,0c-43.997,44.847-43.308,116.868,1.539,160.864l104.776,102.792
	c44.847,43.997,116.868,43.308,160.864-1.539l0,0c4.371-4.455,8.281-9.187,11.77-14.125
	C357.332,404.104,295.994,400.341,256.122,361.223z"/>
<path style="fill:#FFA81E;" d="M388.064,226.205L283.288,123.413c-44.847-43.997-116.868-43.308-160.864,1.539l0,0
	c-4.406,4.491-8.341,9.263-11.851,14.243c44.03-31.058,105.287-27.264,145.12,11.814l104.776,102.792
	c40.356,39.592,44.933,101.866,13.39,146.62c5.542-3.909,10.826-8.339,15.744-13.352l0,0
	C433.6,342.223,432.911,270.202,388.064,226.205z"/>
<g>
	<path style="fill:#FF4F18;" d="M262.229,107.098L118.005,279.513c1.891,2.158,3.877,4.26,5.958,6.303l20.935,20.539
		l146.431-175.054l-8.041-7.888C276.786,117.033,269.707,111.6,262.229,107.098z"/>
	<polygon style="fill:#FF4F18;" points="175.845,336.715 202.948,363.306 349.379,188.252 322.276,161.662 	"/>
	<path style="fill:#FF4F18;" d="M380.325,218.612l-146.28,174.873c9.966,8.625,21.061,15.235,32.763,19.826l138.479-165.547
		c-4.744-7.694-10.481-14.945-17.222-21.559L380.325,218.612z"/>
</g>
<g>
	<path style="fill:#EE2300;" d="M266.22,161.323l25.109-30.021l-2.44-2.393l-5.6-5.495c-0.008-0.006-0.014-0.013-0.022-0.02
		c-0.758-0.743-1.525-1.471-2.298-2.188c-0.231-0.214-0.466-0.423-0.698-0.634c-0.562-0.513-1.126-1.021-1.695-1.522
		c-0.257-0.225-0.516-0.447-0.774-0.67c-0.566-0.488-1.134-0.969-1.707-1.444c-0.242-0.2-0.484-0.399-0.727-0.597
		c-0.625-0.509-1.256-1.011-1.89-1.505c-0.187-0.146-0.373-0.293-0.562-0.438c-0.773-0.595-1.553-1.181-2.337-1.753
		c-0.05-0.036-0.099-0.074-0.149-0.11c-2.672-1.942-5.408-3.753-8.2-5.435l-24.69,29.519c6.512,4.165,12.919,8.779,18.658,14.41
		L266.22,161.323z"/>
	<polygon style="fill:#EE2300;" points="349.379,188.252 322.276,161.662 297.149,191.689 324.254,218.279 	"/>
	<path style="fill:#EE2300;" d="M405.147,247.68c-4.744-7.694-10.481-14.945-17.222-21.559l-7.739-7.592l-24.976,30.11l5.86,5.305
		c7.512,7.369,13.575,15.767,18.6,24.447L405.147,247.68z"/>
</g>
<g>
	<path style="fill:#FF7953;" d="M290.948,384.452c-11.507-4.884-22.377-11.752-32.095-20.624l-24.808,29.657
		c3.715,3.216,7.588,6.149,11.592,8.805c0.043,0.029,0.088,0.059,0.131,0.088c1.311,0.867,2.635,1.704,3.973,2.512
		c0.033,0.02,0.066,0.039,0.099,0.059c2.649,1.595,5.351,3.068,8.094,4.427c0.124,0.061,0.247,0.124,0.371,0.185
		c1.305,0.641,2.62,1.253,3.943,1.84c0.159,0.07,0.318,0.14,0.479,0.209c1.351,0.592,2.709,1.162,4.077,1.699
		c0.001,0,0.003,0.001,0.004,0.001L290.948,384.452z"/>
	<polygon style="fill:#FF7953;" points="227.847,333.541 200.742,306.949 175.845,336.715 190.323,350.92 202.948,363.306 	"/>
	<path style="fill:#FF7953;" d="M144.898,306.354l24.899-29.765L151.052,258.2c-2.836-2.783-5.477-5.689-7.959-8.682l-25.09,29.995
		c0.001,0.001,0.001,0.003,0.003,0.004c0.842,0.96,1.709,1.905,2.588,2.843c0.211,0.225,0.423,0.45,0.637,0.674
		c0.893,0.937,1.798,1.867,2.731,2.782L144.898,306.354z"/>
</g>
<g>
	<path style="fill:#1C2042;" d="M323.514,175.847l4.991,5.289c2.024,2.144,4.803,3.145,7.532,2.979
		c2.155-0.131,4.278-0.99,5.971-2.587c3.838-3.62,4.012-9.666,0.391-13.503l-4.991-5.289c-3.62-3.836-9.666-4.012-13.503-0.391
		C320.067,165.963,319.893,172.009,323.514,175.847z"/>
	<path style="fill:#1C2042;" d="M508.693,395.067l-11.747-11.789c-15.242-15.298-35.53-23.745-57.125-23.784
		c-7.299-0.015-14.445,0.954-21.308,2.803c8.178-16.633,12.524-35.039,12.559-54.119c0.06-32.935-12.711-63.923-35.958-87.255
		l-22.984-23.067c-3.723-3.737-9.771-3.747-13.51-0.024c-3.737,3.724-3.748,9.771-0.024,13.51l22.984,23.067
		c29.046,29.15,37.217,71.328,24.57,107.821c-3.825-16.267-13.395-33.344-28.192-48.194c-3.723-3.736-9.771-3.747-13.51-0.024
		c-3.737,3.723-3.748,9.771-0.024,13.51c23.624,23.709,31.585,55.691,17.388,69.836c-12.84,12.791-15.512,15.457-51.63-7.856
		c-4.432-2.859-10.346-1.586-13.207,2.845c-2.861,4.432-1.587,10.345,2.845,13.206c12.31,7.945,22.233,13.888,30.96,17.297
		c-38.447,17.378-85.341,10.259-116.832-21.346l-103.6-103.976c-29.359-29.465-37.384-72.24-24.145-109.001
		c4.434,14.876,13.549,30.188,26.977,43.665c2.015,2.021,4.709,2.952,7.35,2.792c2.24-0.136,4.444-1.058,6.158-2.768
		c3.737-3.723,3.748-9.771,0.024-13.51c-19.655-19.728-28.455-45.173-22.682-61.315c2.067-2.484,4.25-4.901,6.584-7.227
		c4.051-4.036,8.363-7.652,12.866-10.882c6.948-0.792,16.648,4.002,37.473,17.444c4.435,2.861,10.346,1.587,13.207-2.845
		c2.861-4.432,1.587-10.345-2.845-13.207c-9.122-5.887-16.933-10.677-23.922-14.157c37.181-13.963,80.778-6,110.582,23.913
		c0.051,0.052,0.103,0.102,0.155,0.153l25.85,24.784c3.807,3.652,9.854,3.524,13.506-0.284c3.652-3.808,3.524-9.856-0.284-13.506
		l-25.775-24.711c-23.238-23.28-54.147-36.134-87.045-36.193c-19.063-0.036-37.471,4.236-54.124,12.343
		c7.358-27.04,0.492-57.182-20.666-78.418L117.847,2.81c-3.723-3.737-9.771-3.747-13.51-0.024L3.338,103.433
		c-1.795,1.788-2.805,4.216-2.81,6.75c-0.005,2.533,0.997,4.965,2.785,6.759l11.747,11.789
		c15.242,15.298,35.53,23.745,57.125,23.784c1.733,0.004,3.457-0.047,5.171-0.152c5.487-0.334,10.864-1.234,16.081-2.635
		c-22.462,45.945-14.69,103.077,23.383,141.288l103.6,103.976c23.248,23.331,54.189,36.214,87.126,36.272
		c2.642,0.005,5.268-0.073,7.881-0.232c16.271-0.99,31.932-5.157,46.292-12.157c-1.879,6.864-2.876,14.014-2.89,21.321
		c-0.038,21.595,8.335,41.912,23.578,57.211l11.746,11.789c1.788,1.795,4.216,2.805,6.749,2.81c0.2,0,0.4-0.005,0.599-0.018
		c2.315-0.141,4.509-1.121,6.162-2.768L508.67,408.579c1.795-1.788,2.805-4.216,2.81-6.75
		C511.483,399.294,510.481,396.862,508.693,395.067z M72.219,133.411c-16.491-0.031-31.985-6.482-43.626-18.165l-5.004-5.022
		l87.473-87.157l5.004,5.022c23.481,23.566,23.937,61.5,1.442,85.642c-0.551,0.526-1.104,1.051-1.665,1.61
		c-0.372,0.371-0.713,0.76-1.069,1.142C103.233,127.43,88.195,133.436,72.219,133.411z M400.944,488.943l-5.004-5.022
		c-11.641-11.683-18.036-27.2-18.007-43.691c0.029-16.493,6.48-31.985,18.165-43.628c10.745-10.706,24.732-16.974,39.741-17.887
		c1.308-0.08,2.626-0.118,3.948-0.116c16.491,0.031,31.985,6.482,43.626,18.165l5.004,5.022L400.944,488.943z"/>
</g>
<g>
	<path style="fill:#FFFFFF;" d="M346.53,239.565c-3.755,3.705-9.803,3.666-13.508-0.09l-43.779-44.366
		c-3.706-3.756-3.666-9.803,0.09-13.508c3.755-3.705,9.803-3.666,13.508,0.09l43.779,44.366
		C350.326,229.813,350.285,235.86,346.53,239.565z"/>
	<path style="fill:#FFFFFF;" d="M278.243,170.361c-3.755,3.705-9.803,3.666-13.508-0.09l-4.547-4.608
		c-3.706-3.756-3.666-9.803,0.09-13.508c3.755-3.705,9.803-3.666,13.508,0.09l4.547,4.608
		C282.039,160.609,281.998,166.656,278.243,170.361z"/>
</g>
<g>
</g>
<g>
</g>
<g>
</g>
<g>
</g>
<g>
</g>
<g>
</g>
<g>
</g>
<g>
</g>
<g>
</g>
<g>
</g>
<g>
</g>
<g>
</g>
<g>
</g>
<g>
</g>
<g>
</g>
</svg>
