<?xml version="1.0" encoding="iso-8859-1"?>
<!-- Generator: Adobe Illustrator 19.0.0, SVG Export Plug-In . SVG Version: 6.00 Build 0)  -->
<svg version="1.1" id="Layer_1" xmlns="http://www.w3.org/2000/svg" xmlns:xlink="http://www.w3.org/1999/xlink" x="0px" y="0px"
	 viewBox="0 0 512 512" style="enable-background:new 0 0 512 512;" xml:space="preserve">
<g>
	<polygon style="fill:#F5F7FA;" points="81.999,416.928 164.67,344.929 164.67,220.267 81.999,301.602 	"/>
	<polygon style="fill:#F5F7FA;" points="259.324,120.933 264.668,234.267 336.667,168.932 351.323,77.597 312.667,87.597 	"/>
	<polygon style="fill:#F5F7FA;" points="475.321,126.933 456.665,126.933 408.666,172.268 408.666,186.932 413.322,234.267 
		475.321,237.595 504.664,220.267 	"/>
</g>
<g>
	<polygon style="fill:#ED5564;" points="20,422.256 70.671,431.6 70.671,322.257 12,381.601 	"/>
	<polygon style="fill:#ED5564;" points="172.669,325.601 255.996,248.267 255.996,134.268 168.669,212.931 	"/>
	<polygon style="fill:#ED5564;" points="456.665,116.269 407.994,82.933 351.323,77.597 344.667,162.932 395.322,176.268 	"/>
	<polygon style="fill:#ED5564;" points="496.664,234.267 412.666,237.595 408.666,252.931 373.994,294.93 400.666,332.257 
		447.993,332.257 501.32,241.595 	"/>
</g>
<path d="M468.149,111.925c-29.25-29.234-67.562-43.852-105.873-43.852c-38.344,0-76.655,14.617-105.905,43.852L15.656,352.632
	c-20.875,20.891-20.875,54.75,0,75.624c10.469,10.453,24.156,15.671,37.812,15.671c13.687,0,27.375-5.218,37.843-15.655
	l240.684-240.715c8.375-8.352,19.312-12.531,30.281-12.531c10.937,0,21.874,4.18,30.249,12.531c16.688,16.71,16.688,43.796,0,60.499
	l-7.562,7.562c-20.905,20.891-20.905,54.749,0,75.639c10.438,10.438,24.125,15.656,37.812,15.656s27.374-5.219,37.812-15.656
	l7.562-7.562C526.617,265.212,526.617,170.4,468.149,111.925z M490.524,222.235h-64.249c0.094-1.469,0.156-2.945,0.156-4.43
	c0-13.516-4.156-26.397-11.844-37.187l45.687-45.688c19.625,23.141,30.344,52.188,30.344,82.874
	C490.618,219.29,490.587,220.767,490.524,222.235z M245.684,152.877v90.749l-69.374,69.366v-90.757L245.684,152.877z
	 M30.781,413.131c-6.062-6.046-9.375-14.108-9.375-22.687c0-8.562,3.312-16.625,9.375-22.688l33.405-33.375v86.343
	c-3.406,1.188-7,1.812-10.718,1.812C44.906,422.537,36.844,419.193,30.781,413.131z M85.562,403.757v-90.765l69.374-69.366v90.756
	L85.562,403.757z M316.87,172.432l-49.78,49.804v-90.749l4.406-4.429c18.062-18.039,40.499-30.039,64.937-35.008v66.976
	C329.245,162.189,322.62,166.697,316.87,172.432z M357.839,153.791V89.542c1.469-0.047,2.938-0.078,4.438-0.078
	c30.687,0,59.718,10.703,82.873,30.344l-45.687,45.687c-10.812-7.703-23.688-11.859-37.187-11.859
	C360.776,153.635,359.308,153.689,357.839,153.791z M453.024,308.57l-7.562,7.562c-6.062,6.062-14.124,9.391-22.687,9.391
	c-8.594,0-16.625-3.328-22.688-9.391c-6.062-6.062-9.406-14.124-9.406-22.687c0-8.578,3.344-16.64,9.406-22.687l7.562-7.562
	c5.719-5.75,10.219-12.367,13.406-19.57h66.968C483.056,268.071,471.056,290.523,453.024,308.57z"/>
<g>
</g>
<g>
</g>
<g>
</g>
<g>
</g>
<g>
</g>
<g>
</g>
<g>
</g>
<g>
</g>
<g>
</g>
<g>
</g>
<g>
</g>
<g>
</g>
<g>
</g>
<g>
</g>
<g>
</g>
</svg>
