<?xml version="1.0" encoding="iso-8859-1"?>
<!-- Generator: Adobe Illustrator 19.0.0, SVG Export Plug-In . SVG Version: 6.00 Build 0)  -->
<svg version="1.1" id="Layer_1" xmlns="http://www.w3.org/2000/svg" xmlns:xlink="http://www.w3.org/1999/xlink" x="0px" y="0px"
	 viewBox="0 0 512.001 512.001" style="enable-background:new 0 0 512.001 512.001;" xml:space="preserve">
<path style="fill:#F5E038;" d="M13.144,498.923L13.144,498.923c-6.745-6.745-6.745-17.682,0-24.427l172.554-172.554
	c6.745-6.745,17.682-6.745,24.427,0l0,0c6.745,6.745,6.745,17.682,0,24.427L37.57,498.923
	C30.825,505.668,19.889,505.668,13.144,498.923z"/>
<path style="fill:#F1EDE8;" d="M197.911,94.311c60.708-60.708,220.204-121.776,280.912-61.068s-0.359,220.204-61.068,280.912
	s-159.136,60.709-219.845,0S137.203,155.019,197.911,94.311z"/>
<path style="fill:#E3DCD2;" d="M209.181,254.305c0-129.378,104.881-234.26,234.26-234.26c6.294,0,12.526,0.256,18.694,0.743
	C392.799-17.515,253.679,38.542,197.911,94.31c-60.708,60.709-60.708,159.136,0,219.845c7.9,7.9,16.442,14.762,25.453,20.605
	C214.189,309.67,209.181,282.573,209.181,254.305z"/>
<g>
	<path style="fill:#40CACF;" d="M263.558,74.463c14.501,14.501,38.928-9.925,53.43,4.575c14.504,14.504-9.924,38.93,4.579,53.433
		c14.504,14.504,38.93-9.924,53.434,4.579c14.504,14.504-9.923,38.931,4.58,53.435c14.504,14.504,38.93-9.924,53.434,4.579
		c14.506,14.506-9.922,38.932,4.584,53.438c6.796,6.796,15.769,5.047,24.879,2.758c39.297-73.151,61.481-172.884,16.345-218.019
		C433.686-11.895,333.951,10.291,260.8,49.589C258.513,58.698,256.765,67.669,263.558,74.463z"/>
	<path style="fill:#40CACF;" d="M323.093,304.987c-14.504-14.504-38.93,9.923-53.434-4.579c-14.504-14.504,9.923-38.931-4.58-53.435
		c-14.504-14.504-38.93,9.924-53.434-4.579c-14.504-14.504,9.924-38.93-4.579-53.433c-14.496-14.496-38.909,9.906-53.412-4.56
		c-5.898,46.105,8.849,94.346,44.259,129.755c35.41,35.41,83.65,50.155,129.755,44.259
		C313.186,343.907,337.594,319.489,323.093,304.987z"/>
</g>
<g>
	<path style="fill:#3AB0B0;" d="M290.788,76.62c41.001-35.258,94.335-56.573,152.653-56.573c6.307,0,12.553,0.257,18.734,0.746
		C412.206-6.84,325.957,14.587,260.8,49.591c-2.288,9.108-4.036,18.079,2.757,24.871C270.936,81.841,280.885,79.141,290.788,76.62z"
		/>
	<path style="fill:#3AB0B0;" d="M209.181,254.305c0-4.826,0.163-9.612,0.451-14.365c-9.933-14.68,11.147-37.265-2.567-50.98
		c-14.496-14.496-38.909,9.906-53.412-4.56c-5.898,46.105,8.849,94.346,44.259,129.755c7.9,7.9,16.442,14.765,25.453,20.608
		C214.189,309.672,209.181,282.574,209.181,254.305z"/>
</g>
<path style="fill:#F36280;" d="M441.852,284.936c-13.646,0.132-30.045,11.057-40.893,0.207
	c-14.506-14.506,9.922-38.932-4.584-53.438c-14.504-14.504-38.93,9.923-53.434-4.579c-14.504-14.504,9.923-38.931-4.58-53.435
	c-14.504-14.504-38.93,9.924-53.434-4.579s9.924-38.93-4.579-53.433c-14.501-14.501-38.928,9.926-53.43-4.575
	c-10.846-10.846,0.078-27.242,0.212-40.886c-11.188,7.844-21.093,15.971-29.217,24.094c-2.718,2.718-5.31,5.516-7.786,8.379
	c2.73,14.335-11.826,33.076,0.151,45.053c14.501,14.501,38.928-9.926,53.43,4.575c14.504,14.504-9.924,38.93,4.579,53.433
	c14.504,14.504,38.93-9.924,53.434,4.579s-9.923,38.931,4.581,53.435c14.504,14.504,38.93-9.924,53.434,4.579
	c14.506,14.506-9.922,38.932,4.584,53.438c11.98,11.98,30.724-2.578,45.06,0.155c2.863-2.475,5.66-5.066,8.378-7.785
	C425.88,306.031,434.007,296.125,441.852,284.936z"/>
<path style="fill:#E05161;" d="M234.75,147.777c6.354-12.424,13.796-24.197,22.182-35.213c-10.799,2.623-21.944,6.61-30.015-1.462
	c-10.846-10.846,0.078-27.242,0.212-40.886c-11.188,7.844-21.093,15.971-29.218,24.094c-2.718,2.718-5.31,5.516-7.786,8.379
	c2.73,14.335-11.826,33.076,0.151,45.053C202.092,159.558,220.494,145.537,234.75,147.777z"/>
<path style="fill:#F36280;" d="M497.558,64.191l-0.415-0.415l0.193-0.193c-4.06-11.653-10.117-21.945-18.514-30.34
	c-28.154-28.155-77.559-30.107-128.502-18.06l-18.061,18.06c-6.745,6.745-6.745,17.682,0,24.427s17.682,6.745,24.427,0
	l18.321-18.321c6.745-6.745,17.682-6.745,24.427,0c6.745,6.745,6.745,17.682,0,24.427s-6.745,17.682,0,24.427s17.682,6.745,24.427,0
	l18.321-18.321c6.745-6.745,17.682-6.745,24.427,0c6.745,6.745,6.745,17.682,0,24.427l-42.748,42.748
	c-6.745,6.745-6.745,17.682,0,24.427c6.745,6.745,17.682,6.745,24.427,0l24.427-24.427c6.745-6.745,17.682-6.745,24.427,0
	c1.592,1.592,2.796,3.423,3.636,5.373C505.499,113.827,505.179,86.533,497.558,64.191z"/>
<path style="fill:#E05161;" d="M443.441,20.045c6.289,0,12.518,0.255,18.682,0.742C433.261,4.851,392.319,5.25,350.321,15.183
	l-18.061,18.06c-4.661,4.661-6.097,11.323-4.316,17.221C362.031,31.108,401.443,20.045,443.441,20.045z"/>
<path d="M484.549,27.518C455.159-1.871,402.478-7.935,336.203,10.443C280.829,25.8,224.298,56.472,192.186,88.585
	c-57.668,57.668-63.18,148.037-16.545,211.962l-18.246,18.246c-9.995-24.42-24.13-56.309-33.146-65.325
	c-16.626-16.626-43.679-16.626-60.304,0c-12.535,12.533-16.025,32.122-8.507,48.2c2.101,4.493,5,8.597,8.507,12.104
	c8.521,8.521,37.468,21.612,61.235,31.462c-13.372,4.239-33.179,7.245-54.018-1.069c-20.632-8.231-32.485-23.662-37.715-32.128
	c-2.35-3.803-7.339-4.983-11.143-2.633c-3.804,2.35-4.983,7.339-2.633,11.143c6.279,10.165,20.538,28.703,45.491,38.658
	c11.702,4.669,23.104,6.392,33.566,6.392c4.42,0,8.665-0.313,12.701-0.837l-19.501,19.501c-2.948,2.947-3.144,7.817-0.431,10.985
	c3.028,3.535,8.587,3.758,11.88,0.464l40.464-40.465c1.059-0.5,1.997-0.966,2.81-1.385c3.379,1.318,6.216,2.406,8.338,3.214
	c0.887,2.332,2.117,5.536,3.614,9.363L31.846,493.197c-3.793,3.794-10.218,3.461-13.606-0.696c-2.931-3.597-2.65-9.002,0.629-12.281
	l53.471-53.47c3.162-3.162,3.162-8.289,0-11.45c-3.161-3.162-8.288-3.162-11.45,0L7.419,468.77c-9.892,9.892-9.892,25.986,0,35.877
	c9.78,9.78,26.098,9.78,35.877,0l104.361-104.361c-2.182,14.099-1.851,31.097,5.203,48.779
	c9.956,24.952,28.493,39.212,38.658,45.491c4.056,2.507,9.537,0.871,11.575-3.426c1.745-3.678,0.395-8.212-3.065-10.35
	c-8.466-5.229-23.897-17.083-32.127-37.715c-8.569-21.48-5.112-41.854-0.673-55.224c9.802,23.582,22.658,51.874,31.066,60.281
	c8.053,8.054,18.762,12.489,30.153,12.489c11.39,0,22.098-4.435,30.153-12.489c16.626-16.626,16.626-43.678,0-60.304
	c-9.016-9.016-40.905-23.151-65.325-33.146l18.245-18.245c28.582,20.852,62.443,31.28,96.315,31.28
	c41.876,0,83.767-15.946,115.647-47.826c22.636-22.636,45.215-58.29,61.948-97.821c1.743-4.117-0.182-8.868-4.3-10.612
	c-4.117-1.743-8.869,0.182-10.612,4.3c-4.153,9.811-8.672,19.354-13.456,28.484c-8.406,1.856-11.411,0.873-13.736-1.452
	c-3.599-3.6-2.769-8.798-0.171-18.994c2.717-10.663,6.098-23.932-4.413-34.444c-10.509-10.51-23.779-7.129-34.442-4.411
	c-10.196,2.601-15.393,3.43-18.992-0.169c-3.599-3.599-2.769-8.796-0.169-18.992c2.718-10.662,6.099-23.931-4.411-34.443
	c-10.511-10.511-23.78-7.128-34.442-4.41c-10.197,2.6-15.394,3.429-18.992-0.168c-3.598-3.598-2.768-8.796-0.168-18.992
	c2.718-10.662,6.1-23.93-4.41-34.442c-10.511-10.511-23.78-7.127-34.44-4.408c-10.196,2.598-15.392,3.431-18.989-0.167
	c-2.311-2.312-3.298-5.264-1.501-13.511c0.021-0.094,0.03-0.189,0.046-0.283c17.532-9.179,36.459-17.272,55.618-23.665
	c-6.653,9.862-5.632,23.397,3.089,32.116c9.891,9.892,25.987,9.893,35.877,0l18.321-18.321c3.578-3.578,9.4-3.577,12.977,0
	c3.578,3.578,3.578,9.4,0,12.977c-9.78,9.78-9.78,26.098,0,35.877s26.098,9.78,35.877,0l18.32-18.32
	c3.541-3.541,9.435-3.531,12.977,0s3.532,9.444,0,12.977l-42.748,42.748c-9.78,9.78-9.78,26.098,0,35.877
	c9.78,9.78,26.099,9.781,35.877,0l24.427-24.427c3.578-3.577,9.4-3.577,12.977,0c0.328,0.328,0.622,0.693,0.897,1.071
	c-1.462,8.311-3.214,15.984-4.928,22.584c-1.124,4.328,1.474,8.747,5.801,9.872c4.327,1.123,8.749-1.472,9.872-5.801
	C519.61,106.786,513.036,56.005,484.549,27.518z M215.078,89.585c-1.827,9.052-2.132,18.996,6.115,27.242
	c10.51,10.51,23.779,7.126,34.44,4.408c10.194-2.6,15.391-3.43,18.989,0.167c3.598,3.598,2.768,8.796,0.168,18.991
	c-2.718,10.662-6.1,23.931,4.41,34.442c10.51,10.511,23.78,7.128,34.442,4.41c10.195-2.598,15.393-3.43,18.992,0.169
	c3.599,3.599,2.769,8.796,0.17,18.992c-2.717,10.662-6.099,23.931,4.411,34.443s23.779,7.128,34.442,4.41
	c10.196-2.598,15.393-3.429,18.992,0.169c3.599,3.6,2.769,8.798,0.171,18.994c-1.899,7.452-3.859,15.339-2.054,23.013
	c2.019,8.587,9.077,15.725,17.643,17.837c5.282,1.303,10.798,0.768,16.07-0.297c-3.47,4.129-6.96,7.963-10.448,11.451
	c-1.764,1.764-3.564,3.473-5.393,5.129c-0.302-0.037-0.609-0.06-0.921-0.064c-0.09-0.001-0.18-0.001-0.271-0.001
	c-5.602,0-11.092,1.396-16.404,2.747c-10.198,2.593-15.396,3.421-18.999-0.18c-3.6-3.6-2.77-8.798-0.172-18.996
	c2.717-10.662,6.098-23.931-4.412-34.443c-10.51-10.511-23.779-7.128-34.443-4.411c-10.195,2.601-15.393,3.43-18.992-0.169
	c-3.598-3.599-2.768-8.796-0.169-18.992c2.718-10.663,6.1-23.931-4.411-34.443c-10.509-10.51-23.779-7.128-34.442-4.41
	c-10.196,2.6-15.393,3.429-18.992-0.168c-3.598-3.598-2.768-8.796-0.168-18.991c2.718-10.662,6.1-23.931-4.41-34.442
	c-10.51-10.511-23.78-7.127-34.44-4.408c-10.195,2.6-15.392,3.429-18.989-0.167c-3.601-3.601-2.773-8.799-0.179-18.997
	c1.434-5.636,2.916-11.464,2.733-17.408c-0.002-0.073-0.014-0.145-0.017-0.218c1.646-1.819,3.344-3.607,5.099-5.36
	C207.144,96.528,210.979,93.039,215.078,89.585z M331.478,349.618c-1.287-3.953,0.19-9.777,1.753-15.912
	c2.717-10.663,6.098-23.932-4.413-34.444c-10.511-10.511-23.781-7.129-34.443-4.41c-10.195,2.597-15.393,3.43-18.991-0.169
	c-3.599-3.599-2.769-8.797-0.169-18.993c2.718-10.662,6.099-23.931-4.411-34.442c-10.511-10.511-23.781-7.129-34.443-4.41
	c-10.195,2.598-15.393,3.43-18.991-0.169c-3.598-3.598-2.768-8.796-0.168-18.991c2.718-10.662,6.1-23.931-4.41-34.442
	c-10.508-10.509-23.778-7.127-34.439-4.409c-6.127,1.562-11.946,3.038-15.903,1.759c2.501-15.51,7.473-30.694,14.931-44.908
	c0.017,6.174,1.733,12.352,7.172,17.792c10.508,10.509,23.777,7.126,34.439,4.408c10.195-2.601,15.392-3.431,18.99,0.167
	c3.598,3.598,2.768,8.796,0.168,18.992c-2.718,10.662-6.1,23.93,4.41,34.442c10.511,10.511,23.781,7.129,34.443,4.41
	c10.194-2.598,15.392-3.431,18.991,0.169c3.599,3.599,2.769,8.797,0.169,18.993c-2.718,10.662-6.099,23.931,4.411,34.442
	c10.511,10.511,23.78,7.128,34.443,4.411c10.196-2.6,15.393-3.43,18.992,0.169s2.769,8.797,0.171,18.994
	c-2.717,10.663-6.098,23.932,4.413,34.444c5.442,5.442,11.621,7.159,17.797,7.177C362.176,342.146,346.989,347.117,331.478,349.618z
	 M67.647,283.621c0-7.064,2.751-13.707,7.747-18.702c10.181-10.18,27.224-10.18,37.404,0c6.911,6.911,21.012,38.624,32.164,66.308
	l-3.26,3.26c-27.683-11.151-59.393-25.25-66.307-32.165C70.398,297.328,67.647,290.685,67.647,283.621z M247.148,399.269
	c10.312,10.313,10.312,27.092,0,37.404c-10.195,10.195-27.209,10.195-37.404,0c-6.911-6.911-21.012-38.624-32.164-66.308l3.26-3.26
	C208.523,378.254,240.233,392.354,247.148,399.269z M176.915,348.128c-3.828-1.497-7.031-2.727-9.363-3.614
	c-0.887-2.332-2.117-5.536-3.614-9.363l21.945-21.945c4.083,4.564,8.414,8.894,12.977,12.977L176.915,348.128z M203.637,308.43
	c-30.606-30.606-44.904-71.437-42.903-111.599c7.311,1.324,14.799-0.575,21.617-2.313c10.195-2.6,15.391-3.431,18.989,0.167
	c3.598,3.598,2.768,8.796,0.169,18.991c-2.718,10.662-6.1,23.931,4.41,34.442c10.51,10.511,23.78,7.128,34.442,4.41
	c10.196-2.6,15.393-3.43,18.992,0.169c3.598,3.599,2.768,8.796,0.169,18.992c-2.718,10.663-6.1,23.931,4.411,34.443
	c10.51,10.511,23.78,7.128,34.442,4.41c10.196-2.6,15.393-3.43,18.992,0.169c3.6,3.6,2.77,8.798,0.172,18.994
	c-1.737,6.816-3.639,14.309-2.312,21.625C275.068,353.332,234.241,339.034,203.637,308.43z M257.833,80.187
	c10.509,10.509,23.778,7.127,34.441,4.408c10.195-2.601,15.392-3.431,18.99,0.167c3.598,3.598,2.768,8.796,0.168,18.991
	c-2.718,10.662-6.1,23.931,4.41,34.442c10.511,10.511,23.78,7.128,34.442,4.41c10.195-2.6,15.393-3.431,18.992,0.168
	c3.599,3.599,2.768,8.796,0.17,18.992c-2.718,10.663-6.1,23.931,4.411,34.443c10.511,10.511,23.78,7.128,34.443,4.411
	c10.195-2.6,15.392-3.43,18.991,0.169c3.6,3.6,2.77,8.798,0.172,18.994c-2.717,10.662-6.098,23.931,4.412,34.444
	c4.863,4.863,10.493,6.653,15.642,7.069c-3.29,5.515-6.665,10.818-10.101,15.861c-4.001,0.485-7.93,1.464-11.737,2.433
	c-10.195,2.597-15.394,3.428-18.996-0.174c-3.6-3.6-2.77-8.798-0.172-18.994c2.717-10.662,6.098-23.931-4.412-34.444
	c-10.51-10.51-23.779-7.128-34.442-4.41c-10.197,2.598-15.394,3.429-18.992-0.169c-3.599-3.599-2.769-8.797-0.169-18.993
	c2.717-10.662,6.099-23.931-4.411-34.442c-10.509-10.51-23.779-7.129-34.442-4.41c-10.195,2.598-15.393,3.43-18.991-0.169
	c-3.598-3.598-2.768-8.796-0.168-18.991c2.718-10.662,6.1-23.931-4.41-34.442c-10.509-10.51-23.779-7.127-34.439-4.408
	c-10.196,2.6-15.393,3.431-18.99-0.167c-3.599-3.599-2.769-8.796-0.171-18.992c0.936-3.673,1.903-7.471,2.406-11.338
	c0.019-0.15,0.024-0.299,0.036-0.448c5.051-3.448,10.34-6.825,15.831-10.103C251.147,69.628,252.928,75.283,257.833,80.187z
	 M466.992,131.333l-24.427,24.427c-3.541,3.541-9.435,3.531-12.977,0c-3.542-3.531-3.532-9.444,0-12.977l42.748-42.748
	c9.78-9.78,9.78-26.098,0-35.877c-9.78-9.78-26.098-9.78-35.877,0l-18.32,18.32c-3.541,3.541-9.435,3.531-12.977,0
	c-3.542-3.531-3.532-9.444,0-12.977c9.892-9.891,9.892-25.986,0-35.877c-9.892-9.89-25.986-9.891-35.877,0l-18.321,18.321
	c-3.792,3.793-10.218,3.461-13.607-0.696c-2.931-3.597-2.65-9.002,0.629-12.281l14.959-14.959c0.426-0.426,0.789-0.89,1.101-1.377
	c53.295-12.234,96.233-6.483,119.054,16.337c21.865,21.865,24.782,56.418,21.713,86.955
	C485.581,122.03,474.501,123.825,466.992,131.333z"/>
<path d="M338.75,100.799c-3.162,3.162-3.162,8.289,0,11.45l0.763,0.763c1.58,1.58,3.653,2.372,5.725,2.372
	c2.072,0,4.144-0.79,5.725-2.372c3.162-3.162,3.162-8.289,0-11.45l-0.763-0.763C347.038,97.637,341.911,97.637,338.75,100.799z"/>
<path d="M460.885,174.08c-3.162,3.162-3.162,8.289,0,11.45l0.763,0.763c1.58,1.58,3.653,2.372,5.725,2.372
	c2.072,0,4.144-0.79,5.725-2.372c3.162-3.162,3.162-8.289,0-11.45l-0.763-0.763C469.173,170.919,464.046,170.919,460.885,174.08z"/>
<path d="M412.031,113.776l-0.763-0.763c-3.162-3.162-8.289-3.162-11.45,0c-3.162,3.162-3.162,8.289,0,11.45l0.763,0.763
	c1.58,1.58,3.653,2.372,5.725,2.372c2.072,0,4.144-0.79,5.725-2.372C415.193,122.065,415.193,116.938,412.031,113.776z"/>
<path d="M369.283,106.143c1.58,1.58,3.653,2.372,5.725,2.372c2.072,0,4.144-0.79,5.725-2.372c3.162-3.162,3.162-8.289,0-11.45
	l-0.763-0.763c-3.162-3.162-8.289-3.162-11.45,0c-3.162,3.162-3.162,8.289,0,11.45L369.283,106.143z"/>
<path d="M296.002,45.839c-3.162,3.162-3.162,8.289,0,11.45l0.763,0.763c1.58,1.58,3.653,2.372,5.725,2.372
	c2.072,0,4.144-0.79,5.725-2.372c3.162-3.162,3.162-8.289,0-11.45l-0.763-0.763C304.29,42.677,299.163,42.677,296.002,45.839z"/>
<path d="M375.39,76.372c3.162-3.162,3.162-8.289,0-11.45l-0.763-0.763c-3.162-3.162-8.289-3.162-11.45,0
	c-3.162,3.162-3.162,8.289,0,11.45l0.763,0.763c1.58,1.58,3.653,2.372,5.725,2.372C371.737,78.744,373.809,77.953,375.39,76.372z"/>
<path d="M184.553,228.278c-3.162-3.162-8.289-3.162-11.45,0c-3.162,3.162-3.162,8.289,0,11.45l0.763,0.763
	c1.58,1.58,3.653,2.372,5.725,2.372s4.144-0.79,5.725-2.372c3.162-3.162,3.162-8.289,0-11.45L184.553,228.278z"/>
<path d="M247.15,266.448l-0.763-0.764c-3.161-3.163-8.288-3.166-11.45-0.004c-3.163,3.161-3.165,8.288-0.004,11.45l0.763,0.764
	c1.582,1.583,3.654,2.374,5.727,2.374c2.071,0,4.142-0.789,5.723-2.37C250.308,274.737,250.311,269.611,247.15,266.448z"/>
<path d="M209.745,265.684c-3.161-3.163-8.288-3.166-11.45-0.004c-3.163,3.161-3.165,8.288-0.004,11.45l0.763,0.764
	c1.582,1.583,3.654,2.374,5.727,2.374c2.071,0,4.142-0.789,5.723-2.37c3.163-3.161,3.165-8.288,0.004-11.45L209.745,265.684z"/>
<path d="M228.063,296.217c-3.162-3.162-8.289-3.162-11.45,0c-3.162,3.162-3.162,8.289,0,11.45l0.763,0.763
	c1.58,1.58,3.653,2.372,5.725,2.372s4.144-0.79,5.725-2.372c3.162-3.162,3.162-8.289,0-11.45L228.063,296.217z"/>
<path d="M258.599,314.539c-3.161-3.163-8.288-3.165-11.45-0.004c-3.163,3.161-3.165,8.288-0.004,11.45l0.763,0.764
	c1.582,1.583,3.654,2.374,5.727,2.374c2.071,0,4.142-0.789,5.723-2.37c3.163-3.161,3.165-8.288,0.004-11.45L258.599,314.539z"/>
<path d="M295.236,326.749c-3.163-3.161-8.29-3.161-11.45,0.004c-3.161,3.163-3.159,8.29,0.004,11.45l0.764,0.763
	c1.58,1.579,3.651,2.37,5.723,2.37c2.073,0,4.147-0.791,5.727-2.374c3.161-3.163,3.159-8.29-0.004-11.45L295.236,326.749z"/>
<g>
</g>
<g>
</g>
<g>
</g>
<g>
</g>
<g>
</g>
<g>
</g>
<g>
</g>
<g>
</g>
<g>
</g>
<g>
</g>
<g>
</g>
<g>
</g>
<g>
</g>
<g>
</g>
<g>
</g>
</svg>
