<?xml version="1.0" encoding="iso-8859-1"?>
<!-- Generator: Adobe Illustrator 19.0.0, SVG Export Plug-In . SVG Version: 6.00 Build 0)  -->
<svg version="1.1" id="Capa_1" xmlns="http://www.w3.org/2000/svg" xmlns:xlink="http://www.w3.org/1999/xlink" x="0px" y="0px"
	 viewBox="0 0 470 470" style="enable-background:new 0 0 470 470;" xml:space="preserve">
<g>
	<path style="fill:#DDCAF3;" d="M235,15C113.691,15,15,113.691,15,235s98.691,220,220,220s220-98.691,220-220S356.309,15,235,15z
		 M90.074,342.692c-4.411,0-8-3.589-8-8s3.589-8,8-8s8,3.589,8,8S94.485,342.692,90.074,342.692z M130.074,372.692
		c-4.411,0-8-3.589-8-8s3.589-8,8-8s8,3.589,8,8S134.485,372.692,130.074,372.692z M350.601,235c0,2.535-0.091,5.048-0.251,7.542
		c0.083,0.008,0.164,0.009,0.247,0.02c4.107,0.532,7.006,4.294,6.474,8.402c-7.913,61.078-60.392,107.137-122.07,107.137
		c-67.878,0-123.101-55.223-123.101-123.101S167.122,111.899,235,111.899c61.679,0,114.157,46.059,122.07,107.137
		c0.532,4.108-2.366,7.87-6.474,8.402c-0.083,0.011-0.165,0.011-0.247,0.019C350.51,229.952,350.601,232.465,350.601,235z
		 M400.074,152.692c-4.411,0-8-3.589-8-8s3.589-8,8-8s8,3.589,8,8S404.485,152.692,400.074,152.692z"/>
	<path style="fill:#3D2A20;" d="M401.17,68.83C356.784,24.444,297.771,0,235,0C172.229,0,113.215,24.444,68.83,68.83
		C24.444,113.216,0,172.229,0,235c0,62.771,24.444,121.785,68.83,166.17C113.215,445.556,172.229,470,235,470
		c62.771,0,121.784-24.444,166.17-68.83C445.556,356.785,470,297.771,470,235C470,172.229,445.556,113.216,401.17,68.83z M235,455
		c-121.309,0-220-98.691-220-220S113.691,15,235,15s220,98.691,220,220S356.309,455,235,455z"/>
	<path style="fill:#AB7BE1;" d="M342.195,220.964c-6.948-53.625-53.032-94.064-107.195-94.064
		c-59.607,0-108.101,48.494-108.101,108.101S175.393,343.101,235,343.101c54.163,0,100.247-40.439,107.195-94.064
		c0.521-4.025,4.14-6.883,8.154-6.494c0.161-2.494,0.251-5.008,0.251-7.542c0-2.535-0.091-5.048-0.251-7.543
		C346.339,227.841,342.716,224.989,342.195,220.964z"/>
	<path style="fill:#3D2A20;" d="M357.07,219.036c-7.913-61.078-60.392-107.137-122.07-107.137
		c-67.878,0-123.101,55.223-123.101,123.101S167.122,358.101,235,358.101c61.679,0,114.157-46.059,122.07-107.137
		c0.532-4.108-2.366-7.87-6.474-8.402c-0.083-0.011-0.165-0.012-0.247-0.02c-4.014-0.389-7.633,2.469-8.154,6.494
		c-6.948,53.625-53.032,94.064-107.195,94.064c-59.607,0-108.101-48.494-108.101-108.101S175.393,126.899,235,126.899
		c54.163,0,100.247,40.439,107.195,94.064c0.521,4.025,4.143,6.877,8.154,6.493c0.083-0.008,0.164-0.009,0.247-0.019
		C354.704,226.906,357.603,223.144,357.07,219.036z"/>
	<path style="fill:#3D2A20;" d="M130.074,356.692c-4.411,0-8,3.589-8,8s3.589,8,8,8s8-3.589,8-8S134.485,356.692,130.074,356.692z"
		/>
	<path style="fill:#3D2A20;" d="M90.074,326.692c-4.411,0-8,3.589-8,8s3.589,8,8,8s8-3.589,8-8S94.485,326.692,90.074,326.692z"/>
	<path style="fill:#3D2A20;" d="M400.074,136.692c-4.411,0-8,3.589-8,8s3.589,8,8,8s8-3.589,8-8S404.485,136.692,400.074,136.692z"
		/>
</g>
<g>
</g>
<g>
</g>
<g>
</g>
<g>
</g>
<g>
</g>
<g>
</g>
<g>
</g>
<g>
</g>
<g>
</g>
<g>
</g>
<g>
</g>
<g>
</g>
<g>
</g>
<g>
</g>
<g>
</g>
</svg>
