<?xml version="1.0" encoding="iso-8859-1"?>
<!-- Generator: Adobe Illustrator 19.0.0, SVG Export Plug-In . SVG Version: 6.00 Build 0)  -->
<svg version="1.1" id="Capa_1" xmlns="http://www.w3.org/2000/svg" xmlns:xlink="http://www.w3.org/1999/xlink" x="0px" y="0px"
	 viewBox="0 0 470 470" style="enable-background:new 0 0 470 470;" xml:space="preserve">
<g>
	<path style="fill:#03E6FF;" d="M235,31.583c-53.081,0-96.266,43.185-96.266,96.266c0,53.081,43.185,96.265,96.266,96.265
		c53.081,0,96.265-43.185,96.265-96.265C331.265,74.768,288.081,31.583,235,31.583z M211.27,65.996
		c-17.492,6.736-31.387,20.632-38.123,38.123c-1.147,2.979-3.989,4.807-7,4.807c-0.896,0-1.808-0.162-2.694-0.503
		c-3.865-1.489-5.792-5.829-4.304-9.694c8.257-21.44,25.289-38.472,46.73-46.73c3.864-1.488,8.206,0.438,9.694,4.304
		C217.062,60.167,215.135,64.507,211.27,65.996z"/>
	<path style="fill:#3D2A20;" d="M346.265,127.849c0-61.352-49.913-111.266-111.265-111.266S123.734,66.497,123.734,127.849
		S173.648,239.114,235,239.114S346.265,189.201,346.265,127.849z M235,224.114c-53.081,0-96.266-43.185-96.266-96.265
		c0-53.081,43.185-96.266,96.266-96.266c53.081,0,96.265,43.185,96.265,96.266C331.265,180.93,288.081,224.114,235,224.114z"/>
	<path style="fill:#FFFFFF;" d="M205.879,51.998c-21.441,8.258-38.473,25.29-46.73,46.73c-1.488,3.865,0.438,8.206,4.304,9.694
		c0.886,0.341,1.797,0.503,2.694,0.503c3.012,0,5.853-1.828,7-4.807c6.736-17.491,20.631-31.386,38.123-38.123
		c3.866-1.489,5.792-5.829,4.304-9.694C214.085,52.437,209.743,50.51,205.879,51.998z"/>
	<path style="fill:#E7453F;" d="M455,342.151c0-53.081-43.185-96.265-96.266-96.265c-53.081,0-96.265,43.185-96.265,96.265
		c0,53.081,43.185,96.266,96.265,96.266C411.815,438.417,455,395.232,455,342.151z M335.004,280.298
		c-17.491,6.736-31.386,20.631-38.123,38.123c-1.147,2.979-3.989,4.807-7,4.807c-0.896,0-1.808-0.162-2.694-0.503
		c-3.866-1.489-5.792-5.829-4.304-9.694c8.257-21.44,25.29-38.473,46.73-46.73c3.863-1.489,8.206,0.438,9.694,4.304
		C340.796,274.469,338.87,278.81,335.004,280.298z"/>
	<path style="fill:#3D2A20;" d="M358.734,230.886c-61.352,0-111.265,49.913-111.265,111.265s49.913,111.266,111.265,111.266
		S470,403.503,470,342.151S420.086,230.886,358.734,230.886z M262.469,342.151c0-53.081,43.185-96.265,96.265-96.265
		c53.081,0,96.266,43.185,96.266,96.265c0,53.081-43.185,96.266-96.266,96.266C305.654,438.417,262.469,395.232,262.469,342.151z"/>
	<path style="fill:#FFFFFF;" d="M329.613,266.3c-21.44,8.257-38.473,25.29-46.73,46.73c-1.489,3.865,0.438,8.206,4.304,9.694
		c0.886,0.341,1.797,0.503,2.694,0.503c3.012,0,5.853-1.828,7-4.807c6.736-17.491,20.631-31.386,38.123-38.123
		c3.866-1.489,5.792-5.829,4.304-9.694C337.819,266.738,333.477,264.812,329.613,266.3z"/>
	<path style="fill:#FFCB59;" d="M207.53,342.151c0-53.081-43.185-96.265-96.265-96.265S15,289.07,15,342.151
		c0,53.081,43.185,96.266,96.265,96.266S207.53,395.232,207.53,342.151z M87.535,280.298c-17.491,6.736-31.386,20.631-38.123,38.123
		c-1.147,2.979-3.989,4.807-7,4.807c-0.896,0-1.808-0.162-2.694-0.503c-3.866-1.489-5.792-5.829-4.304-9.694
		c8.257-21.44,25.29-38.473,46.73-46.73c3.864-1.489,8.206,0.438,9.694,4.304C93.327,274.469,91.4,278.81,87.535,280.298z"/>
	<path style="fill:#3D2A20;" d="M111.265,230.886C49.913,230.886,0,280.799,0,342.151s49.913,111.266,111.265,111.266
		S222.53,403.503,222.53,342.151S172.617,230.886,111.265,230.886z M15,342.151c0-53.081,43.185-96.265,96.265-96.265
		s96.265,43.185,96.265,96.265c0,53.081-43.185,96.266-96.265,96.266S15,395.232,15,342.151z"/>
	<path style="fill:#FFFFFF;" d="M82.144,266.3c-21.44,8.257-38.473,25.29-46.73,46.73c-1.489,3.865,0.438,8.206,4.304,9.694
		c0.886,0.341,1.797,0.503,2.694,0.503c3.012,0,5.853-1.828,7-4.807c6.736-17.491,20.631-31.386,38.123-38.123
		c3.866-1.489,5.792-5.829,4.304-9.694C90.35,266.738,86.008,264.812,82.144,266.3z"/>
</g>
<g>
</g>
<g>
</g>
<g>
</g>
<g>
</g>
<g>
</g>
<g>
</g>
<g>
</g>
<g>
</g>
<g>
</g>
<g>
</g>
<g>
</g>
<g>
</g>
<g>
</g>
<g>
</g>
<g>
</g>
</svg>
