<?xml version="1.0" encoding="iso-8859-1"?>
<!-- Generator: Adobe Illustrator 19.0.0, SVG Export Plug-In . SVG Version: 6.00 Build 0)  -->
<svg version="1.1" id="Capa_1" xmlns="http://www.w3.org/2000/svg" xmlns:xlink="http://www.w3.org/1999/xlink" x="0px" y="0px"
	 viewBox="0 0 469.999 469.999" style="enable-background:new 0 0 469.999 469.999;" xml:space="preserve">
<g>
	<path style="fill:#D6B8A4;" d="M318.617,122.163c-1.462-11.178-6.487-21.236-14.551-28.865
		c-10.99-10.397-27.033-16.033-46.396-16.296c-25.799-0.355-53.205,6.39-75.173,18.495c-14.792,8.152-25.339,17.812-29.539,26.667
		H318.617z"/>
	<rect x="352.207" y="325.5" style="fill:#FFCB59;" width="102.792" height="67.51"/>
	<rect x="352.207" y="137.163" style="fill:#855538;" width="102.792" height="173.336"/>
	<path style="fill:#3D2A20;" d="M462.499,122.163H333.706c-1.543-15.364-8.246-29.273-19.331-39.761
		c-13.771-13.029-33.309-20.083-56.499-20.399c-28.338-0.369-58.44,7.034-82.618,20.357c-20.962,11.552-34.445,25.716-38.227,39.804
		H7.5c-4.142,0-7.5,3.358-7.5,7.5v270.846c0,4.142,3.358,7.5,7.5,7.5h454.999c4.143,0,7.5-3.358,7.5-7.5V129.663
		C469.999,125.521,466.641,122.163,462.499,122.163z M182.498,95.497c21.968-12.105,49.374-18.85,75.173-18.495
		c19.362,0.264,35.405,5.899,46.396,16.296c8.064,7.629,13.089,17.687,14.551,28.865H152.958
		C157.158,113.308,167.706,103.648,182.498,95.497z M454.999,310.5H352.207V137.163h102.792V310.5z M15,325.5h52.5
		c4.141,0,7.498-3.356,7.5-7.496c0-0.001,0-0.002,0-0.004c0-4.142-3.358-7.5-7.5-7.5H15V137.163h322.203V310.5H97.5
		c-4.142,0-7.5,3.358-7.5,7.5c0,0.001,0,0.002,0,0.004c0.002,4.14,3.359,7.496,7.5,7.496h239.703v67.51H15V325.5z M352.207,393.009
		V325.5h102.792v67.51H352.207z"/>
	<path style="fill:#FFD77D;" d="M337.203,325.5H97.5c-4.141,0-7.498-3.356-7.5-7.496H75c-0.002,4.14-3.359,7.496-7.5,7.496H15v67.51
		h322.203V325.5z"/>
	<path style="fill:#A67B60;" d="M90,318c0-4.142,3.358-7.5,7.5-7.5h239.703V137.163H15V310.5h52.5c4.142,0,7.5,3.358,7.5,7.5
		c0,0.001,0,0.002,0,0.004h15C90,318.002,90,318.001,90,318z"/>
</g>
<g>
</g>
<g>
</g>
<g>
</g>
<g>
</g>
<g>
</g>
<g>
</g>
<g>
</g>
<g>
</g>
<g>
</g>
<g>
</g>
<g>
</g>
<g>
</g>
<g>
</g>
<g>
</g>
<g>
</g>
</svg>
