<?xml version="1.0" encoding="iso-8859-1"?>
<!-- Generator: Adobe Illustrator 19.0.0, SVG Export Plug-In . SVG Version: 6.00 Build 0)  -->
<svg version="1.1" id="Capa_1" xmlns="http://www.w3.org/2000/svg" xmlns:xlink="http://www.w3.org/1999/xlink" x="0px" y="0px"
	 viewBox="0 0 470 470" style="enable-background:new 0 0 470 470;" xml:space="preserve">
<g>
	<path style="fill:#D6B8A4;" d="M107.71,377.8c0-6.415,2.498-12.445,7.034-16.98l20.374-20.374c-0.978-0.89-1.926-1.794-2.842-2.709
		c-6.696-6.696-11.755-14.061-15.51-20.8L16.044,417.658c1.899,5.204,6.138,14.703,13.873,22.438
		c7.731,7.731,17.226,11.97,22.438,13.872l60.864-60.865C109.653,388.807,107.71,383.453,107.71,377.8z M58.5,436.499h-4.431
		c-4.142,0-7.5-3.357-7.5-7.5s3.358-7.5,7.5-7.5H58.5c4.142,0,7.5,3.357,7.5,7.5S62.642,436.499,58.5,436.499z M84.044,387.128
		c-1.464,1.465-3.384,2.197-5.304,2.197s-3.838-0.732-5.303-2.196l-3.133-3.133c-2.929-2.929-2.93-7.678-0.001-10.606
		c2.929-2.93,7.678-2.929,10.606-0.001l3.133,3.133C86.972,379.45,86.972,384.199,84.044,387.128z"/>
	<path style="fill:#6B4833;" d="M374.476,66.22c-1.464,1.464-3.384,2.196-5.303,2.196s-3.839-0.732-5.303-2.196l-6.168-6.168
		l-27.6,27.6c2.483,1.222,4.195,3.77,4.195,6.725c0,4.143-3.358,7.5-7.5,7.5h-10.92l-46.163,46.163v10.92c0,4.143-3.358,7.5-7.5,7.5
		c-2.954,0-5.503-1.713-6.725-4.195l-96.066,96.066l7.56,7.56c2.929,2.93,2.929,7.678,0,10.607
		c-1.464,1.464-3.384,2.196-5.303,2.196s-3.839-0.732-5.303-2.196l-7.56-7.56l-25.658,25.658
		c2.323,6.764,8.226,21.035,19.724,32.533c2.368,2.368,5.014,4.651,7.865,6.787c1.741,1.305,2.83,3.3,2.984,5.469
		c0.155,2.17-0.64,4.3-2.178,5.838l-26.204,26.204c-1.703,1.702-2.64,3.965-2.64,6.373c0,2.407,0.938,4.671,2.64,6.373
		c1.703,1.703,3.966,2.641,6.374,2.641s4.671-0.938,6.373-2.64l44.469-44.469c-2.773-1.101-4.736-3.802-4.736-6.968
		c0-4.143,3.358-7.5,7.5-7.5h11.704l179.796-179.796c-2.773-1.101-4.736-3.802-4.736-6.968c0-4.143,3.358-7.5,7.5-7.5h11.704
		l42.765-42.765V77.603c0-4.143,3.358-7.5,7.5-7.5c2.703,0,5.065,1.435,6.385,3.58c10.513-14.441,9.262-34.839-3.758-47.86
		C437.21,18.844,427.931,15,418.06,15c-9.87,0-19.15,3.844-26.129,10.823l-23.622,23.622l6.167,6.167
		C377.405,58.542,377.405,63.29,374.476,66.22z M199.552,275.077c0,4.143-3.358,7.5-7.5,7.5s-7.5-3.357-7.5-7.5v-22.869
		c0-4.143,3.358-7.5,7.5-7.5s7.5,3.357,7.5,7.5V275.077z M247.056,243.772c-1.464,1.464-3.384,2.196-5.303,2.196
		s-3.839-0.732-5.303-2.196l-16.171-16.171c-2.929-2.93-2.929-7.678,0-10.607c2.929-2.928,7.678-2.928,10.606,0l16.171,16.171
		C249.985,236.095,249.985,240.843,247.056,243.772z M282.705,226.445h-22.87c-4.142,0-7.5-3.357-7.5-7.5s3.358-7.5,7.5-7.5h22.87
		c4.142,0,7.5,3.357,7.5,7.5S286.847,226.445,282.705,226.445z M340.358,153.795l-16.171,16.172
		c-1.464,1.464-3.384,2.196-5.303,2.196s-3.839-0.732-5.303-2.196c-2.929-2.93-2.929-7.678,0-10.607l16.171-16.172
		c2.929-2.928,7.678-2.928,10.606,0C343.287,146.117,343.287,150.865,340.358,153.795z M375.55,113.005c0,4.143-3.358,7.5-7.5,7.5
		s-7.5-3.357-7.5-7.5V90.136c0-4.143,3.358-7.5,7.5-7.5s7.5,3.357,7.5,7.5V113.005z M398.393,38.367h22.869
		c4.142,0,7.5,3.357,7.5,7.5s-3.358,7.5-7.5,7.5h-22.869c-4.142,0-7.5-3.357-7.5-7.5S394.251,38.367,398.393,38.367z"/>
	<path style="fill:#3D2A20;" d="M434.062,100.472V88.208l-42.765,42.765h11.166c2.725,0,5.103,1.458,6.417,3.632l28.161-28.16
		C435.234,105.075,434.062,102.913,434.062,100.472z"/>
	<path style="fill:#3D2A20;" d="M159.423,258.331l96.066-96.066c-0.491-0.998-0.775-2.117-0.775-3.305v-17.134l-106.29,106.29
		c0.867,0.366,1.681,0.897,2.387,1.603L159.423,258.331z"/>
	<path style="fill:#3D2A20;" d="M269.714,136.091v11.949l46.163-46.163h-11.949c-2.522,0-4.748-1.249-6.107-3.157l-31.263,31.263
		C268.466,131.343,269.714,133.569,269.714,136.091z"/>
	<path style="fill:#3D2A20;" d="M454.796,15.216C444.984,5.404,431.937,0,418.06,0s-26.923,5.404-36.736,15.216l-23.659,23.659
		c0.221,0.176,0.436,0.362,0.64,0.566l10.004,10.004l23.622-23.622C398.91,18.844,408.19,15,418.06,15
		c9.871,0,19.15,3.844,26.129,10.822c13.02,13.021,14.27,33.419,3.758,47.86c0.702,1.142,1.115,2.481,1.115,3.92v16.82l5.734-5.734
		C475.052,68.433,475.052,35.473,454.796,15.216z"/>
	<path style="fill:#3D2A20;" d="M326.797,86.877c1.188,0,2.307,0.283,3.305,0.775l27.6-27.6l-10.004-10.003
		c-0.204-0.204-0.391-0.419-0.567-0.64l-37.468,37.468H326.797z"/>
	<path style="fill:#3D2A20;" d="M185.329,340.237c-0.977,0-1.908-0.193-2.764-0.532l-44.469,44.469
		c-1.702,1.702-3.965,2.64-6.373,2.64s-4.671-0.938-6.374-2.641c-1.703-1.702-2.64-3.966-2.64-6.373c0-2.408,0.938-4.671,2.64-6.373
		l26.204-26.204c1.538-1.538,2.333-3.668,2.178-5.838c-0.155-2.169-1.244-4.164-2.984-5.469c-2.852-2.136-5.498-4.419-7.865-6.787
		c-11.499-11.498-17.401-25.77-19.724-32.533l25.658-25.658l-8.611-8.611c-0.706-0.707-1.238-1.52-1.604-2.388l-29.239,29.239
		c-1.855,1.855-2.606,4.546-1.98,7.095c0.086,0.35,0.876,3.475,2.652,8.181L2.209,410.279c-1.855,1.855-2.606,4.546-1.98,7.095
		c0.19,0.771,4.809,19.057,19.081,33.329c14.271,14.271,32.557,18.891,33.329,19.08c0.593,0.146,1.194,0.217,1.791,0.217
		c1.965,0,3.88-0.773,5.303-2.196l66.601-66.601c1.748,0.399,3.552,0.611,5.39,0.611c6.415,0,12.445-2.498,16.98-7.033
		l54.543-54.543H185.329z M29.917,440.096c-7.735-7.734-11.973-17.233-13.873-22.438l100.722-100.722
		c3.755,6.739,8.815,14.104,15.51,20.8c0.916,0.915,1.864,1.819,2.842,2.709l-20.374,20.374c-4.536,4.535-7.034,10.565-7.034,16.98
		c0,5.653,1.943,11.007,5.509,15.303l-60.864,60.865C47.143,452.065,37.648,447.827,29.917,440.096z"/>
	<path style="fill:#3D2A20;" d="M379.593,145.974c-0.977,0-1.908-0.193-2.764-0.532L197.033,325.237h11.165
		c2.725,0,5.103,1.458,6.417,3.632l182.896-182.895H379.593z"/>
	<path style="fill:#FFCB59;" d="M208.198,325.237h-11.165h-11.704c-4.142,0-7.5,3.357-7.5,7.5c0,3.165,1.963,5.867,4.736,6.968
		c0.856,0.34,1.787,0.532,2.764,0.532h17.918h4.952c4.142,0,7.5-3.357,7.5-7.5c0-1.417-0.4-2.738-1.083-3.868
		C213.302,326.695,210.923,325.237,208.198,325.237z"/>
	<path style="fill:#FFCB59;" d="M230.884,216.994c-2.929-2.928-7.678-2.928-10.606,0c-2.929,2.93-2.929,7.678,0,10.607
		l16.171,16.171c1.464,1.464,3.384,2.196,5.303,2.196s3.839-0.732,5.303-2.196c2.929-2.93,2.929-7.678,0-10.607L230.884,216.994z"/>
	<path style="fill:#03E6FF;" d="M254.714,158.96c0,1.188,0.284,2.307,0.775,3.305c1.223,2.483,3.771,4.195,6.725,4.195
		c4.142,0,7.5-3.357,7.5-7.5v-10.92v-11.949c0-2.522-1.249-4.748-3.157-6.108c-1.226-0.873-2.722-1.392-4.343-1.392
		c-4.142,0-7.5,3.357-7.5,7.5v5.735V158.96z"/>
	<path style="fill:#FFCB59;" d="M303.928,101.877h11.949h10.92c4.142,0,7.5-3.357,7.5-7.5c0-2.955-1.713-5.503-4.195-6.725
		c-0.998-0.491-2.117-0.775-3.305-0.775h-17.134h-5.735c-4.142,0-7.5,3.357-7.5,7.5c0,1.62,0.519,3.117,1.393,4.343
		C299.18,100.628,301.406,101.877,303.928,101.877z"/>
	<path style="fill:#03E6FF;" d="M329.752,143.188l-16.171,16.172c-2.929,2.93-2.929,7.678,0,10.607
		c1.464,1.464,3.384,2.196,5.303,2.196s3.839-0.732,5.303-2.196l16.171-16.172c2.929-2.93,2.929-7.678,0-10.607
		C337.429,140.26,332.68,140.26,329.752,143.188z"/>
	<path style="fill:#E7453F;" d="M282.705,211.445h-22.87c-4.142,0-7.5,3.357-7.5,7.5s3.358,7.5,7.5,7.5h22.87
		c4.142,0,7.5-3.357,7.5-7.5S286.847,211.445,282.705,211.445z"/>
	<path style="fill:#EC6A65;" d="M402.463,130.974h-11.166h-11.704c-4.142,0-7.5,3.357-7.5,7.5c0,3.165,1.963,5.867,4.736,6.968
		c0.856,0.34,1.787,0.532,2.764,0.532h17.918h4.952c4.142,0,7.5-3.357,7.5-7.5c0-1.417-0.4-2.738-1.083-3.868
		C407.566,132.432,405.187,130.974,402.463,130.974z"/>
	<path style="fill:#03E6FF;" d="M357.702,60.052l6.168,6.168c1.464,1.464,3.384,2.196,5.303,2.196s3.839-0.732,5.303-2.196
		c2.929-2.93,2.929-7.678,0-10.607l-6.167-6.167l-10.004-10.004c-0.204-0.204-0.419-0.391-0.64-0.566
		c-2.944-2.344-7.242-2.157-9.967,0.566c-2.725,2.725-2.911,7.022-0.567,9.967c0.176,0.221,0.362,0.436,0.567,0.64L357.702,60.052z"
		/>
	<path style="fill:#03E6FF;" d="M449.062,77.603c0-1.439-0.412-2.778-1.115-3.92c-1.32-2.145-3.682-3.58-6.385-3.58
		c-4.142,0-7.5,3.357-7.5,7.5v10.606v12.263c0,2.442,1.172,4.604,2.978,5.973c1.258,0.954,2.822,1.527,4.522,1.527
		c4.142,0,7.5-3.357,7.5-7.5v-6.049V77.603z"/>
	<path style="fill:#FFCB59;" d="M398.393,53.367h22.869c4.142,0,7.5-3.357,7.5-7.5s-3.358-7.5-7.5-7.5h-22.869
		c-4.142,0-7.5,3.357-7.5,7.5S394.251,53.367,398.393,53.367z"/>
	<path style="fill:#E7453F;" d="M368.05,82.636c-4.142,0-7.5,3.357-7.5,7.5v22.869c0,4.143,3.358,7.5,7.5,7.5s7.5-3.357,7.5-7.5
		V90.136C375.55,85.993,372.192,82.636,368.05,82.636z"/>
	<path style="fill:#03E6FF;" d="M192.052,244.708c-4.142,0-7.5,3.357-7.5,7.5v22.869c0,4.143,3.358,7.5,7.5,7.5s7.5-3.357,7.5-7.5
		v-22.869C199.552,248.065,196.194,244.708,192.052,244.708z"/>
	<path style="fill:#EC6A65;" d="M148.816,268.938l7.56,7.56c1.464,1.464,3.384,2.196,5.303,2.196s3.839-0.732,5.303-2.196
		c2.929-2.93,2.929-7.678,0-10.607l-7.56-7.56l-8.611-8.611c-0.706-0.706-1.52-1.238-2.387-1.603
		c-2.728-1.15-5.997-0.618-8.219,1.603c-2.223,2.223-2.755,5.492-1.604,8.22c0.366,0.867,0.898,1.681,1.604,2.388L148.816,268.938z"
		/>
	<path style="fill:#FFFFFF;" d="M80.909,373.389c-2.929-2.928-7.678-2.929-10.606,0.001c-2.929,2.929-2.928,7.678,0.001,10.606
		l3.133,3.133c1.464,1.464,3.383,2.196,5.303,2.196s3.839-0.732,5.304-2.197c2.929-2.929,2.928-7.678-0.001-10.606L80.909,373.389z"
		/>
	<path style="fill:#FFFFFF;" d="M58.5,421.499h-4.431c-4.142,0-7.5,3.357-7.5,7.5s3.358,7.5,7.5,7.5H58.5c4.142,0,7.5-3.357,7.5-7.5
		S62.642,421.499,58.5,421.499z"/>
</g>
<g>
</g>
<g>
</g>
<g>
</g>
<g>
</g>
<g>
</g>
<g>
</g>
<g>
</g>
<g>
</g>
<g>
</g>
<g>
</g>
<g>
</g>
<g>
</g>
<g>
</g>
<g>
</g>
<g>
</g>
</svg>
