<?xml version="1.0" encoding="iso-8859-1"?>
<!-- Generator: Adobe Illustrator 19.1.0, SVG Export Plug-In . SVG Version: 6.00 Build 0)  -->
<svg version="1.1" id="Capa_1" xmlns="http://www.w3.org/2000/svg" xmlns:xlink="http://www.w3.org/1999/xlink" x="0px" y="0px"
	 viewBox="0 0 417.081 417.081" style="enable-background:new 0 0 417.081 417.081;" xml:space="preserve">
<g>
	<path style="fill:#F45867;" d="M304.307,261.972c-3.243-2.824-6.131-5.99-8.673-9.398c-2.14,1.71-4.384,3.266-6.719,4.657
		c-9.229,5.5-19.833,8.459-30.711,8.459c-20.57,0-38.871-10.323-49.701-26.307c-3.207,4.734-7.074,8.966-11.457,12.586
		c-1.826,1.508-3.742,2.909-5.739,4.194c-9.392,6.044-20.562,9.527-32.5,9.527c-14.404,0-28.332-5.181-39.217-14.588
		c-3.892-3.364-7.309-7.189-10.188-11.363c-2.878,4.174-6.295,7.999-10.187,11.362c-0.278,0.241-0.567,0.467-0.849,0.702
		c-5.094,4.24-10.817,7.58-16.927,9.917l26.177,122.47h190.657l23.674-111.601C315.549,270.123,309.568,266.553,304.307,261.972z"/>
	<path style="fill:#D4B783;" d="M382.891,210.535c1.26-41.245-14.764-81.331-45.122-112.877
		c-35.925-37.33-88.994-59.617-141.961-59.617c-24.345,0-48.624,4.712-71.239,13.506c-17.427,8.071-33.636,18.603-47.829,31.311
		C40.15,115.619,20,159.243,20,205.693c0,22.055,17.945,39.997,40.002,39.997c3.379,0,6.678-0.444,9.845-1.262
		c15.146-3.914,27.199-16.6,29.674-32.536c0.156-1.006,0.467-1.953,0.893-2.83c-0.069-0.035-0.085-0.05,0.009-0.02
		c1.64-3.358,5.075-5.616,8.98-5.616c4.93,0,9.125,3.593,9.881,8.465c2.992,19.268,19.984,33.798,39.524,33.798
		c3.036,0,5.996-0.345,8.846-0.986c16.355-3.677,29.031-17.342,30.909-34.636c0.119-1.096,0.421-2.13,0.859-3.085
		c1.59-3.467,5.08-5.836,9.082-5.836c5.105,0,9.391,3.846,9.941,8.921c2.204,20.308,19.297,35.622,39.76,35.622
		c2.551,0,5.056-0.253,7.494-0.727c16.238-3.153,29.422-16.318,32.024-33.071c0.075-0.479,0.193-0.941,0.334-1.392
		c-0.034-0.701,0.045-1.105,0.342-0.963c1.532-3.629,5.111-6.11,9.205-6.11c4.93,0,9.125,3.593,9.881,8.465
		c2.993,19.268,19.984,33.798,39.524,33.798c2.139,0,4.236-0.178,6.283-0.508C374.695,238.209,382.435,225.438,382.891,210.535z
		 M97.471,152.116l-6.503,25.235c-1.163,4.511-5.225,7.507-9.677,7.507c-0.826,0-1.665-0.103-2.502-0.319
		c-5.348-1.378-8.566-6.831-7.188-12.179l6.503-25.235c1.378-5.348,6.83-8.566,12.179-7.188
		C95.631,141.315,98.849,146.768,97.471,152.116z M114.015,87.669c-0.855-5.456,2.875-10.573,8.332-11.427l25.753-4.035
		c5.465-0.852,10.573,2.876,11.427,8.332c0.855,5.457-2.876,10.573-8.332,11.427L125.442,96c-0.524,0.082-1.046,0.122-1.56,0.122
		C119.041,96.122,114.787,92.601,114.015,87.669z M169.263,167.362c-1.058,4.635-5.179,7.776-9.74,7.776
		c-0.737,0-1.485-0.081-2.234-0.253l-25.4-5.798c-5.384-1.229-8.753-6.59-7.523-11.975c1.229-5.384,6.589-8.754,11.975-7.524
		l25.4,5.798C167.124,156.617,170.493,161.978,169.263,167.362z M199.762,146.04c-1.117,0.402-2.259,0.592-3.381,0.592
		c-4.1,0-7.945-2.54-9.411-6.621l-8.813-24.525c-1.868-5.197,0.832-10.925,6.029-12.792c5.198-1.867,10.925,0.831,12.792,6.029
		l8.814,24.525C207.659,138.444,204.96,144.172,199.762,146.04z M237.855,66.696l-10.346,23.92
		c-1.633,3.775-5.316,6.033-9.183,6.033c-1.325,0-2.671-0.265-3.965-0.824c-5.069-2.192-7.401-8.079-5.208-13.148l10.346-23.92
		c2.192-5.069,8.081-7.4,13.148-5.208C237.715,55.741,240.047,61.628,237.855,66.696z M252.152,108.602l19.025-17.801
		c4.032-3.772,10.36-3.563,14.134,0.47c3.773,4.033,3.563,10.361-0.47,14.134l-19.025,17.801c-1.928,1.804-4.382,2.698-6.83,2.698
		c-2.671,0-5.335-1.063-7.304-3.168C247.909,118.703,248.119,112.375,252.152,108.602z M288.118,156.121l-11.206,23.524
		c-1.714,3.598-5.298,5.702-9.035,5.702c-1.442,0-2.905-0.313-4.294-0.975c-4.986-2.375-7.103-8.342-4.727-13.329l11.206-23.524
		c2.375-4.986,8.343-7.103,13.329-4.727C288.376,145.168,290.493,151.135,288.118,156.121z M338.936,166.246
		c-1.065,0.362-2.149,0.534-3.215,0.534c-4.167,0-8.055-2.625-9.468-6.789l-8.374-24.673c-1.775-5.23,1.025-10.908,6.255-12.683
		c5.229-1.776,10.908,1.025,12.683,6.255l8.374,24.673C346.967,158.793,344.167,164.471,338.936,166.246z"/>
</g>
<g>
	<path d="M365.904,78.585c-19.533-20.144-44.071-36.781-70.961-48.11c-27.3-11.503-57.19-17.583-86.44-17.583
		c-53.131,0-106.02,20.071-145.105,55.067C22.515,104.564,0,153.479,0,205.693c0,33.083,26.917,59.997,60.002,59.997
		c0.61,0,1.217-0.022,1.824-0.041L89.749,396.28c0.986,4.613,5.062,7.91,9.779,7.91h217.95c4.717,0,8.793-3.297,9.779-7.91
		l27.922-130.632c0.609,0.019,1.219,0.041,1.83,0.041c32.61,0,58.962-26.219,59.993-59.691
		C418.44,159.299,400.293,114.05,365.904,78.585z M309.39,384.19h-11.116H107.617L81.439,261.72
		c6.11-2.337,11.833-5.677,16.927-9.917c0.282-0.235,0.571-0.461,0.849-0.702c3.892-3.364,7.308-7.188,10.187-11.362
		c2.879,4.174,6.296,7.999,10.188,11.363c10.885,9.407,24.813,14.588,39.217,14.588c11.938,0,23.108-3.483,32.5-9.527
		c1.997-1.285,3.913-2.686,5.739-4.194c4.383-3.62,8.249-7.852,11.457-12.586c10.83,15.983,29.131,26.307,49.701,26.307
		c10.878,0,21.482-2.96,30.711-8.459c2.334-1.391,4.578-2.947,6.719-4.657c0.602-0.481,1.199-0.967,1.783-1.472
		c3.892-3.364,7.308-7.188,10.187-11.363c2.878,4.174,6.295,7.999,10.188,11.363c5.301,4.581,11.327,8.151,17.775,10.617
		L309.39,384.19z M397.012,205.385c-0.628,20.376-14.974,36.766-33.72,39.796c-2.046,0.331-4.143,0.508-6.283,0.508
		c-19.54,0-36.531-14.53-39.524-33.798c-0.756-4.872-4.951-8.465-9.881-8.465c-4.094,0-7.673,2.481-9.205,6.11
		c-0.132,0.312-0.241,0.636-0.342,0.963c-0.141,0.451-0.259,0.913-0.334,1.392c-2.602,16.753-15.786,29.918-32.024,33.071
		c-2.438,0.473-4.944,0.727-7.494,0.727c-20.463,0-37.556-15.314-39.76-35.622c-0.551-5.075-4.836-8.921-9.941-8.921
		c-4.002,0-7.492,2.369-9.082,5.836c-0.438,0.955-0.74,1.989-0.859,3.085c-1.877,17.294-14.553,30.959-30.909,34.636
		c-2.85,0.641-5.809,0.986-8.846,0.986c-19.54,0-36.532-14.53-39.524-33.798c-0.756-4.872-4.951-8.465-9.881-8.465
		c-3.904,0-7.34,2.258-8.98,5.616c-0.003,0.007-0.006,0.013-0.009,0.02c-0.426,0.877-0.737,1.823-0.893,2.83
		c-2.475,15.936-14.527,28.621-29.674,32.536c-3.167,0.818-6.466,1.262-9.845,1.262C37.945,245.69,20,227.747,20,205.693
		c0-46.45,20.15-90.073,56.739-122.834c14.193-12.708,30.402-23.24,47.829-31.311c26.119-12.097,54.981-18.656,83.935-18.656
		c53.371,0,106.844,22.287,143.042,59.617C382.135,124.053,398.282,164.14,397.012,205.385z"/>
	<path d="M196.977,108.722c-1.868-5.198-7.595-7.896-12.792-6.029c-5.197,1.868-7.897,7.595-6.029,12.792l8.813,24.525
		c1.466,4.081,5.311,6.621,9.411,6.621c1.122,0,2.265-0.191,3.381-0.592c5.197-1.868,7.897-7.595,6.029-12.792L196.977,108.722z"/>
	<path d="M336.818,128.89c-1.775-5.23-7.454-8.031-12.683-6.255c-5.23,1.775-8.031,7.453-6.255,12.683l8.374,24.673
		c1.413,4.164,5.302,6.789,9.468,6.789c1.065,0,2.15-0.172,3.215-0.534c5.23-1.775,8.031-7.453,6.255-12.683L336.818,128.89z"/>
	<path d="M90.283,139.937c-5.349-1.378-10.801,1.84-12.179,7.188L71.6,172.359c-1.378,5.348,1.84,10.801,7.188,12.179
		c0.837,0.216,1.676,0.319,2.502,0.319c4.452,0,8.514-2.996,9.677-7.507l6.503-25.235C98.849,146.768,95.631,141.315,90.283,139.937
		z"/>
	<path d="M151.195,91.965c5.456-0.854,9.187-5.971,8.332-11.427c-0.855-5.456-5.962-9.184-11.427-8.332l-25.753,4.035
		c-5.456,0.854-9.187,5.971-8.332,11.427c0.772,4.932,5.027,8.454,9.867,8.454c0.514,0,1.036-0.04,1.56-0.122L151.195,91.965z"/>
	<path d="M232.646,53.548c-5.067-2.192-10.956,0.14-13.148,5.208l-10.346,23.92c-2.192,5.069,0.139,10.956,5.208,13.148
		c1.293,0.56,2.64,0.824,3.965,0.824c3.867,0,7.55-2.257,9.183-6.033l10.346-23.92C240.047,61.628,237.715,55.741,232.646,53.548z"
		/>
	<path d="M161.74,155.388l-25.4-5.798c-5.386-1.23-10.745,2.14-11.975,7.524c-1.229,5.384,2.139,10.746,7.523,11.975l25.4,5.798
		c0.749,0.171,1.497,0.253,2.234,0.253c4.561,0,8.682-3.142,9.74-7.776C170.493,161.978,167.124,156.617,161.74,155.388z"/>
	<path d="M283.391,142.793c-4.986-2.376-10.953-0.259-13.329,4.727l-11.206,23.524c-2.375,4.986-0.259,10.954,4.727,13.329
		c1.389,0.662,2.852,0.975,4.294,0.975c3.736,0,7.321-2.104,9.035-5.702l11.206-23.524
		C290.493,151.135,288.376,145.168,283.391,142.793z"/>
	<path d="M265.816,123.206l19.025-17.801c4.033-3.773,4.243-10.102,0.47-14.134c-3.774-4.033-10.102-4.242-14.134-0.47
		l-19.025,17.801c-4.033,3.774-4.243,10.102-0.47,14.134c1.969,2.104,4.633,3.168,7.304,3.168
		C261.435,125.904,263.888,125.01,265.816,123.206z"/>
</g>
<g>
</g>
<g>
</g>
<g>
</g>
<g>
</g>
<g>
</g>
<g>
</g>
<g>
</g>
<g>
</g>
<g>
</g>
<g>
</g>
<g>
</g>
<g>
</g>
<g>
</g>
<g>
</g>
<g>
</g>
</svg>
