<?xml version="1.0" encoding="iso-8859-1"?>
<!-- Generator: Adobe Illustrator 19.0.0, SVG Export Plug-In . SVG Version: 6.00 Build 0)  -->
<svg version="1.1" id="Layer_1" xmlns="http://www.w3.org/2000/svg" xmlns:xlink="http://www.w3.org/1999/xlink" x="0px" y="0px"
	 viewBox="0 0 512 512" style="enable-background:new 0 0 512 512;" xml:space="preserve">
<path style="fill:#C69C6D;" d="M255.999,7.863C118.957,7.863,7.863,118.957,7.863,255.999
	c0,137.041,111.094,248.136,248.136,248.136s248.136-111.095,248.136-248.136C504.137,118.957,393.042,7.863,255.999,7.863z
	 M255.999,344.048c-48.628,0-88.049-39.421-88.049-88.049s39.421-88.049,88.049-88.049s88.049,39.421,88.049,88.049
	S304.627,344.048,255.999,344.048z"/>
<g>
	<path style="fill:#A67C52;" d="M272.592,342.435c5.378,1.026,10.914,1.613,16.591,1.613c48.628,0,88.049-39.421,88.049-88.049
		s-39.421-88.049-88.049-88.049c-5.677,0-11.213,0.586-16.591,1.614c40.687,7.767,71.457,43.485,71.457,86.435
		S313.279,334.668,272.592,342.435z"/>
	<path style="fill:#A67C52;" d="M41.047,255.999c0-131.461,102.247-238.977,231.545-247.523c-5.491-0.363-11.011-0.613-16.592-0.613
		C118.957,7.863,7.863,118.957,7.863,255.999c0,137.041,111.094,248.136,248.136,248.136c5.582,0,11.102-0.251,16.591-0.613
		C143.294,494.977,41.047,387.459,41.047,255.999z"/>
</g>
<path style="fill:#D1B08A;" d="M255.999,7.863c-9.088,0-18.052,0.521-26.887,1.473c124.392,13.408,221.251,118.709,221.251,246.663
	c0,127.954-96.858,233.255-221.251,246.663c8.835,0.952,17.798,1.473,26.887,1.473c137.042,0,248.136-111.095,248.136-248.136
	C504.137,118.957,393.042,7.863,255.999,7.863z"/>
<path style="fill:#0C6D95;" d="M7.863,255.999c0,30.945,25.086,56.031,56.031,56.031s56.031-25.086,56.031-56.031
	c0-13.263,10.752-24.013,24.013-24.013c13.263,0,24.013,10.752,24.013,24.013c0-48.628,39.421-88.049,88.049-88.049
	s88.049,39.421,88.049,88.049c0-26.524,21.502-48.026,48.026-48.026c26.524,0,48.026,21.502,48.026,48.026
	c0,17.683,14.335,32.018,32.018,32.018s32.018-14.335,32.018-32.018C504.137,118.957,393.042,7.863,255.999,7.863
	S7.863,118.957,7.863,255.999z"/>
<path style="fill:#095270;" d="M47.886,255.999c0-130.298,100.451-237.064,228.125-247.263c-6.608-0.528-13.267-0.873-20.011-0.873
	C118.957,7.863,7.863,118.957,7.863,255.999c0,30.945,25.086,56.031,56.031,56.031c7.06,0,13.789-1.361,20.011-3.745
	C62.857,300.222,47.886,279.884,47.886,255.999z"/>
<path style="fill:#29ABE2;" d="M255.999,7.863c-6.743,0-13.403,0.345-20.011,0.873c127.674,10.199,228.125,116.965,228.125,247.263
	c0,10.068-4.741,18.94-12.007,24.809c5.496,4.439,12.395,7.209,20.011,7.209c17.683,0,32.018-14.335,32.018-32.018
	C504.137,118.957,393.042,7.863,255.999,7.863z"/>
<path d="M511.995,256.431c0-0.145,0.005-0.287,0.005-0.432c0-68.38-26.629-132.667-74.981-181.018
	C388.667,26.628,324.38,0,255.999,0S123.332,26.628,74.98,74.981C26.629,123.332,0,187.619,0,255.999
	c0,0.145,0.005,0.287,0.005,0.432H0c0,0.129,0.009,0.257,0.009,0.386C0.221,324.891,26.822,388.86,74.98,437.019
	C123.332,485.371,187.619,512,255.999,512s132.667-26.628,181.019-74.981c48.156-48.156,74.756-112.119,74.971-180.189
	c0.001-0.133,0.01-0.264,0.01-0.398H511.995L511.995,256.431z M86.102,86.101C131.483,40.72,191.82,15.726,255.999,15.726
	S380.517,40.72,425.898,86.101s70.374,105.72,70.374,169.899c0,0.264-0.008,0.527-0.009,0.792
	c-0.204,12.437-10.954,23.634-24.145,23.634c-13.319,0-24.155-10.998-24.155-24.317c0-30.818-25.072-55.782-55.89-55.782
	c-18.859,0-35.553,9.242-45.68,23.615c-13.221-37.168-48.747-63.852-90.395-63.852c-44.251,0-81.591,30.124-92.608,70.941
	c-5.387-4.165-12.133-6.637-19.453-6.637c-17.577,0-31.876,14.138-31.876,31.715c0,26.56-21.608,48.276-48.168,48.276
	c-26.429,0-47.944-21.527-48.158-47.563c-0.001-0.275-0.01-0.546-0.01-0.821C15.726,191.82,40.719,131.482,86.102,86.101z
	 M336.185,255.999c0,44.215-35.971,80.185-80.185,80.185s-80.185-35.971-80.185-80.185s35.971-80.184,80.185-80.184
	S336.185,211.785,336.185,255.999z M425.899,425.899c-45.382,45.381-105.72,70.374-169.899,70.374S131.484,471.28,86.102,425.899
	C51.928,391.726,29.322,349.07,20.238,302.68c11.432,10.749,26.786,17.43,43.657,17.43c35.231,0,63.894-28.663,63.894-63.894
	c0-8.905,7.245-16.15,16.15-16.15s16.15,6.93,16.15,16.366h0.005c0.234,52.687,43.165,95.48,95.906,95.48
	s95.672-42.792,95.906-95.48h0.005c0-23.065,18.017-40.325,40.163-40.325c22.147,0,40.164,17.856,40.164,40.001
	c0,21.991,17.89,39.989,39.881,39.989c8.049,0,15.542-2.372,21.816-6.449C486.773,341.063,463.249,388.548,425.899,425.899z"/>
<g>
	
		<rect x="16.013" y="193.341" transform="matrix(-0.7071 -0.7071 0.7071 -0.7071 -111.962 385.5865)" style="fill:#FBB03B;" width="15.726" height="45.281"/>
	
		<rect x="144.094" y="161.327" transform="matrix(-0.7071 -0.7071 0.7071 -0.7071 129.3217 421.5027)" style="fill:#FBB03B;" width="15.726" height="45.281"/>
</g>
<rect x="112.077" y="81.275" transform="matrix(-0.7071 -0.7071 0.7071 -0.7071 131.2716 262.2061)" style="fill:#FFFFFF;" width="15.726" height="45.281"/>
<rect x="184.106" y="73.266" transform="matrix(-0.7071 -0.7071 0.7071 -0.7071 259.896 299.4653)" style="fill:#FF1D25;" width="15.726" height="45.281"/>
<rect x="352.207" y="113.286" transform="matrix(-0.7071 -0.7071 0.7071 -0.7071 518.5642 486.6488)" style="fill:#FBB03B;" width="15.726" height="45.281"/>
<g>
	
		<rect x="424.247" y="97.274" transform="matrix(-0.7071 -0.7071 0.7071 -0.7071 652.8655 510.254)" style="fill:#FFFFFF;" width="15.726" height="45.281"/>
	
		<rect x="448.264" y="233.345" transform="matrix(-0.7071 -0.7071 0.7071 -0.7071 597.6485 759.5256)" style="fill:#FFFFFF;" width="15.726" height="45.281"/>
</g>
<rect x="464.276" y="161.3" transform="matrix(-0.7071 -0.7071 0.7071 -0.7071 675.9257 647.8594)" style="fill:#FBB03B;" width="15.726" height="45.281"/>
<rect x="49.265" y="240.13" transform="matrix(-0.7071 -0.7071 0.7071 -0.7071 -52.6069 474.1962)" style="fill:#FFFFFF;" width="45.281" height="15.726"/>
<g>
	
		<rect x="57.265" y="152.084" transform="matrix(-0.7071 -0.7071 0.7071 -0.7071 23.3079 329.5477)" style="fill:#FF1D25;" width="45.281" height="15.726"/>
	
		<rect x="321.407" y="56.027" transform="matrix(-0.7071 -0.7071 0.7071 -0.7071 542.1494 352.3453)" style="fill:#FF1D25;" width="45.281" height="15.726"/>
</g>
<rect x="241.366" y="112.07" transform="matrix(-0.7071 -0.7071 0.7071 -0.7071 365.8821 391.4187)" style="fill:#FFFFFF;" width="45.281" height="15.726"/>
<rect x="369.43" y="176.091" transform="matrix(-0.7071 -0.7071 0.7071 -0.7071 539.2314 591.2659)" style="fill:#FF1D25;" width="45.281" height="15.726"/>
<rect x="233.356" y="40.018" transform="matrix(-0.7071 -0.7071 0.7071 -0.7071 403.156 262.7543)" style="fill:#FBB03B;" width="45.281" height="15.726"/>
<g>
</g>
<g>
</g>
<g>
</g>
<g>
</g>
<g>
</g>
<g>
</g>
<g>
</g>
<g>
</g>
<g>
</g>
<g>
</g>
<g>
</g>
<g>
</g>
<g>
</g>
<g>
</g>
<g>
</g>
</svg>
