<?xml version="1.0" encoding="iso-8859-1"?>
<!-- Generator: Adobe Illustrator 19.0.0, SVG Export Plug-In . SVG Version: 6.00 Build 0)  -->
<svg version="1.1" id="Capa_1" xmlns="http://www.w3.org/2000/svg" xmlns:xlink="http://www.w3.org/1999/xlink" x="0px" y="0px"
	 viewBox="0 0 469.975 469.975" style="enable-background:new 0 0 469.975 469.975;" xml:space="preserve">
<g>
	<path style="fill:#E7453F;" d="M22.842,401.074c3.098,3.472,6.416,5.484,10.514,7.967c3.103,1.88,6.484,3.933,10.125,6.826
		l75.298-75.298L22.842,401.074z"/>
	<path style="fill:#E7453F;" d="M54.088,426.475c2.893,3.642,4.946,7.023,6.826,10.125c2.484,4.098,4.496,7.416,7.968,10.514
		l60.504-95.938L54.088,426.475z"/>
	<path style="fill:#E7453F;" d="M446.594,23.362c-13.94-13.939-46.159-10.54-88.397,9.327
		c-42.698,20.083-89.749,54.166-129.09,93.507c-14.351,14.35-28.175,30.307-41.089,47.427c-2.495,3.306-7.197,3.967-10.504,1.471
		c-3.307-2.494-3.965-7.197-1.471-10.504c13.332-17.674,27.617-34.16,42.458-49c22.461-22.461,47.403-43.271,72.702-60.905
		l-18.746-11.743c-23.522,19.059-46.326,41.131-66.198,64.095c-26.397,30.505-50.37,67.474-67.633,104.274l0.243,10.655
		c5.921-10.836,12.459-21.702,19.583-32.492c2.283-3.457,6.936-4.408,10.391-2.126c3.457,2.282,4.409,6.934,2.127,10.391
		c-23.209,35.155-40.019,70.98-48.613,103.603c-0.509,1.934-1.771,3.584-3.502,4.584l-90.23,52.095
		c-10.632,6.139-15.55,18.418-12.879,29.797L132.316,314.3c2.964-1.868,6.826-1.438,9.304,1.041l12.996,12.996
		c2.478,2.478,2.91,6.34,1.041,9.304L82.132,454.224c4.328,1.025,8.867,0.971,13.283-0.213c7.02-1.881,12.888-6.383,16.521-12.677
		l52.095-90.23c1-1.732,2.65-2.993,4.584-3.502c57.276-15.089,124.388-55.993,175.145-106.751
		c13.271-13.271,26.101-27.6,38.134-42.586c2.593-3.23,7.314-3.746,10.544-1.152c3.229,2.593,3.746,7.314,1.152,10.544
		c-9.913,12.346-20.361,24.249-31.144,35.522c11.755-2.055,23.697-8.372,33.496-18.118c13.323-13.251,20.174-30.714,18.889-45.741
		c-0.951,1.361-1.895,2.722-2.866,4.082c-1.463,2.051-3.77,3.144-6.111,3.144c-1.508,0-3.029-0.453-4.35-1.396
		c-3.372-2.406-4.155-7.09-1.749-10.461C448.343,106.599,467.604,44.372,446.594,23.362z M211.727,247.622
		c-4.25,4.25-9.9,6.59-15.91,6.59s-11.66-2.34-15.91-6.59c-4.25-4.249-6.59-9.899-6.59-15.91c0-6.01,2.34-11.66,6.59-15.91
		c2.929-2.929,7.678-2.929,10.606,0c2.929,2.929,2.929,7.678,0,10.606c-1.417,1.417-2.197,3.3-2.197,5.303
		c0,2.003,0.78,3.887,2.197,5.303c1.417,1.417,3.3,2.197,5.303,2.197s3.887-0.78,5.303-2.197c2.929-2.929,7.678-2.929,10.606,0
		C214.656,239.944,214.656,244.693,211.727,247.622z M261.225,240.551c-4.25,4.25-9.9,6.59-15.91,6.59
		c-6.01,0-11.661-2.341-15.91-6.59s-6.59-9.9-6.59-15.91c0-6.01,2.34-11.66,6.59-15.91c2.929-2.929,7.678-2.929,10.606,0
		c2.929,2.929,2.929,7.678,0,10.606c-1.417,1.417-2.197,3.3-2.197,5.303c0,2.003,0.78,3.887,2.197,5.304s3.3,2.197,5.303,2.197
		c2.003,0,3.887-0.78,5.303-2.197c2.929-2.929,7.678-2.929,10.606,0C264.154,232.873,264.154,237.622,261.225,240.551z
		 M268.296,191.053c-4.386,4.387-10.148,6.58-15.91,6.58c-5.762,0-11.523-2.193-15.91-6.58c-8.773-8.773-8.773-23.047,0-31.82
		c2.929-2.929,7.678-2.929,10.606,0c2.929,2.929,2.929,7.678,0,10.606c-1.417,1.417-2.197,3.3-2.197,5.303
		c0,2.003,0.78,3.887,2.197,5.304s3.3,2.197,5.304,2.197c2.003,0,3.887-0.78,5.303-2.197c2.929-2.929,7.678-2.929,10.606,0
		C271.225,183.376,271.225,188.125,268.296,191.053z M324.958,86.2c-20.618,13.749-41.44,30.136-60.216,47.391
		c-1.44,1.324-3.259,1.978-5.073,1.978c-2.026,0-4.045-0.816-5.524-2.425c-2.803-3.05-2.603-7.794,0.448-10.597
		c19.337-17.771,40.791-34.654,62.043-48.826c3.447-2.297,8.103-1.367,10.401,2.079C329.335,79.245,328.404,83.902,324.958,86.2z
		 M367.291,176.911c-4.25,4.25-9.9,6.59-15.91,6.59s-11.66-2.34-15.91-6.59c-8.773-8.773-8.773-23.047,0-31.82
		c2.929-2.929,7.678-2.929,10.606,0c2.929,2.929,2.929,7.678,0,10.606c-1.417,1.417-2.197,3.3-2.197,5.303
		c0,2.003,0.78,3.887,2.197,5.304s3.3,2.197,5.303,2.197s3.887-0.78,5.303-2.197c2.929-2.929,7.678-2.929,10.606,0
		C370.22,169.234,370.22,173.983,367.291,176.911z M412.747,126.43c-1.231,2.819-3.986,4.502-6.878,4.502
		c-1.002,0-2.02-0.202-2.996-0.628c-14.041-6.128-26.682-14.757-37.573-25.648c-10.889-10.889-19.517-23.527-25.645-37.564
		c-1.657-3.796,0.077-8.217,3.873-9.874c3.798-1.656,8.217,0.077,9.874,3.873c5.375,12.312,12.946,23.401,22.504,32.959
		c9.56,9.56,20.651,17.132,32.966,22.507C412.67,118.214,414.404,122.634,412.747,126.43z M421.598,44.907
		c-6.371,0-20.719,1.62-45.237,12.467c-0.986,0.437-2.017,0.643-3.03,0.643c-2.878,0-5.623-1.666-6.863-4.468
		c-1.676-3.788,0.037-8.217,3.825-9.893c27.04-11.963,43.751-13.749,51.306-13.749c4.142,0,7.5,3.358,7.5,7.5
		S425.74,44.907,421.598,44.907z"/>
	<path style="fill:#E7453F;" d="M255.766,326.673c8.468,1.19,18.676-1.646,27.116-8.258c6.229-4.879,10.746-11.142,13.024-17.553
		C282.801,310.246,269.332,318.904,255.766,326.673z"/>
	<path style="fill:#96362F;" d="M408.873,116.556c-12.315-5.375-23.407-12.947-32.966-22.507
		c-9.558-9.558-17.129-20.647-22.504-32.959c-1.657-3.796-6.076-5.529-9.874-3.873c-3.796,1.657-5.53,6.078-3.873,9.874
		c6.128,14.037,14.756,26.676,25.645,37.564c10.891,10.891,23.532,19.52,37.573,25.648c0.977,0.426,1.994,0.628,2.996,0.628
		c2.892,0,5.647-1.683,6.878-4.502C414.404,122.634,412.67,118.214,408.873,116.556z"/>
	<path style="fill:#96362F;" d="M154.616,328.336L141.62,315.34c-2.478-2.478-6.34-2.909-9.304-1.041L15.744,387.817
		c0.593,2.527,1.556,5.011,2.92,7.372c1.382,2.394,2.757,4.293,4.178,5.886l95.938-60.504l-75.298,75.298
		c1.805,1.434,3.672,3.071,5.604,5.003c1.932,1.932,3.569,3.799,5.003,5.604l75.298-75.298l-60.504,95.938
		c1.593,1.421,3.492,2.796,5.886,4.178c2.335,1.348,4.813,2.327,7.364,2.932l73.524-116.583
		C157.526,334.677,157.093,330.814,154.616,328.336z"/>
	<path style="fill:#96362F;" d="M201.121,237.015c-1.417,1.417-3.3,2.197-5.303,2.197s-3.887-0.78-5.303-2.197
		c-1.417-1.416-2.197-3.299-2.197-5.303c0-2.003,0.78-3.887,2.197-5.303c2.929-2.929,2.929-7.678,0-10.606
		c-2.929-2.929-7.678-2.929-10.606,0c-4.25,4.25-6.59,9.9-6.59,15.91c0,6.01,2.341,11.661,6.59,15.91c4.25,4.25,9.9,6.59,15.91,6.59
		s11.66-2.34,15.91-6.59c2.929-2.929,2.929-7.678,0-10.606C208.798,234.087,204.049,234.087,201.121,237.015z"/>
	<path style="fill:#96362F;" d="M356.684,166.305c-1.417,1.417-3.3,2.197-5.303,2.197s-3.887-0.78-5.303-2.197
		s-2.197-3.3-2.197-5.304c0-2.003,0.78-3.887,2.197-5.303c2.929-2.929,2.929-7.678,0-10.606c-2.929-2.929-7.678-2.929-10.606,0
		c-8.773,8.773-8.773,23.047,0,31.82c4.25,4.25,9.9,6.59,15.91,6.59s11.66-2.34,15.91-6.59c2.929-2.929,2.929-7.678,0-10.606
		C364.362,163.376,359.613,163.376,356.684,166.305z"/>
	<path style="fill:#96362F;" d="M250.618,229.945c-1.417,1.417-3.3,2.197-5.303,2.197c-2.003,0-3.887-0.78-5.303-2.197
		s-2.197-3.3-2.197-5.304c0-2.003,0.78-3.887,2.197-5.303c2.929-2.929,2.929-7.678,0-10.606c-2.929-2.929-7.678-2.929-10.606,0
		c-4.25,4.25-6.59,9.9-6.59,15.91c0,6.01,2.34,11.661,6.59,15.91s9.9,6.59,15.91,6.59c6.01,0,11.66-2.34,15.91-6.59
		c2.929-2.929,2.929-7.678,0-10.606C258.296,227.016,253.547,227.016,250.618,229.945z"/>
	<path style="fill:#96362F;" d="M257.69,180.447c-1.417,1.417-3.3,2.197-5.303,2.197c-2.003,0-3.887-0.78-5.304-2.197
		s-2.197-3.3-2.197-5.304c0-2.003,0.78-3.887,2.197-5.303c2.929-2.929,2.929-7.678,0-10.606c-2.929-2.929-7.678-2.929-10.606,0
		c-8.773,8.773-8.773,23.047,0,31.82c4.386,4.387,10.148,6.58,15.91,6.58c5.762,0,11.524-2.193,15.91-6.58
		c2.929-2.929,2.929-7.678,0-10.606C265.367,177.518,260.618,177.518,257.69,180.447z"/>
	<path style="fill:#3D2A20;" d="M457.201,12.756c-18.951-18.951-56.378-16.692-105.388,6.36
		c-15.309,7.201-31.145,16.128-46.989,26.402l-28.919-18.115c-2.691-1.685-6.151-1.494-8.639,0.478
		c-25.697,20.363-50.715,44.341-72.35,69.341c-27.662,31.966-52.746,70.801-70.631,109.351c-0.483,1.042-0.721,2.18-0.695,3.328
		l0.934,40.995c-6.613,14.858-11.951,29.483-15.852,43.589L21.123,345.03c-9.764,5.637-16.749,14.739-19.667,25.63
		c-2.918,10.89-1.421,22.265,4.217,32.029c0.05,0.086,0.1,0.164,0.15,0.249c6.28,10.754,13.13,14.916,19.758,18.932
		c4.294,2.602,8.349,5.06,12.897,9.607c4.547,4.548,7.005,8.603,9.607,12.897c4.017,6.627,8.178,13.478,18.93,19.756
		c0.088,0.051,0.165,0.102,0.252,0.152c6.504,3.755,13.722,5.674,21.036,5.673c3.666,0,7.357-0.482,10.993-1.456
		c10.89-2.918,19.992-9.902,25.629-19.667l50.546-87.548c20.312-5.625,41.719-14.274,63.167-25.303
		c6.027,3.989,13.328,5.972,21.024,5.971c10.874,0,22.53-3.945,32.468-11.73c13.992-10.961,21.602-26.889,20.308-41.742
		c12.088-9.459,23.735-19.512,34.73-30.011c2.281,0.277,4.586,0.43,6.914,0.43c18.225,0,37.521-8.371,52.436-23.204
		c21.325-21.21,28.974-50.616,19.524-73.139c17.413-27.261,30.532-53.997,37.613-76.963C473.891,52.4,471.658,27.213,457.201,12.756
		z M399.755,174.688c-2.406,3.372-1.623,8.056,1.749,10.461c1.321,0.942,2.842,1.396,4.35,1.396c2.341,0,4.648-1.093,6.111-3.144
		c0.97-1.36,1.914-2.721,2.866-4.082c1.285,15.027-5.566,32.49-18.889,45.741c-9.799,9.746-21.741,16.063-33.496,18.118
		c10.783-11.272,21.232-23.175,31.144-35.522c2.593-3.23,2.077-7.951-1.152-10.544c-3.23-2.594-7.951-2.078-10.544,1.152
		c-12.033,14.986-24.863,29.314-38.134,42.586c-50.757,50.757-117.869,91.662-175.145,106.751c-1.934,0.509-3.584,1.771-4.584,3.502
		l-52.095,90.23c-3.634,6.294-9.501,10.796-16.521,12.677c-4.416,1.184-8.955,1.239-13.283,0.213
		c-2.552-0.605-5.03-1.584-7.364-2.932c-2.394-1.382-4.293-2.757-5.886-4.178c-3.472-3.098-5.484-6.416-7.968-10.514
		c-1.88-3.103-3.933-6.484-6.826-10.125c-1.434-1.805-3.071-3.672-5.003-5.604c-1.932-1.932-3.799-3.569-5.604-5.003
		c-3.642-2.893-7.023-4.946-10.125-6.826c-4.098-2.484-7.416-4.496-10.514-7.967c-1.421-1.593-2.796-3.492-4.178-5.886
		c-1.363-2.361-2.326-4.845-2.92-7.372c-2.671-11.379,2.247-23.658,12.879-29.797l90.23-52.095c1.732-1,2.993-2.65,3.502-4.584
		c8.594-32.623,25.404-68.448,48.613-103.603c2.282-3.457,1.33-8.109-2.127-10.391c-3.455-2.282-8.108-1.33-10.391,2.126
		c-7.124,10.79-13.662,21.656-19.583,32.492l-0.243-10.655c17.263-36.8,41.235-73.769,67.633-104.274
		c19.872-22.964,42.676-45.036,66.198-64.095l18.746,11.743c-25.3,17.634-50.242,38.443-72.702,60.905
		c-14.841,14.84-29.126,31.327-42.458,49c-2.494,3.307-1.835,8.01,1.471,10.504c3.308,2.496,8.01,1.835,10.504-1.471
		c12.914-17.12,26.738-33.077,41.089-47.427c39.341-39.341,86.393-73.423,129.09-93.507c42.238-19.867,74.458-23.267,88.397-9.327
		C467.604,44.372,448.343,106.599,399.755,174.688z M282.881,318.415c-8.44,6.612-18.647,9.447-27.116,8.258
		c13.567-7.769,27.035-16.427,40.14-25.811C293.628,307.273,289.11,313.536,282.881,318.415z"/>
	<path style="fill:#FFFFFF;" d="M316.635,73.72c-21.252,14.171-42.706,31.055-62.043,48.826c-3.05,2.803-3.25,7.547-0.448,10.597
		c1.479,1.609,3.499,2.425,5.524,2.425c1.813,0,3.632-0.654,5.073-1.978c18.776-17.255,39.598-33.642,60.216-47.391
		c3.446-2.298,4.377-6.955,2.079-10.401C324.738,72.353,320.082,71.424,316.635,73.72z"/>
	<path style="fill:#FFFFFF;" d="M421.598,29.907c-7.555,0-24.266,1.786-51.306,13.749c-3.788,1.676-5.5,6.105-3.825,9.893
		c1.24,2.802,3.985,4.468,6.863,4.468c1.014,0,2.044-0.207,3.03-0.643c24.518-10.847,38.867-12.467,45.237-12.467
		c4.142,0,7.5-3.358,7.5-7.5S425.74,29.907,421.598,29.907z"/>
</g>
<g>
</g>
<g>
</g>
<g>
</g>
<g>
</g>
<g>
</g>
<g>
</g>
<g>
</g>
<g>
</g>
<g>
</g>
<g>
</g>
<g>
</g>
<g>
</g>
<g>
</g>
<g>
</g>
<g>
</g>
</svg>
