<?xml version="1.0" encoding="iso-8859-1"?>
<!-- Generator: Adobe Illustrator 19.0.0, SVG Export Plug-In . SVG Version: 6.00 Build 0)  -->
<svg version="1.1" id="Capa_1" xmlns="http://www.w3.org/2000/svg" xmlns:xlink="http://www.w3.org/1999/xlink" x="0px" y="0px"
	 viewBox="0 0 470 470" style="enable-background:new 0 0 470 470;" xml:space="preserve">
<g>
	<path style="fill:#EC6A65;" d="M82.056,375.824c0-4.142,3.357-7.5,7.5-7.5h7.794c1.254,0,2.433,0.312,3.471,0.855l40.797-40.797
		C127.678,314.441,120,295.906,120,276.191c0-19.715,7.678-38.25,21.618-52.19L224,141.619C237.941,127.678,256.477,120,276.191,120
		c19.715,0,38.25,7.678,52.19,21.618l43.989-43.989c-0.397-0.914-0.62-1.922-0.62-2.983v-7.795c0-4.142,3.357-7.5,7.5-7.5
		c3.082,0,5.727,1.86,6.88,4.517l16.497-16.497C368.856,33.599,323.953,15,276.192,15c-47.762,0-92.664,18.599-126.437,52.372
		l-82.384,82.383c-69.718,69.718-69.718,183.156,0,252.873l19.725-19.725C84.164,381.884,82.056,379.103,82.056,375.824z
		 M179.561,145.494c0,4.142-3.357,7.5-7.5,7.5s-7.5-3.358-7.5-7.5v-7.795c0-4.142,3.357-7.5,7.5-7.5s7.5,3.358,7.5,7.5V145.494z
		 M310.063,51.871c2.93-2.929,7.678-2.929,10.607,0l5.512,5.512c2.929,2.929,2.929,7.678,0,10.606
		c-1.465,1.464-3.385,2.197-5.304,2.197s-3.839-0.732-5.304-2.197l-5.512-5.512C307.134,59.549,307.134,54.8,310.063,51.871z
		 M282.425,78.718h7.795c4.143,0,7.5,3.358,7.5,7.5s-3.357,7.5-7.5,7.5h-7.795c-4.143,0-7.5-3.358-7.5-7.5
		S278.282,78.718,282.425,78.718z M219.218,58.008c2.93-2.929,7.678-2.929,10.607,0l5.512,5.512c2.929,2.929,2.929,7.678,0,10.606
		c-1.465,1.464-3.385,2.197-5.304,2.197s-3.839-0.732-5.304-2.197l-5.512-5.512C216.289,65.686,216.289,60.937,219.218,58.008z
		 M175.304,63.251c0-4.142,3.357-7.5,7.5-7.5s7.5,3.358,7.5,7.5v7.794c0,4.142-3.357,7.5-7.5,7.5s-7.5-3.358-7.5-7.5V63.251z
		 M158.019,112.342l5.512-5.511c2.928-2.929,7.677-2.927,10.606,0c2.929,2.929,2.929,7.678-0.001,10.607l-5.512,5.511
		c-1.464,1.464-3.384,2.196-5.303,2.196c-1.92,0-3.839-0.732-5.304-2.197C155.089,120.02,155.089,115.271,158.019,112.342z
		 M102.178,320.168c0,4.142-3.357,7.5-7.5,7.5s-7.5-3.358-7.5-7.5v-7.794c0-4.142,3.357-7.5,7.5-7.5s7.5,3.358,7.5,7.5V320.168z
		 M121.12,193.854c-1.465,1.464-3.385,2.197-5.304,2.197s-3.839-0.732-5.304-2.197l-5.512-5.512c-2.929-2.929-2.929-7.678,0-10.606
		c2.93-2.929,7.678-2.929,10.607,0l5.512,5.512C124.049,186.177,124.049,190.926,121.12,193.854z M102.546,143.803
		c0-4.142,3.357-7.5,7.5-7.5s7.5,3.358,7.5,7.5v7.794c0,4.142-3.357,7.5-7.5,7.5s-7.5-3.358-7.5-7.5V143.803z M100.771,228.75
		c2.929,2.929,2.929,7.678,0,10.606l-5.512,5.512c-1.465,1.464-3.385,2.197-5.304,2.197s-3.839-0.732-5.304-2.197
		c-2.929-2.929-2.929-7.678,0-10.606l5.512-5.512C93.094,225.821,97.842,225.821,100.771,228.75z M50.698,308.514h-7.795
		c-4.143,0-7.5-3.358-7.5-7.5s3.357-7.5,7.5-7.5h7.795c4.143,0,7.5,3.358,7.5,7.5S54.841,308.514,50.698,308.514z M73.705,202.481
		c-4.143,0-7.5-3.358-7.5-7.5s3.357-7.5,7.5-7.5h7.794c4.143,0,7.5,3.358,7.5,7.5s-3.357,7.5-7.5,7.5H73.705z"/>
	<path style="fill:#FFCB59;" d="M402.628,320.245c69.718-69.718,69.718-183.156,0-252.873l-16.497,16.497
		c0.397,0.915,0.62,1.922,0.62,2.983v7.795c0,4.142-3.357,7.5-7.5,7.5c-3.082,0-5.727-1.86-6.88-4.517l-43.989,43.989
		C342.322,155.559,350,174.094,350,193.809c0,19.715-7.678,38.25-21.618,52.19L246,328.381C232.059,342.322,213.523,350,193.809,350
		c-19.715,0-38.25-7.678-52.19-21.618l-40.797,40.797c2.393,1.253,4.029,3.756,4.029,6.645c0,4.142-3.357,7.5-7.5,7.5h-7.794
		c-0.863,0-1.687-0.153-2.459-0.421l-19.725,19.725C101.144,436.401,146.047,455,193.808,455c47.762,0,92.664-18.599,126.437-52.372
		L402.628,320.245z M399.878,289.561l-5.512,5.512c-1.465,1.464-3.385,2.197-5.304,2.197s-3.839-0.732-5.304-2.197
		c-2.929-2.929-2.929-7.678,0-10.606l5.512-5.512c2.93-2.929,7.678-2.929,10.607,0C402.807,281.883,402.807,286.632,399.878,289.561
		z M426.043,189.645h7.794c4.143,0,7.5,3.358,7.5,7.5s-3.357,7.5-7.5,7.5h-7.794c-4.143,0-7.5-3.358-7.5-7.5
		S421.9,189.645,426.043,189.645z M402.785,133.526c0-4.142,3.357-7.5,7.5-7.5s7.5,3.358,7.5,7.5v7.795c0,4.142-3.357,7.5-7.5,7.5
		s-7.5-3.358-7.5-7.5V133.526z M396.876,228.22c0-4.142,3.357-7.5,7.5-7.5s7.5,3.358,7.5,7.5v7.795c0,4.142-3.357,7.5-7.5,7.5
		s-7.5-3.358-7.5-7.5V228.22z M376.968,127.208l5.512-5.511c2.929-2.929,7.678-2.927,10.606,0c2.929,2.929,2.929,7.678-0.001,10.607
		l-5.512,5.511c-1.464,1.464-3.384,2.196-5.303,2.196c-1.92,0-3.839-0.732-5.304-2.197
		C374.038,134.886,374.038,130.138,376.968,127.208z M368.197,184.97c2.93-2.929,7.678-2.929,10.607,0l5.512,5.512
		c2.929,2.929,2.929,7.678,0,10.606c-1.465,1.464-3.385,2.197-5.304,2.197s-3.839-0.732-5.304-2.197l-5.512-5.512
		C365.269,192.648,365.269,187.899,368.197,184.97z M354.264,266.111c2.93-2.929,7.678-2.929,10.607,0l5.512,5.512
		c2.929,2.929,2.929,7.678,0,10.606c-1.465,1.464-3.385,2.197-5.304,2.197s-3.839-0.732-5.304-2.197l-5.512-5.512
		C351.335,273.789,351.335,269.04,354.264,266.111z M331.094,284.593h7.795c4.143,0,7.5,3.358,7.5,7.5s-3.357,7.5-7.5,7.5h-7.795
		c-4.143,0-7.5-3.358-7.5-7.5S326.951,284.593,331.094,284.593z M136.641,369.893l-5.512,5.511
		c-1.464,1.464-3.384,2.196-5.303,2.196c-1.92,0-3.839-0.732-5.304-2.197c-2.929-2.929-2.929-7.678,0.001-10.607l5.512-5.511
		c2.929-2.928,7.678-2.928,10.606,0C139.57,362.215,139.57,366.964,136.641,369.893z M185.386,427.751h-7.795
		c-4.143,0-7.5-3.358-7.5-7.5s3.357-7.5,7.5-7.5h7.795c4.143,0,7.5,3.358,7.5,7.5S189.528,427.751,185.386,427.751z
		 M231.384,386.475c-1.465,1.464-3.385,2.197-5.304,2.197s-3.839-0.732-5.304-2.197l-5.512-5.512c-2.929-2.929-2.929-7.678,0-10.606
		c2.93-2.929,7.678-2.929,10.607,0l5.512,5.512C234.313,378.797,234.313,383.546,231.384,386.475z M292.694,359.917l-5.511,5.511
		c-1.465,1.464-3.385,2.197-5.304,2.197s-3.839-0.732-5.303-2.196c-2.93-2.929-2.93-7.678-0.001-10.607l5.511-5.511
		c2.93-2.929,7.679-2.929,10.606,0C295.623,352.24,295.623,356.988,292.694,359.917z M318.693,371.536c0,4.142-3.357,7.5-7.5,7.5
		s-7.5-3.358-7.5-7.5v-7.794c0-4.142,3.357-7.5,7.5-7.5s7.5,3.358,7.5,7.5V371.536z"/>
	<path style="fill:#3D2A20;" d="M413.235,56.765C376.63,20.16,327.96,0,276.192,0c-51.769,0-100.438,20.16-137.044,56.765
		l-82.384,82.383c-75.565,75.566-75.565,198.521,0,274.086C93.37,449.84,142.04,470,193.808,470
		c51.769,0,100.438-20.16,137.044-56.765l82.384-82.383C488.801,255.286,488.801,132.331,413.235,56.765z M67.372,402.628
		c-69.718-69.718-69.718-183.156,0-252.874l82.384-82.383C183.528,33.599,228.431,15,276.192,15
		c47.761,0,92.664,18.599,126.436,52.372c69.718,69.718,69.718,183.156,0,252.874l-82.384,82.383
		C286.472,436.401,241.569,455,193.808,455C146.047,455,101.144,436.401,67.372,402.628z"/>
	<path style="fill:#3D2A20;" d="M224,141.619l-82.382,82.382c-13.94,13.94-21.618,32.475-21.618,52.19
		c0,19.715,7.678,38.25,21.618,52.19C155.559,342.322,174.094,350,193.809,350c19.715,0,38.25-7.678,52.191-21.618l82.382-82.382
		c13.94-13.94,21.618-32.475,21.618-52.19c0-19.715-7.678-38.25-21.618-52.19C314.441,127.678,295.906,120,276.191,120
		C256.477,120,237.941,127.678,224,141.619z M152.226,317.775C141.117,306.667,135,291.899,135,276.191
		c0-15.708,6.117-30.476,17.226-41.583l82.382-82.382C245.715,141.118,260.482,135,276.191,135c15.708,0,30.477,6.117,41.583,17.225
		C328.883,163.333,335,178.101,335,193.809c0,15.708-6.117,30.476-17.226,41.583l-82.382,82.382
		C224.285,328.882,209.518,335,193.809,335C178.101,335,163.332,328.882,152.226,317.775z"/>
	<path style="fill:#FFFFFF;" d="M315.574,67.989c1.465,1.464,3.385,2.197,5.304,2.197s3.839-0.732,5.304-2.197
		c2.929-2.929,2.929-7.678,0-10.606l-5.512-5.512c-2.93-2.929-7.678-2.929-10.607,0c-2.929,2.929-2.929,7.678,0,10.606
		L315.574,67.989z"/>
	<path style="fill:#FFFFFF;" d="M379.251,79.352c-4.143,0-7.5,3.358-7.5,7.5v7.795c0,1.061,0.223,2.068,0.62,2.983
		c1.154,2.657,3.798,4.517,6.88,4.517c4.143,0,7.5-3.358,7.5-7.5v-7.795c0-1.061-0.223-2.068-0.62-2.983
		C384.978,81.212,382.333,79.352,379.251,79.352z"/>
	<path style="fill:#FFFFFF;" d="M282.425,93.718h7.795c4.143,0,7.5-3.358,7.5-7.5s-3.357-7.5-7.5-7.5h-7.795
		c-4.143,0-7.5,3.358-7.5,7.5S278.282,93.718,282.425,93.718z"/>
	<path style="fill:#FFFFFF;" d="M105.001,177.736c-2.929,2.929-2.929,7.678,0,10.606l5.512,5.512
		c1.465,1.464,3.385,2.197,5.304,2.197s3.839-0.732,5.304-2.197c2.929-2.929,2.929-7.678,0-10.606l-5.512-5.512
		C112.679,174.808,107.931,174.808,105.001,177.736z"/>
	<path style="fill:#FFFFFF;" d="M172.061,130.199c-4.143,0-7.5,3.358-7.5,7.5v7.795c0,4.142,3.357,7.5,7.5,7.5s7.5-3.358,7.5-7.5
		v-7.795C179.561,133.557,176.203,130.199,172.061,130.199z"/>
	<path style="fill:#FFFFFF;" d="M126.035,359.286l-5.512,5.511c-2.93,2.929-2.93,7.678-0.001,10.607
		c1.465,1.464,3.384,2.197,5.304,2.197c1.919,0,3.839-0.732,5.303-2.196l5.512-5.511c2.93-2.929,2.93-7.678,0.001-10.607
		C133.713,356.358,128.964,356.357,126.035,359.286z"/>
	<path style="fill:#FFFFFF;" d="M89.556,368.324c-4.143,0-7.5,3.358-7.5,7.5c0,3.28,2.108,6.06,5.041,7.079
		c0.771,0.268,1.596,0.421,2.459,0.421h7.794c4.143,0,7.5-3.358,7.5-7.5c0-2.889-1.635-5.392-4.029-6.645
		c-1.039-0.544-2.218-0.855-3.471-0.855H89.556z"/>
	<path style="fill:#FFFFFF;" d="M404.376,243.515c4.143,0,7.5-3.358,7.5-7.5v-7.795c0-4.142-3.357-7.5-7.5-7.5s-7.5,3.358-7.5,7.5
		v7.795C396.876,240.157,400.233,243.515,404.376,243.515z"/>
	<path style="fill:#FFFFFF;" d="M331.094,299.593h7.795c4.143,0,7.5-3.358,7.5-7.5s-3.357-7.5-7.5-7.5h-7.795
		c-4.143,0-7.5,3.358-7.5,7.5S326.951,299.593,331.094,299.593z"/>
	<path style="fill:#FFFFFF;" d="M389.271,278.955l-5.512,5.512c-2.929,2.929-2.929,7.678,0,10.606
		c1.465,1.464,3.385,2.197,5.304,2.197s3.839-0.732,5.304-2.197l5.512-5.512c2.929-2.929,2.929-7.678,0-10.606
		C396.948,276.026,392.2,276.026,389.271,278.955z"/>
	<path style="fill:#FFFFFF;" d="M359.775,282.229c1.465,1.464,3.385,2.197,5.304,2.197s3.839-0.732,5.304-2.197
		c2.929-2.929,2.929-7.678,0-10.606l-5.512-5.512c-2.93-2.929-7.678-2.929-10.607,0c-2.929,2.929-2.929,7.678,0,10.606
		L359.775,282.229z"/>
	<path style="fill:#FFFFFF;" d="M311.193,356.241c-4.143,0-7.5,3.358-7.5,7.5v7.794c0,4.142,3.357,7.5,7.5,7.5s7.5-3.358,7.5-7.5
		v-7.794C318.693,359.599,315.336,356.241,311.193,356.241z"/>
	<path style="fill:#FFFFFF;" d="M185.386,412.751h-7.795c-4.143,0-7.5,3.358-7.5,7.5s3.357,7.5,7.5,7.5h7.795
		c4.143,0,7.5-3.358,7.5-7.5S189.528,412.751,185.386,412.751z"/>
	<path style="fill:#FFFFFF;" d="M282.087,349.311l-5.511,5.511c-2.929,2.929-2.929,7.678,0.001,10.607
		c1.464,1.464,3.384,2.196,5.303,2.196s3.839-0.732,5.304-2.197l5.511-5.511c2.929-2.929,2.929-7.678-0.001-10.607
		C289.766,346.382,285.017,346.382,282.087,349.311z"/>
	<path style="fill:#FFFFFF;" d="M225.872,370.357c-2.93-2.929-7.678-2.929-10.607,0c-2.929,2.929-2.929,7.678,0,10.606l5.512,5.512
		c1.465,1.464,3.385,2.197,5.304,2.197s3.839-0.732,5.304-2.197c2.929-2.929,2.929-7.678,0-10.606L225.872,370.357z"/>
	<path style="fill:#FFFFFF;" d="M94.678,304.874c-4.143,0-7.5,3.358-7.5,7.5v7.794c0,4.142,3.357,7.5,7.5,7.5s7.5-3.358,7.5-7.5
		v-7.794C102.178,308.231,98.82,304.874,94.678,304.874z"/>
	<path style="fill:#FFFFFF;" d="M50.698,293.514h-7.795c-4.143,0-7.5,3.358-7.5,7.5s3.357,7.5,7.5,7.5h7.795
		c4.143,0,7.5-3.358,7.5-7.5S54.841,293.514,50.698,293.514z"/>
	<path style="fill:#FFFFFF;" d="M84.652,244.868c1.465,1.464,3.385,2.197,5.304,2.197s3.839-0.732,5.304-2.197l5.512-5.512
		c2.929-2.929,2.929-7.678,0-10.606c-2.93-2.929-7.678-2.929-10.607,0l-5.512,5.512C81.724,237.19,81.724,241.939,84.652,244.868z"
		/>
	<path style="fill:#FFFFFF;" d="M224.729,74.126c1.465,1.464,3.385,2.197,5.304,2.197s3.839-0.732,5.304-2.197
		c2.929-2.929,2.929-7.678,0-10.606l-5.512-5.512c-2.93-2.929-7.678-2.929-10.607,0c-2.929,2.929-2.929,7.678,0,10.606
		L224.729,74.126z"/>
	<path style="fill:#FFFFFF;" d="M182.804,78.545c4.143,0,7.5-3.358,7.5-7.5v-7.794c0-4.142-3.357-7.5-7.5-7.5s-7.5,3.358-7.5,7.5
		v7.794C175.304,75.188,178.661,78.545,182.804,78.545z"/>
	<path style="fill:#FFFFFF;" d="M110.046,159.097c4.143,0,7.5-3.358,7.5-7.5v-7.794c0-4.142-3.357-7.5-7.5-7.5s-7.5,3.358-7.5,7.5
		v7.794C102.546,155.739,105.903,159.097,110.046,159.097z"/>
	<path style="fill:#FFFFFF;" d="M163.321,125.146c1.919,0,3.839-0.732,5.303-2.196l5.512-5.511c2.93-2.929,2.93-7.678,0.001-10.607
		c-2.93-2.928-7.679-2.929-10.606,0l-5.512,5.511c-2.93,2.929-2.93,7.678-0.001,10.607
		C159.482,124.413,161.401,125.146,163.321,125.146z"/>
	<path style="fill:#FFFFFF;" d="M88.999,194.981c0-4.142-3.357-7.5-7.5-7.5h-7.794c-4.143,0-7.5,3.358-7.5,7.5s3.357,7.5,7.5,7.5
		h7.794C85.642,202.481,88.999,199.124,88.999,194.981z"/>
	<path style="fill:#FFFFFF;" d="M410.285,148.821c4.143,0,7.5-3.358,7.5-7.5v-7.795c0-4.142-3.357-7.5-7.5-7.5s-7.5,3.358-7.5,7.5
		v7.795C402.785,145.463,406.143,148.821,410.285,148.821z"/>
	<path style="fill:#FFFFFF;" d="M426.043,204.645h7.794c4.143,0,7.5-3.358,7.5-7.5s-3.357-7.5-7.5-7.5h-7.794
		c-4.143,0-7.5,3.358-7.5,7.5S421.9,204.645,426.043,204.645z"/>
	<path style="fill:#FFFFFF;" d="M382.271,140.012c1.919,0,3.839-0.732,5.303-2.196l5.512-5.511c2.93-2.929,2.93-7.678,0.001-10.607
		c-2.929-2.928-7.678-2.929-10.606,0l-5.512,5.511c-2.93,2.929-2.93,7.678-0.001,10.607
		C378.432,139.28,380.351,140.012,382.271,140.012z"/>
	<path style="fill:#FFFFFF;" d="M373.709,201.088c1.465,1.464,3.385,2.197,5.304,2.197s3.839-0.732,5.304-2.197
		c2.929-2.929,2.929-7.678,0-10.606l-5.512-5.512c-2.93-2.929-7.678-2.929-10.607,0c-2.929,2.929-2.929,7.678,0,10.606
		L373.709,201.088z"/>
</g>
<g>
</g>
<g>
</g>
<g>
</g>
<g>
</g>
<g>
</g>
<g>
</g>
<g>
</g>
<g>
</g>
<g>
</g>
<g>
</g>
<g>
</g>
<g>
</g>
<g>
</g>
<g>
</g>
<g>
</g>
</svg>
