<?xml version="1.0" encoding="iso-8859-1"?>
<!-- Generator: Adobe Illustrator 19.0.0, SVG Export Plug-In . SVG Version: 6.00 Build 0)  -->
<svg version="1.1" id="Layer_1" xmlns="http://www.w3.org/2000/svg" xmlns:xlink="http://www.w3.org/1999/xlink" x="0px" y="0px"
	 viewBox="0 0 512 512" style="enable-background:new 0 0 512 512;" xml:space="preserve">
<path style="fill:#FF9811;" d="M256.294,504.404c-8.39,0-15.192-6.802-15.192-15.192V220.585c0-8.39,6.802-15.192,15.192-15.192
	s15.192,6.802,15.192,15.192v268.628C271.486,497.602,264.684,504.404,256.294,504.404z"/>
<path style="fill:#CC7400;" d="M256.294,205.393c-8.39,0-15.192,6.802-15.192,15.192v188.078h30.384V220.585
	C271.486,212.195,264.685,205.393,256.294,205.393z"/>
<path style="fill:#F072AE;" d="M256,7.596c-34.815,0-63.3,28.485-63.3,63.3v292.191c0,8.39,6.802,15.192,15.192,15.192h96.215
	c8.39,0,15.192-6.802,15.192-15.192V70.896C319.3,36.081,290.815,7.596,256,7.596z"/>
<path style="fill:#EA3486;" d="M256,7.596c-34.815,0-63.3,28.485-63.3,63.3v292.191c0,8.39,6.802,15.192,15.192,15.192h30.381
	V70.896c0-26.789,16.874-49.815,40.513-59.015C271.705,9.125,264.024,7.596,256,7.596z"/>
<g>
	<path style="fill:#96C8EF;" d="M293.662,20.107L192.74,69.357c-0.012,0.512-0.04,61.8-0.04,61.8l126.561-61.762
		C318.786,49.27,308.815,31.391,293.662,20.107z"/>
	<polygon style="fill:#96C8EF;" points="192.7,254.718 319.3,192.937 319.3,131.157 192.7,192.937 	"/>
</g>
<g>
	<path style="fill:#3D9AE2;" d="M244.211,44.239L192.74,69.357c-0.012,0.512-0.04,61.8-0.04,61.8l45.573-22.239V70.896
		C238.273,61.384,240.411,52.353,244.211,44.239z"/>
	<polygon style="fill:#3D9AE2;" points="192.7,192.937 192.7,254.718 238.273,232.479 238.273,170.698 	"/>
</g>
<path style="fill:#96C8EF;" d="M192.7,316.498v46.589c0,4.999,2.426,9.421,6.153,12.19L319.3,316.498v-61.78L192.7,316.498z"/>
<path style="fill:#3D9AE2;" d="M192.7,316.498v46.589c0,4.999,2.426,9.421,6.153,12.19l39.42-19.237v-61.78L192.7,316.498z"/>
<path d="M256,0c-39.092,0-70.896,31.804-70.896,70.896v292.191c0,12.566,10.223,22.788,22.788,22.788h25.614v15.698
	c0,4.195,3.4,7.596,7.596,7.596c4.196,0,7.596-3.401,7.596-7.596v-15.698h15.192v103.337c0,4.189-3.407,7.596-7.596,7.596
	s-7.596-3.407-7.596-7.596v-18.009c0-4.195-3.4-7.596-7.596-7.596c-4.196,0-7.596,3.401-7.596,7.596v18.01
	c0,12.566,10.223,22.788,22.788,22.788s22.788-10.222,22.788-22.788V385.875h25.026c12.565,0,22.788-10.222,22.788-22.788V70.896
	C326.896,31.804,295.092,0,256,0z M200.127,366.462c-0.339-0.86,0.169-45.219,0.169-45.219l111.407-54.367v44.876L200.127,366.462z
	 M200.296,259.463l111.407-54.367v44.876l-111.407,54.367L200.296,259.463L200.296,259.463z M311.704,188.192l-111.407,54.367
	v-44.388l111.407-54.367V188.192z M311.363,64.798l-14.393,7.024c-3.771,1.839-5.286,6.363-3.495,10.157
	c2.699,5.719,9.086,4.019,10.157,3.495l8.071-3.939v45.364l-111.407,54.367v-45.364l72.264-35.264
	c3.771-1.839,5.335-6.388,3.495-10.157c-1.839-3.771-6.388-5.335-10.157-3.495l-65.601,32.013v-45.67l91.807-44.802
	C302.628,37.508,309.779,50.324,311.363,64.798z M256,15.192c7.289,0,14.249,1.422,20.636,3.979l-74.112,36.167
	C209.275,32.172,230.685,15.192,256,15.192z M304.108,370.683h-78.523l86.119-42.026v34.43
	C311.704,367.276,308.297,370.683,304.108,370.683z"/>
<path d="M241.102,454.998c4.196,0,7.596-3.401,7.596-7.596V425.88c0-4.195-3.4-7.596-7.596-7.596c-4.196,0-7.596,3.401-7.596,7.596
	v21.522C233.506,451.598,236.907,454.998,241.102,454.998z"/>
<g>
</g>
<g>
</g>
<g>
</g>
<g>
</g>
<g>
</g>
<g>
</g>
<g>
</g>
<g>
</g>
<g>
</g>
<g>
</g>
<g>
</g>
<g>
</g>
<g>
</g>
<g>
</g>
<g>
</g>
</svg>
