<?xml version="1.0" encoding="iso-8859-1"?>
<!-- Generator: Adobe Illustrator 19.0.0, SVG Export Plug-In . SVG Version: 6.00 Build 0)  -->
<svg version="1.1" id="Capa_1" xmlns="http://www.w3.org/2000/svg" xmlns:xlink="http://www.w3.org/1999/xlink" x="0px" y="0px"
	 viewBox="0 0 470 470" style="enable-background:new 0 0 470 470;" xml:space="preserve">
<g>
	<path style="fill:#FFCB59;" d="M235,15C113.691,15,15,113.691,15,235s98.691,220,220,220s220-98.691,220-220S356.309,15,235,15z
		 M235,417.556c-100.661,0-182.556-81.895-182.556-182.556S134.339,52.444,235,52.444S417.556,134.339,417.556,235
		S335.661,417.556,235,417.556z"/>
	<path style="fill:#3D2A20;" d="M401.17,68.83C356.784,24.444,297.771,0,235,0S113.216,24.444,68.83,68.83S0,172.229,0,235
		s24.444,121.784,68.83,166.17S172.229,470,235,470s121.784-24.444,166.17-68.83S470,297.771,470,235S445.556,113.216,401.17,68.83z
		 M235,455c-121.309,0-220-98.691-220-220S113.691,15,235,15s220,98.691,220,220S356.309,455,235,455z"/>
	<path style="fill:#FFF5DE;" d="M227.5,222.009v-53.144c0-4.143,3.357-7.5,7.5-7.5s7.5,3.357,7.5,7.5v53.144l133.672-77.176
		C347.629,100.302,298.605,70.105,242.5,67.62v71.245c0,4.143-3.357,7.5-7.5,7.5s-7.5-3.357-7.5-7.5V67.62
		c-56.105,2.484-105.129,32.681-133.672,77.213L227.5,222.009z"/>
	<path style="fill:#FFF5DE;" d="M343.238,306.151c-3.587-2.071-4.816-6.658-2.745-10.245c2.069-3.588,6.659-4.816,10.245-2.745
		l32.948,19.023c12.047-23.114,18.87-49.365,18.87-77.184s-6.823-54.07-18.87-77.184L250,235l74.758,43.161
		c3.587,2.071,4.816,6.658,2.745,10.245c-1.389,2.406-3.91,3.751-6.502,3.751c-1.272,0-2.562-0.324-3.743-1.006L242.5,247.99v154.39
		c56.105-2.484,105.129-32.681,133.672-77.213L343.238,306.151z"/>
	<path style="fill:#FFF5DE;" d="M227.5,402.38V247.99L93.828,325.166C122.371,369.698,171.395,399.895,227.5,402.38z"/>
	<path style="fill:#FFF5DE;" d="M220,235L86.314,157.816C74.267,180.93,67.444,207.181,67.444,235s6.823,54.07,18.87,77.184L220,235
		z"/>
	<path style="fill:#3D2A20;" d="M235,52.444C134.339,52.444,52.444,134.339,52.444,235S134.339,417.556,235,417.556
		S417.556,335.661,417.556,235S335.661,52.444,235,52.444z M227.5,67.62v71.245c0,4.143,3.357,7.5,7.5,7.5s7.5-3.357,7.5-7.5V67.62
		c56.105,2.484,105.129,32.681,133.672,77.213L242.5,222.01v-53.144c0-4.143-3.357-7.5-7.5-7.5s-7.5,3.357-7.5,7.5v53.144
		L93.828,144.834C122.371,100.302,171.395,70.105,227.5,67.62z M86.314,157.816L220,235L86.314,312.184
		C74.267,289.07,67.444,262.819,67.444,235S74.267,180.93,86.314,157.816z M227.5,247.99V402.38
		c-56.105-2.484-105.129-32.681-133.672-77.213L227.5,247.99z M242.5,402.38V247.99l74.758,43.161
		c1.182,0.682,2.471,1.006,3.743,1.006c2.592,0,5.113-1.345,6.502-3.751c2.071-3.587,0.842-8.174-2.745-10.245L250,235
		l133.685-77.184c12.047,23.114,18.87,49.366,18.87,77.184s-6.823,54.07-18.87,77.184l-32.948-19.023
		c-3.586-2.071-8.176-0.843-10.245,2.745c-2.071,3.587-0.842,8.174,2.745,10.245l32.933,19.015
		C347.629,369.698,298.605,399.895,242.5,402.38z"/>
</g>
<g>
</g>
<g>
</g>
<g>
</g>
<g>
</g>
<g>
</g>
<g>
</g>
<g>
</g>
<g>
</g>
<g>
</g>
<g>
</g>
<g>
</g>
<g>
</g>
<g>
</g>
<g>
</g>
<g>
</g>
</svg>
