<?xml version="1.0" encoding="iso-8859-1"?>
<!-- Generator: Adobe Illustrator 19.0.0, SVG Export Plug-In . SVG Version: 6.00 Build 0)  -->
<svg version="1.1" id="Capa_1" xmlns="http://www.w3.org/2000/svg" xmlns:xlink="http://www.w3.org/1999/xlink" x="0px" y="0px"
	 viewBox="0 0 470 470" style="enable-background:new 0 0 470 470;" xml:space="preserve">
<g>
	<path style="fill:#FFFFFF;" d="M235,300.237c96.181,0,174.872-76.259,178.819-171.487h-10.001
		c-1.643,36.631-15.271,72.002-38.797,100.325c-1.483,1.786-3.621,2.708-5.773,2.708c-1.689,0-3.388-0.567-4.788-1.73
		c-0.044-0.037-0.083-0.078-0.126-0.116c-3.381,3.709-6.932,7.26-10.641,10.642c0.038,0.043,0.079,0.081,0.116,0.126
		c2.646,3.187,2.209,7.915-0.977,10.563c-30.252,25.131-68.547,38.971-107.831,38.971c-90.666,0-164.873-71.775-168.812-161.487
		H56.181C60.128,223.979,138.819,300.237,235,300.237z"/>
	<path style="fill:#A3E175;" d="M354.333,229.937c-3.066-2.666-3.46-7.303-0.851-10.445c21.293-25.636,33.683-57.606,35.314-90.741
		H81.198C85.123,210.189,152.605,275.237,235,275.237c35.79,0,70.682-12.61,98.245-35.509c3.144-2.612,7.781-2.216,10.447,0.85
		C347.401,237.197,350.952,233.646,354.333,229.937z M134.483,179.982c-1.465,1.464-3.385,2.196-5.304,2.196
		s-3.839-0.732-5.304-2.196l-5.512-5.512c-2.929-2.93-2.929-7.678,0-10.607c2.93-2.928,7.678-2.928,10.607,0l5.512,5.512
		C137.412,172.305,137.412,177.053,134.483,179.982z M160.538,157.877c0,4.143-3.357,7.5-7.5,7.5s-7.5-3.357-7.5-7.5v-7.795
		c0-4.143,3.357-7.5,7.5-7.5s7.5,3.357,7.5,7.5V157.877z M196.891,204.293h-7.794c-4.143,0-7.5-3.357-7.5-7.5s3.357-7.5,7.5-7.5
		h7.794c4.143,0,7.5,3.357,7.5,7.5S201.033,204.293,196.891,204.293z M214.612,158.527c-2.929-2.93-2.929-7.678,0-10.607
		c2.93-2.928,7.678-2.928,10.607,0l5.512,5.512c2.929,2.93,2.929,7.678,0,10.607c-1.465,1.464-3.385,2.196-5.304,2.196
		s-3.839-0.732-5.304-2.196L214.612,158.527z M240.303,248.324l-5.512,5.512c-1.465,1.464-3.385,2.196-5.304,2.196
		s-3.839-0.732-5.304-2.196c-2.929-2.93-2.929-7.678,0-10.607l5.512-5.512c2.93-2.928,7.678-2.928,10.607,0
		C243.231,240.646,243.231,245.395,240.303,248.324z M286.391,206.065c0,4.143-3.357,7.5-7.5,7.5s-7.5-3.357-7.5-7.5v-7.795
		c0-4.143,3.357-7.5,7.5-7.5s7.5,3.357,7.5,7.5V206.065z M310.194,185.715l-5.512,5.512c-1.465,1.464-3.385,2.196-5.304,2.196
		s-3.839-0.732-5.304-2.196c-2.929-2.93-2.929-7.678,0-10.607l5.512-5.512c2.93-2.928,7.678-2.928,10.607,0
		C313.123,178.037,313.123,182.785,310.194,185.715z M344.192,143.107c2.929-2.928,7.678-2.929,10.606,0.001l5.511,5.512
		c2.929,2.929,2.929,7.678-0.001,10.606c-1.464,1.464-3.384,2.196-5.303,2.196c-1.92,0-3.839-0.732-5.304-2.197l-5.511-5.512
		C341.263,150.785,341.263,146.036,344.192,143.107z"/>
	<path style="fill:#66CD19;" d="M454.874,128.75h-26.045C424.872,232.251,339.452,315.237,235,315.237S45.128,232.251,41.172,128.75
		H15.126C19.094,246.6,116.201,341.25,235,341.25S450.906,246.6,454.874,128.75z M429.058,162.025c0-4.143,3.357-7.5,7.5-7.5
		s7.5,3.357,7.5,7.5v7.795c0,4.143-3.357,7.5-7.5,7.5s-7.5-3.357-7.5-7.5V162.025z M78.581,255.546
		c-1.464,1.465-3.385,2.197-5.304,2.197s-3.838-0.731-5.303-2.196l-5.512-5.511c-2.93-2.929-2.93-7.678-0.001-10.606
		c2.928-2.93,7.677-2.931,10.606-0.001l5.512,5.511C81.51,247.868,81.51,252.617,78.581,255.546z M370.065,287.305l-5.511,5.512
		c-1.464,1.465-3.385,2.197-5.304,2.197s-3.838-0.731-5.303-2.196c-2.93-2.929-2.93-7.678-0.001-10.606l5.511-5.512
		c2.928-2.93,7.677-2.931,10.606-0.001C372.994,279.627,372.994,284.376,370.065,287.305z"/>
	<path style="fill:#3D2A20;" d="M462.5,113.75H7.5c-4.143,0-7.5,3.357-7.5,7.5c0,62.771,24.444,121.784,68.83,166.17
		S172.229,356.25,235,356.25s121.784-24.444,166.17-68.83S470,184.021,470,121.25C470,117.107,466.643,113.75,462.5,113.75z
		 M15.126,128.75h26.046C45.128,232.251,130.548,315.237,235,315.237s189.872-82.986,193.829-186.487h26.045
		C450.906,246.6,353.799,341.25,235,341.25S19.094,246.6,15.126,128.75z M235,290.237c39.284,0,77.579-13.84,107.831-38.971
		c3.186-2.647,3.623-7.376,0.977-10.563c-0.037-0.044-0.078-0.083-0.116-0.126c-2.666-3.066-7.303-3.461-10.447-0.85
		c-27.563,22.898-62.455,35.509-98.245,35.509c-82.395,0-149.877-65.048-153.802-146.487h307.598
		c-1.631,33.135-14.021,65.106-35.314,90.741c-2.609,3.142-2.215,7.779,0.851,10.445c0.043,0.038,0.082,0.079,0.126,0.116
		c1.4,1.163,3.099,1.73,4.788,1.73c2.152,0,4.29-0.922,5.773-2.708c23.526-28.323,37.155-63.694,38.797-100.325h10.001
		C409.872,223.979,331.181,300.237,235,300.237S60.128,223.979,56.181,128.75h10.007C70.127,218.462,144.334,290.237,235,290.237z"
		/>
	<path style="fill:#FFFFFF;" d="M128.972,163.863c-2.93-2.928-7.678-2.928-10.607,0c-2.929,2.93-2.929,7.678,0,10.607l5.512,5.512
		c1.465,1.464,3.385,2.196,5.304,2.196s3.839-0.732,5.304-2.196c2.929-2.93,2.929-7.678,0-10.607L128.972,163.863z"/>
	<path style="fill:#FFFFFF;" d="M196.891,189.293h-7.794c-4.143,0-7.5,3.357-7.5,7.5s3.357,7.5,7.5,7.5h7.794
		c4.143,0,7.5-3.357,7.5-7.5S201.033,189.293,196.891,189.293z"/>
	<path style="fill:#FFFFFF;" d="M278.891,190.771c-4.143,0-7.5,3.357-7.5,7.5v7.795c0,4.143,3.357,7.5,7.5,7.5s7.5-3.357,7.5-7.5
		v-7.795C286.391,194.128,283.033,190.771,278.891,190.771z"/>
	<path style="fill:#FFFFFF;" d="M229.695,237.717l-5.512,5.512c-2.929,2.93-2.929,7.678,0,10.607
		c1.465,1.464,3.385,2.196,5.304,2.196s3.839-0.732,5.304-2.196l5.512-5.512c2.929-2.93,2.929-7.678,0-10.607
		C237.373,234.789,232.625,234.789,229.695,237.717z"/>
	<path style="fill:#FFFFFF;" d="M230.731,164.039c2.929-2.93,2.929-7.678,0-10.607l-5.512-5.512c-2.93-2.928-7.678-2.928-10.607,0
		c-2.929,2.93-2.929,7.678,0,10.607l5.512,5.512c1.465,1.464,3.385,2.196,5.304,2.196S229.267,165.503,230.731,164.039z"/>
	<path style="fill:#FFFFFF;" d="M359.458,276.699l-5.511,5.512c-2.929,2.929-2.929,7.678,0.001,10.606
		c1.465,1.465,3.384,2.196,5.303,2.196s3.84-0.732,5.304-2.197l5.511-5.512c2.929-2.929,2.929-7.678-0.001-10.606
		C367.135,273.769,362.386,273.77,359.458,276.699z"/>
	<path style="fill:#FFFFFF;" d="M153.038,142.582c-4.143,0-7.5,3.357-7.5,7.5v7.795c0,4.143,3.357,7.5,7.5,7.5s7.5-3.357,7.5-7.5
		v-7.795C160.538,145.939,157.181,142.582,153.038,142.582z"/>
	<path style="fill:#FFFFFF;" d="M73.068,239.429c-2.93-2.93-7.679-2.929-10.606,0.001c-2.929,2.929-2.929,7.678,0.001,10.606
		l5.512,5.511c1.465,1.465,3.384,2.196,5.303,2.196s3.84-0.732,5.304-2.197c2.929-2.929,2.929-7.678-0.001-10.606L73.068,239.429z"
		/>
	<path style="fill:#FFFFFF;" d="M299.587,175.107l-5.512,5.512c-2.929,2.93-2.929,7.678,0,10.607
		c1.465,1.464,3.385,2.196,5.304,2.196s3.839-0.732,5.304-2.196l5.512-5.512c2.929-2.93,2.929-7.678,0-10.607
		C307.265,172.18,302.517,172.18,299.587,175.107z"/>
	<path style="fill:#FFFFFF;" d="M355.006,161.423c1.919,0,3.839-0.732,5.303-2.196c2.93-2.929,2.93-7.678,0.001-10.606l-5.511-5.512
		c-2.929-2.93-7.678-2.929-10.606-0.001c-2.93,2.929-2.93,7.678-0.001,10.606l5.511,5.512
		C351.167,160.69,353.086,161.423,355.006,161.423z"/>
	<path style="fill:#FFFFFF;" d="M436.558,177.32c4.143,0,7.5-3.357,7.5-7.5v-7.795c0-4.143-3.357-7.5-7.5-7.5s-7.5,3.357-7.5,7.5
		v7.795C429.058,173.963,432.415,177.32,436.558,177.32z"/>
</g>
<g>
</g>
<g>
</g>
<g>
</g>
<g>
</g>
<g>
</g>
<g>
</g>
<g>
</g>
<g>
</g>
<g>
</g>
<g>
</g>
<g>
</g>
<g>
</g>
<g>
</g>
<g>
</g>
<g>
</g>
</svg>
