<?xml version="1.0" encoding="iso-8859-1"?>
<!-- Generator: Adobe Illustrator 19.0.0, SVG Export Plug-In . SVG Version: 6.00 Build 0)  -->
<svg version="1.1" id="Layer_1" xmlns="http://www.w3.org/2000/svg" xmlns:xlink="http://www.w3.org/1999/xlink" x="0px" y="0px"
	 viewBox="0 0 512 512" style="enable-background:new 0 0 512 512;" xml:space="preserve">
<path style="fill:#B7364A;" d="M482.319,223.024c34.771-54.17,28.475-127.065-18.9-174.439
	c-47.379-47.377-120.27-53.67-174.435-18.9l-7.376-7.376c-6.541-6.537-17.143-6.539-23.687,0.002l-18.646,18.645
	c-6.54,6.543-6.541,17.144,0,23.686l7.37,7.37c-34.782,54.171-28.492,127.076,18.89,174.453
	c47.383,47.384,120.284,53.674,174.455,18.892l7.371,7.372c6.539,6.539,17.142,6.541,23.687,0l18.644-18.645
	c6.539-6.544,6.541-17.148,0-23.687L482.319,223.024z"/>
<path style="fill:#F6E088;" d="M265.535,246.465c-4.192-4.191-8.058-8.592-11.61-13.153L10.759,476.479l24.765,24.766
	L278.69,258.076C274.127,254.526,269.727,250.662,265.535,246.465z"/>
<g>
	<path style="fill:#491E17;" d="M479.217,170.959c2.378-11.68,2.974-23.588,1.773-35.396c-2.757-27.071-14.407-51.573-33.69-70.857
		L436.543,75.46c16.78,16.781,26.916,38.095,29.312,61.643c1.047,10.278,0.527,20.647-1.544,30.821L479.217,170.959z"/>
	<path style="fill:#491E17;" d="M491.934,221.882c15.633-26.8,22.475-58.303,19.308-89.395c-3.426-33.628-18.5-65.334-42.445-89.279
		C440.934,15.345,403.887,0,364.485,0c-26.285,0-51.862,6.92-74.361,20.069l-3.14-3.14c-4.6-4.598-10.715-7.129-17.219-7.129
		c-6.505,0-12.62,2.532-17.222,7.132l-18.648,18.647c-8.306,8.309-9.343,21.177-3.113,30.624c0.889,1.35,1.928,2.63,3.114,3.817
		l3.132,3.132c-15.638,26.802-22.484,58.308-19.318,89.403c2.569,25.238,11.7,49.394,26.216,69.998L0.002,476.479L35.524,512
		l243.893-243.894c24.709,17.508,54.156,26.946,85.055,26.946c26.292,0,51.874-6.924,74.379-20.078l3.133,3.133
		c0.591,0.59,1.207,1.146,1.846,1.668c0.001,0.001,0.003,0.002,0.005,0.004c4.331,3.536,9.702,5.461,15.369,5.461
		c0,0,0.001,0,0.002,0c5.667,0,11.04-1.925,15.372-5.464c0.001-0.001,0.001-0.001,0.002-0.001c0.639-0.522,1.255-1.078,1.847-1.669
		l18.646-18.646c9.492-9.5,9.491-24.951-0.002-34.442L491.934,221.882z M364.485,15.212c35.341,0,68.565,13.763,93.557,38.752
		c21.475,21.475,34.994,49.909,38.066,80.063c2.705,26.554-2.728,53.431-15.347,76.681L301.289,31.236
		C320.598,20.728,342.256,15.212,364.485,15.212z M267.396,258.615L35.524,490.488l-14.009-14.009l231.875-231.874
		c0.05,0.058,0.103,0.112,0.153,0.169c0.938,1.071,1.895,2.125,2.865,3.168c0.227,0.244,0.454,0.487,0.682,0.728
		c1.007,1.071,2.025,2.132,3.067,3.173c1.068,1.068,2.154,2.11,3.248,3.142c0.254,0.238,0.509,0.475,0.765,0.711
		c0.988,0.917,1.985,1.82,2.993,2.707C267.241,258.472,267.317,258.545,267.396,258.615z M484.313,248.706l-18.641,18.643
		c-0.222,0.222-0.452,0.429-0.691,0.623c-0.022,0.018-0.045,0.032-0.066,0.05c-3.316,2.653-8.059,2.662-11.382,0.027
		c-0.033-0.026-0.07-0.05-0.104-0.077c-0.237-0.194-0.467-0.402-0.689-0.622L303.154,117.764l-10.757,10.757l135.288,135.287
		c-19.314,10.513-40.979,16.032-63.214,16.032c-29.389,0-57.312-9.526-80.256-27.103l-0.856-0.665
		c-2.11-1.642-4.171-3.353-6.177-5.114c-0.172-0.15-0.344-0.303-0.515-0.454c-0.774-0.688-1.536-1.384-2.292-2.088
		c-0.245-0.228-0.492-0.453-0.736-0.685c-0.924-0.871-1.837-1.752-2.728-2.645c-0.861-0.861-1.709-1.741-2.551-2.631
		c-0.231-0.245-0.46-0.491-0.691-0.738c-0.688-0.737-1.367-1.485-2.039-2.239c-0.167-0.189-0.339-0.373-0.504-0.563
		c-0.726-0.824-1.437-1.662-2.143-2.505c-0.396-0.474-0.786-0.949-1.174-1.427c-0.269-0.33-0.533-0.662-0.799-0.994
		c-15.722-19.748-25.6-43.758-28.167-68.976c-2.704-26.558,2.733-53.436,15.357-76.69l29.854,29.854l10.758-10.757l-44.159-44.157
		c-3.564-3.565-3.564-9.365,0-12.93l18.646-18.645c0.222-0.222,0.451-0.429,0.69-0.623c0.027-0.021,0.058-0.041,0.084-0.062
		c3.101-2.47,7.446-2.638,10.711-0.494c0.004,0.004,0.01,0.006,0.014,0.009c0.221,0.145,0.435,0.307,0.645,0.474
		c0.032,0.025,0.067,0.048,0.099,0.073c0.236,0.194,0.467,0.402,0.689,0.622l196.381,196.383l0,0l11.704,11.704
		C487.878,239.339,487.876,245.139,484.313,248.706z"/>
</g>
<g>
</g>
<g>
</g>
<g>
</g>
<g>
</g>
<g>
</g>
<g>
</g>
<g>
</g>
<g>
</g>
<g>
</g>
<g>
</g>
<g>
</g>
<g>
</g>
<g>
</g>
<g>
</g>
<g>
</g>
</svg>
