<?xml version="1.0" encoding="iso-8859-1"?>
<!-- Generator: Adobe Illustrator 19.0.0, SVG Export Plug-In . SVG Version: 6.00 Build 0)  -->
<svg version="1.1" id="Capa_1" xmlns="http://www.w3.org/2000/svg" xmlns:xlink="http://www.w3.org/1999/xlink" x="0px" y="0px"
	 viewBox="0 0 470 470" style="enable-background:new 0 0 470 470;" xml:space="preserve">
<g>
	<path style="fill:#FFFFFF;" d="M227.144,256.439c-2.39-2.13-4.731-4.318-6.999-6.586c-2.268-2.268-4.456-4.608-6.585-6.998
		L17.814,438.603C16,440.416,15,442.828,15,445.395c0,2.565,0.999,4.978,2.813,6.791c1.814,1.815,4.227,2.814,6.792,2.814
		c2.566,0,4.978-0.999,6.792-2.813L227.144,256.439z"/>
	<path style="fill:#FFCB59;" d="M289.558,107.776c1.582-3.828,5.969-5.646,9.796-4.066c15.827,6.542,29.252,14.534,42.236,22.263
		c28.998,17.261,56.448,33.594,109.926,35.236c2.299-9.243,3.484-18.83,3.484-28.6c0-31.415-12.233-60.949-34.447-83.162
		C398.339,27.232,368.805,15,337.391,15c-31.415,0-60.949,12.232-83.162,34.446c-11.47,11.47-20.161,24.903-25.955,39.347
		c14.817,0.655,28.424,2.42,41.296,5.394c4.036,0.933,6.552,4.96,5.62,8.996c-0.012,0.053-0.036,0.099-0.049,0.151
		c5.039,1.382,9.813,2.92,14.365,4.589C289.525,107.875,289.538,107.825,289.558,107.776z M264.836,70.659
		c-2.929-2.93-2.929-7.678,0-10.607C284.216,40.673,309.983,30,337.391,30c27.407,0,53.175,10.673,72.555,30.052
		c2.929,2.929,2.929,7.678,0,10.606c-1.464,1.465-3.384,2.197-5.303,2.197s-3.839-0.732-5.303-2.196
		C382.792,54.112,360.792,45,337.391,45c-23.401,0-45.402,9.112-61.949,25.659C272.514,73.587,267.765,73.587,264.836,70.659z"/>
	<path style="fill:#03E6FF;" d="M446.749,176.032c-54.613-2.529-84.187-20.12-112.831-37.17
		c-13.1-7.798-25.474-15.164-40.293-21.289c-3.779-1.563-5.596-5.856-4.119-9.649c-4.552-1.669-9.326-3.208-14.365-4.589
		c-0.857,3.381-3.89,5.662-7.252,5.662c-0.559,0-1.127-0.063-1.695-0.194c-13.165-3.041-27.212-4.741-42.763-5.187
		c-6.687,26.291-4.282,54.727,8.089,80.268c1.392,2.874,0.812,6.314-1.447,8.573l-20.398,20.397
		c5.999,9.529,13.07,18.387,21.077,26.393c8.005,8.006,16.863,15.078,26.393,21.078l20.399-20.399
		c2.258-2.258,5.7-2.838,8.573-1.446c15.843,7.674,33.578,11.731,51.286,11.732c31.414,0,60.94-12.231,83.15-34.442
		C432.08,204.243,440.912,190.741,446.749,176.032z M263.4,232.815c-1.483,1.77-3.61,2.682-5.751,2.682
		c-1.7,0-3.41-0.575-4.814-1.752c-3.035-2.544-5.948-5.209-8.659-7.92c-2.709-2.71-5.374-5.623-7.92-8.66
		c-2.661-3.175-2.245-7.905,0.929-10.565c3.176-2.661,7.906-2.244,10.566,0.929c2.266,2.702,4.631,5.29,7.031,7.689
		c2.402,2.402,4.989,4.769,7.689,7.031C265.645,224.91,266.061,229.641,263.4,232.815z M409.946,205.164
		c-19.378,19.377-45.139,30.048-72.537,30.048c-4.142,0-7.5-3.357-7.5-7.5s3.358-7.5,7.5-7.5c23.392,0,45.386-9.111,61.931-25.655
		c2.929-2.929,7.678-2.928,10.606,0.001C412.875,197.486,412.875,202.235,409.946,205.164z"/>
	<path style="fill:#3D2A20;" d="M262.471,222.249c-2.7-2.263-5.287-4.629-7.689-7.031c-2.4-2.399-4.766-4.987-7.031-7.689
		c-2.66-3.173-7.39-3.59-10.566-0.929c-3.174,2.66-3.59,7.391-0.929,10.565c2.546,3.037,5.211,5.95,7.92,8.66
		c2.711,2.711,5.625,5.376,8.659,7.92c1.405,1.177,3.114,1.752,4.814,1.752c2.142,0,4.268-0.912,5.751-2.682
		C266.061,229.641,265.645,224.91,262.471,222.249z"/>
	<path style="fill:#3D2A20;" d="M431.159,38.839C406.113,13.793,372.812,0,337.391,0c-35.421,0-68.722,13.793-93.769,38.839
		c-15.499,15.499-26.518,34.173-32.773,54.187c-0.211,0.488-0.367,1.005-0.471,1.541c-8.815,29.456-7.349,61.701,5.397,90.975
		l-20.857,20.856c-2.4,2.4-2.889,6.114-1.192,9.054c3.134,5.427,6.594,10.66,10.325,15.7L7.208,427.995
		C2.56,432.643,0,438.821,0,445.394c0,6.573,2.559,12.752,7.206,17.398C11.854,467.44,18.033,470,24.605,470
		c6.573,0,12.752-2.56,17.399-7.207l196.844-196.845c5.039,3.731,10.272,7.191,15.698,10.325c1.171,0.676,2.464,1.005,3.749,1.005
		c1.941,0,3.861-0.752,5.306-2.196l20.861-20.861c16.591,7.202,34.779,10.99,52.939,10.991
		c35.419-0.002,68.716-13.793,93.758-38.835C456.206,201.33,470,168.029,470,132.608S456.206,63.886,431.159,38.839z
		 M337.402,250.212c-17.708-0.001-35.443-4.059-51.286-11.732c-2.873-1.392-6.314-0.812-8.573,1.446l-20.399,20.399
		c-9.53-6-18.388-13.072-26.393-21.078c-8.006-8.006-15.078-16.863-21.077-26.393l20.398-20.397
		c2.258-2.259,2.839-5.699,1.447-8.573c-12.371-25.541-14.776-53.978-8.089-80.268c15.551,0.446,29.598,2.146,42.763,5.187
		c0.568,0.131,1.136,0.194,1.695,0.194c3.361,0,6.395-2.281,7.252-5.662c0.013-0.052,0.037-0.099,0.049-0.151
		c0.932-4.036-1.583-8.063-5.62-8.996c-12.872-2.974-26.479-4.739-41.296-5.394c5.793-14.444,14.485-27.878,25.955-39.347
		C276.442,27.232,305.977,15,337.391,15c31.414,0,60.948,12.232,83.162,34.446C442.766,71.659,455,101.193,455,132.608
		c0,9.77-1.185,19.357-3.484,28.6c-53.478-1.642-80.928-17.975-109.926-35.236c-12.984-7.729-26.41-15.721-42.236-22.263
		c-3.827-1.58-8.214,0.238-9.796,4.066c-0.02,0.049-0.033,0.099-0.052,0.148c-1.477,3.793,0.34,8.086,4.119,9.649
		c14.82,6.125,27.193,13.491,40.293,21.289c28.644,17.05,58.218,34.641,112.831,37.17c-5.837,14.709-14.669,28.211-26.196,39.738
		C398.342,237.98,368.816,250.212,337.402,250.212z M17.813,452.186C16,450.372,15,447.96,15,445.395
		c0-2.566,0.999-4.979,2.813-6.792L213.56,242.856c2.129,2.389,4.317,4.73,6.585,6.998c2.268,2.268,4.609,4.456,6.999,6.586
		L31.397,452.187c-1.814,1.814-4.226,2.813-6.792,2.813C22.04,455,19.628,454.001,17.813,452.186z"/>
	<path style="fill:#FFFFFF;" d="M399.34,194.557c-16.545,16.544-38.539,25.655-61.931,25.655c-4.142,0-7.5,3.357-7.5,7.5
		s3.358,7.5,7.5,7.5c27.398,0,53.159-10.671,72.537-30.048c2.929-2.929,2.929-7.678,0-10.606
		C407.018,191.629,402.269,191.628,399.34,194.557z"/>
	<path style="fill:#FFFFFF;" d="M337.391,45c23.401,0,45.401,9.112,61.949,25.659c1.464,1.464,3.384,2.196,5.303,2.196
		s3.839-0.732,5.303-2.197c2.929-2.929,2.929-7.678,0-10.606C390.566,40.673,364.798,30,337.391,30
		c-27.408,0-53.175,10.673-72.555,30.052c-2.929,2.93-2.929,7.678,0,10.607c2.929,2.928,7.678,2.928,10.606,0
		C291.989,54.112,313.99,45,337.391,45z"/>
</g>
<g>
</g>
<g>
</g>
<g>
</g>
<g>
</g>
<g>
</g>
<g>
</g>
<g>
</g>
<g>
</g>
<g>
</g>
<g>
</g>
<g>
</g>
<g>
</g>
<g>
</g>
<g>
</g>
<g>
</g>
</svg>
