<?xml version="1.0" encoding="iso-8859-1"?>
<!-- Generator: Adobe Illustrator 19.0.0, SVG Export Plug-In . SVG Version: 6.00 Build 0)  -->
<svg version="1.1" id="Capa_1" xmlns="http://www.w3.org/2000/svg" xmlns:xlink="http://www.w3.org/1999/xlink" x="0px" y="0px"
	 viewBox="0 0 469.989 469.989" style="enable-background:new 0 0 469.989 469.989;" xml:space="preserve">
<g>
	<path style="fill:#E0DCD7;" d="M149.353,325.087l-7.72-7.72L16.6,442.4c-1.032,1.031-1.6,2.402-1.6,3.86
		c0,1.458,0.567,2.83,1.599,3.86c1.032,1.032,2.402,1.6,3.861,1.6c1.458,0,2.828-0.568,3.859-1.599L149.353,325.087z"/>
	<path style="fill:#FFCB59;" d="M198.733,342.461c4.875,0,9.544-1.334,13.596-3.821c-0.674-0.273-1.344-0.562-2.008-0.872
		l-50.731-23.656l20.715,20.716C185.228,339.75,191.772,342.461,198.733,342.461z"/>
	<path style="fill:#FFEABD;" d="M241.825,278.681l-68.71-32.326c-0.003-0.001-18.322-8.544-18.322-8.544
		c-3.485-1.625-7.185-2.45-10.992-2.45c-10.098,0-19.378,5.91-23.642,15.055c-2.942,6.31-3.252,13.387-0.871,19.928
		s7.167,11.765,13.477,14.707l83.897,39.122c3.485,1.625,7.184,2.45,10.992,2.45c10.097,0,19.377-5.91,23.643-15.056
		C256.799,299.768,252.72,285.703,241.825,278.681z M181.037,275.073c-1.274,2.724-3.977,4.323-6.798,4.323
		c-1.064,0-2.146-0.228-3.174-0.709l-29.003-13.571c-3.752-1.755-5.37-6.22-3.614-9.972c1.755-3.751,6.217-5.37,9.972-3.614
		l29.003,13.571C181.175,266.857,182.793,271.321,181.037,275.073z"/>
	<path style="fill:#FFFFFF;" d="M177.423,265.102L148.42,251.53c-3.755-1.755-8.217-0.137-9.972,3.614
		c-1.756,3.752-0.138,8.216,3.614,9.972l29.003,13.571c1.028,0.481,2.109,0.709,3.174,0.709c2.821,0,5.523-1.6,6.798-4.323
		C182.793,271.321,181.175,266.857,177.423,265.102z"/>
	<path style="fill:#E7453F;" d="M292.135,228.366l-68.706-32.324c-0.003-0.001-18.322-8.544-18.322-8.544
		c-3.485-1.625-7.185-2.45-10.992-2.45c-10.098,0-19.378,5.91-23.642,15.055c-5.503,11.799-1.424,25.865,9.471,32.887l68.71,32.326
		c0.003,0.001,18.322,8.544,18.322,8.544c3.485,1.625,7.184,2.45,10.992,2.45c10.097,0,19.377-5.91,23.643-15.056
		C307.113,249.454,303.033,235.388,292.135,228.366z M231.353,224.755c-1.274,2.725-3.978,4.325-6.799,4.325
		c-1.064,0-2.145-0.228-3.172-0.708l-29.022-13.571c-3.752-1.754-5.372-6.219-3.617-9.971c1.755-3.752,6.221-5.371,9.971-3.617
		l29.022,13.571C231.487,216.539,233.107,221.003,231.353,224.755z"/>
	<path style="fill:#FFFFFF;" d="M227.735,214.785l-29.022-13.571c-3.75-1.753-8.216-0.135-9.971,3.617
		c-1.755,3.752-0.135,8.216,3.617,9.971l29.022,13.571c1.027,0.48,2.107,0.708,3.172,0.708c2.821,0,5.524-1.601,6.799-4.325
		C233.107,221.003,231.487,216.539,227.735,214.785z"/>
	<path style="fill:#03E6FF;" d="M342.398,178.018l-68.656-32.29c-0.003-0.001-18.322-8.544-18.322-8.544
		c-3.486-1.625-7.185-2.45-10.992-2.45c-10.098,0-19.378,5.91-23.643,15.055c-5.502,11.799-1.423,25.864,9.473,32.888l68.709,32.326
		c0.003,0.001,18.322,8.544,18.322,8.544c3.485,1.625,7.184,2.45,10.992,2.45c10.097,0,19.377-5.91,23.643-15.056
		C357.435,199.122,353.334,185.029,342.398,178.018z M281.662,174.447c-1.274,2.724-3.977,4.324-6.798,4.324
		c-1.064,0-2.146-0.228-3.174-0.708l-29.018-13.576c-3.751-1.755-5.37-6.22-3.614-9.972c1.755-3.751,6.217-5.371,9.972-3.615
		l29.018,13.576C281.799,166.231,283.418,170.695,281.662,174.447z"/>
	<path style="fill:#FFFFFF;" d="M278.048,164.475l-29.018-13.576c-3.755-1.756-8.217-0.136-9.972,3.615
		c-1.756,3.752-0.137,8.216,3.614,9.972l29.018,13.576c1.028,0.481,2.109,0.708,3.174,0.708c2.821,0,5.523-1.6,6.798-4.324
		C283.418,170.695,281.799,166.231,278.048,164.475z"/>
	<path style="fill:#A3E175;" d="M392.711,127.705l-68.656-32.291c-0.003-0.001-18.321-8.543-18.321-8.543
		c-3.485-1.625-7.185-2.45-10.992-2.45c-10.098,0-19.378,5.91-23.642,15.055c-5.503,11.799-1.424,25.864,9.471,32.887l71.207,33.49
		l15.825,7.379c3.485,1.625,7.184,2.45,10.992,2.45c10.098,0,19.377-5.91,23.643-15.056
		C407.749,148.808,403.647,134.715,392.711,127.705z M331.942,124.172c-1.276,2.719-3.977,4.314-6.794,4.314
		c-1.068,0-2.152-0.229-3.183-0.713l-28.972-13.602c-3.749-1.76-5.362-6.227-3.602-9.977c1.761-3.749,6.23-5.36,9.977-3.602
		l28.972,13.602C332.09,115.956,333.703,120.423,331.942,124.172z"/>
	<path style="fill:#FFFFFF;" d="M328.341,114.196l-28.972-13.602c-3.746-1.759-8.216-0.147-9.977,3.602
		c-1.761,3.75-0.147,8.216,3.602,9.977l28.972,13.602c1.03,0.484,2.114,0.713,3.183,0.713c2.817,0,5.518-1.596,6.794-4.314
		C333.703,120.423,332.09,115.956,328.341,114.196z"/>
	<path style="fill:#FFCB59;" d="M439.944,75.679l-83.897-39.122c-3.486-1.626-7.185-2.45-10.992-2.45
		c-10.098,0-19.378,5.91-23.642,15.056c-5.502,11.799-1.424,25.864,9.471,32.887l71.207,33.491l15.825,7.379
		c3.485,1.625,7.184,2.45,10.992,2.45c10.097,0,19.377-5.91,23.643-15.056C458.623,97.289,452.968,81.753,439.944,75.679z
		 M382.324,73.78c-1.272,2.729-3.978,4.333-6.803,4.333c-1.062,0-2.139-0.227-3.164-0.705L343.296,63.86
		c-3.754-1.75-5.379-6.212-3.629-9.966c1.751-3.754,6.213-5.378,9.967-3.628l29.062,13.549
		C382.449,65.564,384.074,70.026,382.324,73.78z"/>
	<path style="fill:#FFFFFF;" d="M378.695,63.814l-29.062-13.549c-3.754-1.75-8.216-0.126-9.967,3.628
		c-1.75,3.754-0.125,8.216,3.629,9.966l29.062,13.549c1.025,0.478,2.103,0.705,3.164,0.705c2.825,0,5.53-1.604,6.803-4.333
		C384.074,70.026,382.449,65.564,378.695,63.814z"/>
	<path style="fill:#FFEABD;" d="M362.387,22.962l50.732,23.657l-20.716-20.717c-4.922-4.922-11.467-7.633-18.428-7.633
		c-4.875,0-9.544,1.334-13.596,3.821C361.053,22.363,361.723,22.653,362.387,22.962z"/>
	<path style="fill:#3D2A20;" d="M458.053,70.351c-0.031-0.032-0.057-0.066-0.088-0.098l-54.954-54.957
		C395.255,7.541,384.943,3.27,373.976,3.27c-10.969,0-21.28,4.271-29.036,12.027c-1.252,1.252-2.414,2.592-3.492,3.988
		c-14.474,1.288-27.423,10.229-33.629,23.538c-4.221,9.05-4.863,18.95-2.431,28.004c-3.458-0.936-7.02-1.407-10.646-1.407
		c-15.901,0-30.52,9.31-37.236,23.716c-4.221,9.051-4.864,18.95-2.431,28.004c-3.458-0.936-7.02-1.407-10.646-1.407
		c-15.903,0-30.519,9.309-37.236,23.716c-4.221,9.05-4.863,18.95-2.431,28.004c-3.458-0.936-7.02-1.407-10.646-1.407
		c-15.902,0-30.519,9.309-37.236,23.716c-4.221,9.051-4.864,18.95-2.431,28.004c-3.458-0.936-7.02-1.407-10.646-1.407
		c-15.902,0-30.519,9.309-37.236,23.716c-4.636,9.94-5.123,21.091-1.371,31.398c2.166,5.952,5.603,11.205,10.029,15.479
		l15.804,15.805L5.993,431.793C2.128,435.657,0,440.795,0,446.26c0,5.465,2.128,10.604,5.992,14.467
		c3.864,3.864,9.002,5.993,14.468,5.993c5.465,0,10.603-2.128,14.467-5.993l125.032-125.033l9.739,9.74
		c7.756,7.756,18.067,12.027,29.035,12.027s21.279-4.271,29.036-12.027c1.253-1.253,2.413-2.592,3.491-3.989
		c14.473-1.288,27.424-10.229,33.63-23.539c4.221-9.05,4.864-18.95,2.431-28.004c3.458,0.936,7.019,1.407,10.646,1.407
		c15.901,0,30.519-9.309,37.236-23.716c4.221-9.051,4.863-18.95,2.431-28.004c3.458,0.936,7.019,1.407,10.646,1.407
		c15.901,0,30.519-9.309,37.236-23.716c4.221-9.051,4.864-18.95,2.431-28.004c3.458,0.935,7.019,1.407,10.646,1.407
		c15.902,0,30.52-9.31,37.237-23.717c4.221-9.05,4.864-18.95,2.431-28.004c3.458,0.936,7.019,1.407,10.646,1.407
		c15.901,0,30.519-9.309,37.237-23.717C473.611,100.64,469.825,82.219,458.053,70.351z M428.908,125.369
		c-3.809,0-7.507-0.824-10.992-2.45l-15.825-7.379L330.884,82.05c-10.895-7.023-14.973-21.088-9.471-32.887
		c4.264-9.146,13.544-15.056,23.642-15.056c3.808,0,7.506,0.825,10.992,2.45l83.897,39.122c13.023,6.073,18.679,21.61,12.606,34.634
		C448.285,119.46,439.005,125.369,428.908,125.369z M378.597,175.683c-3.811,0-7.509-0.824-10.994-2.45l-15.825-7.379l-71.207-33.49
		c-10.895-7.023-14.974-21.088-9.471-32.887c4.264-9.146,13.544-15.055,23.642-15.055c3.808,0,7.507,0.824,10.992,2.45l18.318,8.542
		c0.003,0.001,68.659,32.292,68.659,32.292c10.937,7.011,15.038,21.104,9.526,32.922
		C397.972,169.773,388.692,175.683,378.597,175.683z M328.281,225.996c-3.809,0-7.507-0.824-10.992-2.45l-18.319-8.542
		c-0.003-0.001-68.712-32.327-68.712-32.327c-10.896-7.024-14.975-21.089-9.473-32.888c4.265-9.146,13.545-15.055,23.643-15.055
		c3.808,0,7.506,0.824,10.992,2.45l18.319,8.542c0.002,0.001,68.658,32.292,68.658,32.292c10.937,7.011,15.037,21.104,9.526,32.922
		C347.658,220.087,338.378,225.996,328.281,225.996z M277.968,276.31c-3.809,0-7.507-0.824-10.992-2.45l-18.319-8.542
		c-0.003-0.001-68.712-32.327-68.712-32.327c-10.896-7.023-14.974-21.088-9.471-32.887c4.264-9.146,13.544-15.055,23.642-15.055
		c3.808,0,7.507,0.824,10.992,2.45l18.319,8.542c0.003,0.001,68.709,32.326,68.709,32.326c10.898,7.023,14.978,21.089,9.476,32.888
		C297.345,270.4,288.064,276.31,277.968,276.31z M251.297,311.567c-4.266,9.146-13.546,15.056-23.643,15.056
		c-3.809,0-7.507-0.824-10.992-2.45l-83.897-39.122c-6.31-2.942-11.096-8.165-13.477-14.707s-2.071-13.619,0.871-19.928
		c4.264-9.146,13.544-15.055,23.642-15.055c3.808,0,7.507,0.824,10.992,2.45l18.319,8.542c0.002,0.001,68.712,32.327,68.712,32.327
		C252.72,285.703,256.799,299.768,251.297,311.567z M16.599,450.12c-1.031-1.031-1.599-2.402-1.599-3.86
		c0-1.458,0.567-2.829,1.6-3.86l125.033-125.033l7.72,7.72L24.319,450.121c-1.031,1.031-2.401,1.599-3.859,1.599
		C19.001,451.72,17.631,451.152,16.599,450.12z M159.591,314.112l50.731,23.656c0.664,0.31,1.334,0.599,2.008,0.872
		c-4.053,2.487-8.721,3.821-13.596,3.821c-6.961,0-13.506-2.711-18.428-7.633L159.591,314.112z M392.403,25.902l20.716,20.717
		l-50.732-23.657c-0.664-0.31-1.334-0.599-2.008-0.872c4.052-2.487,8.721-3.821,13.596-3.821
		C380.937,18.27,387.481,20.98,392.403,25.902z"/>
</g>
<g>
</g>
<g>
</g>
<g>
</g>
<g>
</g>
<g>
</g>
<g>
</g>
<g>
</g>
<g>
</g>
<g>
</g>
<g>
</g>
<g>
</g>
<g>
</g>
<g>
</g>
<g>
</g>
<g>
</g>
</svg>
