<?xml version="1.0" encoding="iso-8859-1"?>
<!-- Generator: Adobe Illustrator 19.0.0, SVG Export Plug-In . SVG Version: 6.00 Build 0)  -->
<svg version="1.1" id="Capa_1" xmlns="http://www.w3.org/2000/svg" xmlns:xlink="http://www.w3.org/1999/xlink" x="0px" y="0px"
	 viewBox="0 0 469.926 469.926" style="enable-background:new 0 0 469.926 469.926;" xml:space="preserve">
<g>
	<path style="fill:#FFFFFF;" d="M419.13,114.83c-16.255,32.119-39.754,60.279-68.577,81.979
		c-27.189,20.47-58.58,34.731-91.848,41.862c62.542,27.979,135.53,25.304,196.166-8.024
		C454.045,187.985,441.014,148.264,419.13,114.83z"/>
	<path style="fill:#FFFFFF;" d="M319.343,322.694c-12.67-6.569-24.674-14.278-35.878-22.998
		c32.451,36.051,76.463,61.069,125.435,69.75c5.044-6.509,9.74-13.301,14.042-20.36
		C386.941,348.319,351.381,339.306,319.343,322.694z"/>
	<path style="fill:#FFFFFF;" d="M273.116,350.553c-20.477-27.197-34.739-58.598-41.868-91.877
		c-14.027,31.207-20.593,65.196-19.079,99.5c0.181,4.093-2.956,7.559-7.027,7.812c0.387,5.006,0.94,9.993,1.655,14.953
		c4.022-0.635,7.843,2.057,8.56,6.09c4.242,23.888,12.286,46.688,23.92,67.842c42.663-0.825,82.384-13.857,115.819-35.741
		C322.977,402.874,294.816,379.375,273.116,350.553z"/>
	<path style="fill:#FFFFFF;" d="M170.23,283.465c-36.051,32.451-61.069,76.463-69.75,125.435
		c6.505,5.041,13.292,9.734,20.346,14.033c0.768-35.997,9.797-71.555,26.406-103.59C153.801,306.673,161.509,294.669,170.23,283.465
		z"/>
	<path style="fill:#FFFFFF;" d="M150.583,147.231c12.67,6.569,24.674,14.278,35.878,22.998
		c-32.451-36.051-76.463-61.069-125.435-69.75c-5.042,6.506-9.735,13.294-14.035,20.349C83,121.602,118.547,130.621,150.583,147.231
		z"/>
	<path style="fill:#FFFFFF;" d="M119.373,273.116c27.189-20.47,58.58-34.731,91.848-41.862
		c-62.542-27.979-135.53-25.304-196.166,8.024c0.826,42.663,13.857,82.383,35.741,115.817
		C67.051,322.977,90.55,294.816,119.373,273.116z"/>
	<path style="fill:#FFFFFF;" d="M196.81,119.372c20.471,27.189,34.731,58.58,41.862,91.849
		c27.98-62.542,25.305-135.531-8.024-196.167c-42.662,0.826-82.383,13.857-115.817,35.741
		C146.949,67.051,175.109,90.549,196.81,119.372z"/>
	<path style="fill:#FFFFFF;" d="M360.225,96.027c4.026-11.399,7.117-23.153,9.22-35.002c-6.504-5.041-13.291-9.733-20.344-14.032
		c-0.768,35.997-9.797,71.555-26.406,103.59c-6.658,12.84-14.486,24.996-23.351,36.329c20.147-17.996,36.967-39.698,49.446-64.219
		c1.86-3.654,6.303-5.126,9.972-3.334c2.125-4.537,4.099-9.143,5.921-13.81C360.855,104.125,358.86,99.894,360.225,96.027z"/>
	<path style="fill:#E7453F;" d="M205.007,365.999c-0.113,0.005-0.226,0.007-0.337,0.007c-3.99,0-7.31-3.144-7.487-7.169
		c-1.516-34.359,4.555-68.419,17.662-100.008c-50.52,42.247-80.059,105.742-79.05,172.437c26.222,13.301,55.45,21.495,86.37,23.278
		c-10.297-20.435-17.549-42.203-21.578-64.892c-0.724-4.079,1.995-7.972,6.073-8.696c0.042-0.008,0.084-0.009,0.127-0.016
		c-0.714-4.96-1.266-9.947-1.652-14.953C205.092,365.99,205.05,365.997,205.007,365.999z"/>
	<path style="fill:#E7453F;" d="M87.355,397.905c7.565-35.181,23.149-68.371,45.504-96.672
		c13.477-17.061,29.26-32.102,46.817-44.747c-51.957,20.636-95.05,60.688-118.975,112.537
		C68.72,379.422,77.639,389.094,87.355,397.905z"/>
	<path style="fill:#E7453F;" d="M119.323,196.96c31.53-0.281,62.74,5.851,91.777,17.889
		c-42.247-50.522-105.744-80.063-172.441-79.054c-13.301,26.222-21.494,55.448-23.278,86.368
		C47.559,205.969,83.222,197.286,119.323,196.96z"/>
	<path style="fill:#E7453F;" d="M168.693,132.859c17.061,13.477,32.102,29.26,44.747,46.817
		c-20.636-51.957-60.689-95.05-112.537-118.975c-10.4,8.02-20.073,16.938-28.883,26.655
		C107.202,94.92,140.392,110.504,168.693,132.859z"/>
	<path style="fill:#E7453F;" d="M272.966,119.323c0.284,31.499-5.851,62.73-17.892,91.78
		c50.525-42.247,80.067-105.746,79.058-172.444c-26.222-13.301-55.448-21.494-86.368-23.278
		C263.957,47.559,272.64,83.222,272.966,119.323z"/>
	<path style="fill:#E7453F;" d="M382.562,72.013c-2.112,9.813-4.844,19.529-8.192,29.01c-1.088,3.079-3.982,5.004-7.072,5.004
		c-0.829,0-1.672-0.139-2.498-0.43c-0.04-0.014-0.077-0.033-0.117-0.048c-1.822,4.667-3.797,9.273-5.921,13.81
		c0.038,0.018,0.077,0.032,0.114,0.051c3.691,1.879,5.161,6.395,3.283,10.086c-17.103,33.608-41.83,62.264-71.919,83.949
		c51.962-20.635,95.059-60.689,118.986-112.541C401.203,90.5,392.282,80.825,382.562,72.013z"/>
	<path style="fill:#E7453F;" d="M350.603,272.966c-0.698,0.006-1.399,0.009-2.097,0.009c-30.785,0-61.274-6.122-89.678-17.895
		c42.248,50.522,105.749,80.069,172.438,79.052c13.301-26.222,21.495-55.448,23.278-86.369
		C422.367,263.957,386.703,272.64,350.603,272.966z"/>
	<path style="fill:#E7453F;" d="M301.232,337.066c-17.061-13.477-32.102-29.26-44.747-46.816
		c20.636,51.956,60.689,95.049,112.536,118.975c10.4-8.02,20.073-16.938,28.883-26.655
		C362.724,375.006,329.534,359.421,301.232,337.066z"/>
	<path style="fill:#3D2A20;" d="M401.106,68.819C356.728,24.44,297.724,0,234.963,0S113.198,24.44,68.819,68.819
		S0,172.202,0,234.963s24.44,121.765,68.819,166.144s103.383,68.819,166.144,68.819s121.765-24.44,166.144-68.819
		s68.819-103.383,68.819-166.144S445.485,113.198,401.106,68.819z M408.9,369.446c-48.972-8.681-92.984-33.698-125.435-69.75
		c11.204,8.72,23.208,16.429,35.878,22.998c32.038,16.611,67.599,25.625,103.599,26.392
		C418.641,356.145,413.944,362.937,408.9,369.446z M239.277,454.871c-11.635-21.154-19.678-43.954-23.92-67.842
		c-0.717-4.033-4.537-6.725-8.56-6.09c-0.052,0.008-0.094,0.01-0.137,0.017c-4.078,0.725-6.797,4.617-6.073,8.696
		c4.029,22.689,11.281,44.456,21.578,64.892c-30.921-1.783-60.148-9.977-86.37-23.278c-1.009-66.695,28.53-130.19,79.05-172.437
		c-13.107,31.589-19.177,65.648-17.662,100.008c0.178,4.025,3.497,7.169,7.487,7.169c0.111,0,0.224-0.002,0.337-0.007
		c0.043-0.002,0.085-0.01,0.128-0.012c4.079-0.253,7.215-3.719,7.034-7.812c-1.514-34.303,5.052-68.293,19.079-99.5
		c7.129,33.279,21.392,64.68,41.868,91.877c21.7,28.823,49.861,52.322,81.98,68.577C321.661,441.014,281.94,454.046,239.277,454.871
		z M100.48,408.9c8.681-48.972,33.698-92.984,69.75-125.435c-8.72,11.204-16.429,23.208-22.998,35.878
		c-16.609,32.035-25.638,67.594-26.406,103.59C113.772,418.634,106.985,413.941,100.48,408.9z M61.026,100.48
		c48.972,8.681,92.984,33.698,125.435,69.75c-11.204-8.72-23.208-16.429-35.878-22.998c-32.036-16.61-67.583-25.63-103.592-26.403
		C51.291,113.774,55.984,106.986,61.026,100.48z M230.647,15.055c33.329,60.636,36.004,133.625,8.024,196.167
		c-7.131-33.269-21.392-64.66-41.862-91.849c-21.7-28.823-49.861-52.321-81.979-68.576
		C148.264,28.912,187.985,15.881,230.647,15.055z M258.705,238.672c33.268-7.131,64.659-21.392,91.848-41.862
		c28.823-21.7,52.322-49.861,68.577-81.979c21.884,33.434,34.915,73.155,35.741,115.817
		C394.234,263.976,321.246,266.651,258.705,238.672z M334.131,38.66c1.009,66.698-28.533,130.197-79.058,172.444
		c12.041-29.051,18.177-60.282,17.892-91.78c-0.326-36.101-9.009-71.765-25.203-103.941C278.683,17.165,307.91,25.359,334.131,38.66
		z M38.66,135.794c66.697-1.008,130.194,28.532,172.441,79.054c-29.037-12.038-60.247-18.17-91.777-17.889
		c-36.101,0.326-71.765,9.009-103.941,25.203C17.165,191.243,25.359,162.016,38.66,135.794z M211.221,231.254
		c-33.268,7.131-64.659,21.392-91.848,41.862c-28.823,21.7-52.322,49.861-68.577,81.979
		c-21.884-33.434-34.915-73.155-35.741-115.817C75.691,205.949,148.679,203.275,211.221,231.254z M431.266,334.132
		c-66.689,1.017-130.189-28.53-172.438-79.052c28.404,11.772,58.893,17.895,89.678,17.895c0.697,0,1.398-0.003,2.097-0.009
		c36.101-0.326,71.765-9.009,103.941-25.203C452.76,278.683,444.567,307.91,431.266,334.132z M290.24,213.445
		c30.089-21.684,54.815-50.341,71.919-83.949c1.878-3.691,0.408-8.207-3.283-10.086c-0.038-0.019-0.076-0.033-0.114-0.051
		c-3.668-1.792-8.112-0.32-9.972,3.334c-12.479,24.521-29.299,46.223-49.446,64.219c8.865-11.333,16.694-23.489,23.351-36.329
		c16.609-32.035,25.638-67.594,26.406-103.59c7.053,4.299,13.84,8.992,20.344,14.032c-2.103,11.85-5.194,23.603-9.22,35.002
		c-1.365,3.866,0.63,8.098,4.457,9.522c0.04,0.015,0.077,0.034,0.117,0.048c0.826,0.291,1.669,0.43,2.498,0.43
		c3.09,0,5.984-1.925,7.072-5.004c3.349-9.482,6.08-19.197,8.192-29.01c9.72,8.813,18.642,18.488,26.664,28.891
		C385.298,152.755,342.201,192.81,290.24,213.445z M100.904,60.701c51.848,23.925,91.901,67.018,112.537,118.975
		c-12.645-17.556-27.686-33.34-44.747-46.817c-28.302-22.355-61.491-37.939-96.672-45.504
		C80.831,77.639,90.504,68.72,100.904,60.701z M179.676,256.485c-17.556,12.645-33.34,27.686-46.817,44.747
		c-22.355,28.302-37.94,61.491-45.504,96.672c-9.717-8.81-18.635-18.483-26.655-28.883
		C84.626,317.174,127.719,277.121,179.676,256.485z M369.022,409.225c-51.847-23.926-91.9-67.019-112.536-118.975
		c12.645,17.556,27.686,33.339,44.747,46.816c28.302,22.355,61.491,37.939,96.672,45.504
		C389.094,392.287,379.422,401.206,369.022,409.225z"/>
</g>
<g>
</g>
<g>
</g>
<g>
</g>
<g>
</g>
<g>
</g>
<g>
</g>
<g>
</g>
<g>
</g>
<g>
</g>
<g>
</g>
<g>
</g>
<g>
</g>
<g>
</g>
<g>
</g>
<g>
</g>
</svg>
