<?xml version="1.0" encoding="iso-8859-1"?>
<!-- Generator: Adobe Illustrator 19.0.0, SVG Export Plug-In . SVG Version: 6.00 Build 0)  -->
<svg version="1.1" id="Capa_1" xmlns="http://www.w3.org/2000/svg" xmlns:xlink="http://www.w3.org/1999/xlink" x="0px" y="0px"
	 viewBox="0 0 470 470" style="enable-background:new 0 0 470 470;" xml:space="preserve">
<g>
	<path style="fill:#03E6FF;" d="M308.131,421.823c10.611-15.249,16.22-33.163,16.22-51.807c0-39.626-26.336-75.179-64.161-86.84
		h-53.407c-37.826,11.661-64.162,47.214-64.162,86.84c0,18.644,5.609,36.558,16.22,51.806c10.17,14.616,24.945,26.276,41.604,32.835
		c0.578,0.228,1.194,0.343,1.83,0.343c2.801,0,5.08-2.278,5.08-5.079c0-2.102-1.268-3.956-3.231-4.724
		c-31.19-12.199-51.344-41.71-51.344-75.181c0-44.502,36.205-80.707,80.707-80.707s80.707,36.205,80.707,80.707
		c0,33.472-20.153,62.982-51.343,75.181c-1.963,0.768-3.231,2.622-3.231,4.724c0,2.801,2.278,5.079,5.079,5.079
		c0.636,0,1.252-0.115,1.83-0.343C283.186,448.101,297.961,436.439,308.131,421.823z"/>
	<polygon style="fill:#DDCAF3;" points="267.428,15 280.837,74.809 340.414,74.809 300.186,15 	"/>
	<polygon style="fill:#AB7BE1;" points="281.622,89.809 266.345,243.019 298.595,243.019 344.425,89.809 	"/>
	<polygon style="fill:#AB7BE1;" points="265.465,74.809 252.055,15 217.945,15 204.535,74.809 	"/>
	<path style="fill:#8846CF;" d="M209.444,149.902l9.285,93.116h32.542l15.277-153.21h-63.095l3.015,30.241
		c0.411,4.121-2.596,7.794-6.716,8.207l1.489,14.927C205.368,142.78,209.033,145.781,209.444,149.902z"/>
	<polygon style="fill:#DDCAF3;" points="189.163,74.809 202.572,15 169.814,15 129.586,74.809 	"/>
	<path style="fill:#AB7BE1;" d="M203.655,243.019l-9.136-91.628c-0.411-4.122,2.597-7.796,6.719-8.207
		c0.003,0-1.485-14.927-1.485-14.927c-0.256,0.026-0.507,0.039-0.756,0.039c-3.808,0-7.068-2.888-7.454-6.757l-3.164-31.729h-62.803
		l45.83,153.21H203.655z"/>
	<path style="fill:#03E6FF;" d="M394.411,258.019H75.589c-2.801,0-5.08,2.278-5.08,5.079s2.279,5.079,5.08,5.079h130.115
		c0.043,0,55.5,0,55.5,0c0.036-0.001,0.072,0,0.108,0h133.099c2.801,0,5.08-2.278,5.08-5.079S397.212,258.019,394.411,258.019z"/>
	<path style="fill:#3D2A20;" d="M394.411,243.019h-80.159l47.43-158.561c0.643-2.149,0.29-4.474-0.962-6.335L310.403,3.314
		C309.01,1.242,306.677,0,304.18,0h-46.232c-0.031,0-45.866,0-45.866,0c-0.031,0-46.263,0-46.263,0c-2.497,0-4.83,1.242-6.223,3.314
		L109.28,78.123c-1.252,1.861-1.605,4.186-0.962,6.335l47.43,158.561H75.589c-11.072,0-20.08,9.008-20.08,20.079
		s9.008,20.079,20.08,20.079h97.484c-9.085,6.335-17.212,14.078-23.941,22.939c-14.073,18.532-21.511,40.629-21.511,63.9
		c0,21.722,6.538,42.599,18.907,60.374c12.014,17.265,28.758,30.482,48.422,38.224c2.335,0.92,4.799,1.386,7.324,1.386
		c11.072,0,20.08-9.008,20.08-20.079c0-8.322-5.011-15.659-12.767-18.692c-25.397-9.935-41.808-33.961-41.808-61.212
		c0-36.231,29.476-65.707,65.707-65.707s65.707,29.476,65.707,65.707c0,27.251-16.41,51.278-41.807,61.212
		c-7.756,3.033-12.767,10.37-12.767,18.692c0,11.071,9.007,20.079,20.079,20.079c2.525,0,4.989-0.466,7.324-1.386
		c19.664-7.739,36.408-20.957,48.422-38.224c12.369-17.775,18.907-38.652,18.907-60.374c0-23.271-7.438-45.368-21.511-63.9
		c-6.729-8.862-14.856-16.604-23.941-22.939h100.512c11.072,0,20.08-9.008,20.08-20.079S405.483,243.019,394.411,243.019z
		 M394.411,268.177H75.589c-2.801,0-5.08-2.278-5.08-5.079s2.279-5.079,5.08-5.079h318.821c2.801,0,5.08,2.278,5.08,5.079
		S397.212,268.177,394.411,268.177z M264.698,455c-2.801,0-5.079-2.278-5.079-5.079c0-2.102,1.268-3.956,3.231-4.724
		c31.19-12.198,51.343-41.709,51.343-75.181c0-44.502-36.205-80.707-80.707-80.707s-80.707,36.205-80.707,80.707
		c0,33.471,20.154,62.981,51.344,75.181c1.963,0.768,3.231,2.622,3.231,4.724c0,2.801-2.279,5.079-5.08,5.079
		c-0.636,0-1.251-0.115-1.83-0.343c-16.659-6.559-31.434-18.219-41.604-32.835c-10.611-15.248-16.22-33.162-16.22-51.806
		c0-39.626,26.336-75.179,64.162-86.84h53.407c37.825,11.661,64.161,47.214,64.161,86.84c0,18.644-5.609,36.558-16.22,51.807
		c-10.17,14.616-24.945,26.277-41.604,32.834C265.95,454.885,265.334,455,264.698,455z M252.055,15l13.409,59.809h-60.93L217.945,15
		H252.055z M266.345,243.019l15.277-153.21h62.803l-45.83,153.21H266.345z M280.837,74.809L267.428,15h32.758l40.228,59.809H280.837
		z M202.572,15l-13.409,59.809h-59.577L169.814,15H202.572z M188.378,89.809l3.164,31.729c0.386,3.869,3.646,6.757,7.454,6.757
		c0.249,0,0.5-0.013,0.753-0.038c4.123-0.413,7.13-4.086,6.719-8.207l-3.015-30.241h63.095l-15.277,153.21h-32.542l-9.285-93.116
		c-0.411-4.121-4.077-7.122-8.204-6.719c-4.125,0.411-7.133,4.085-6.722,8.207l9.136,91.628h-32.25l-45.83-153.21H188.378z"/>
</g>
<g>
</g>
<g>
</g>
<g>
</g>
<g>
</g>
<g>
</g>
<g>
</g>
<g>
</g>
<g>
</g>
<g>
</g>
<g>
</g>
<g>
</g>
<g>
</g>
<g>
</g>
<g>
</g>
<g>
</g>
</svg>
