<?xml version="1.0" encoding="iso-8859-1"?>
<!-- Generator: Adobe Illustrator 19.0.0, SVG Export Plug-In . SVG Version: 6.00 Build 0)  -->
<svg version="1.1" id="Layer_1" xmlns="http://www.w3.org/2000/svg" xmlns:xlink="http://www.w3.org/1999/xlink" x="0px" y="0px"
	 viewBox="0 0 512 512" style="enable-background:new 0 0 512 512;" xml:space="preserve">
<path style="fill:#CB5956;" d="M340.426,471.149H327.69l42.535-102.69c1.024-2.473,1.893-4.97,2.632-7.481l-31.234-5.824
	l-68.401,115.994l67.204,32.681h32.681C373.106,485.855,358.4,471.149,340.426,471.149z"/>
<path style="fill:#FF5A52;" d="M307.745,471.149h-12.736l42.535-102.69c1.813-4.377,3.154-8.829,4.078-13.304L256,339.191
	l-116.857,21.787c0.738,2.511,1.607,5.008,2.631,7.481l42.535,102.69h-12.735c-17.974,0-32.681,14.706-32.681,32.681h201.532
	C340.426,485.855,325.719,471.149,307.745,471.149z"/>
<path style="fill:#FFCA62;" d="M256,8.17c-9.024,0-16.34,7.316-16.34,16.34c0,6.888,0,270.754,0,270.754h32.681
	c0,0,0-263.866,0-270.754C272.34,15.486,265.024,8.17,256,8.17z"/>
<path style="fill:#FF6A4F;" d="M330.518,272.595c-14.619-6.056-30.073-7.03-44.405-3.744L333.63,377.91
	c11.535-6.42,17.655-16.932,37.685-16.932h1.543C383.289,325.472,365.482,287.078,330.518,272.595z"/>
<path style="fill:#FF7A4C;" d="M297.837,272.595c-3.862-1.599-7.782-2.838-11.724-3.744c-10.992,2.52-21.324,7.545-30.112,14.715
	c-20.246-16.519-48.685-21.672-74.518-10.972c-34.964,14.482-52.772,52.876-42.339,88.383h1.541
	c28.828,0,28.828,21.787,57.654,21.787s28.827-21.787,57.653-21.787c28.83,0,28.83,21.787,57.661,21.787
	c8.8,0,14.908-2.035,19.976-4.855l3.915-9.451C353.051,331.022,335.274,288.102,297.837,272.595z"/>
<path d="M340.426,462.979h-0.508l37.855-91.393c8.335-20.123,8.336-42.286,0-62.41c-8.335-20.123-24.007-35.794-44.13-44.129
	c-9.971-4.131-20.457-6.225-31.167-6.225c-7.459,0-14.849,1.044-21.966,3.038V24.511C280.511,10.996,269.515,0,256,0
	c-13.515,0-24.511,10.996-24.511,24.511v237.35c-7.117-1.995-14.508-3.038-21.966-3.038c-10.71,0-21.196,2.094-31.167,6.225
	c-20.123,8.334-35.794,24.006-44.13,44.129c-8.336,20.124-8.335,42.287,0,62.41l37.855,91.393h-0.508
	c-22.526,0-40.851,18.325-40.851,40.851c0,4.513,3.657,8.17,8.17,8.17h234.213c4.513,0,8.17-3.657,8.17-8.17
	C381.277,481.304,362.951,462.979,340.426,462.979z M247.83,24.511c0-4.506,3.665-8.17,8.17-8.17s8.17,3.665,8.17,8.17v243.882
	c-2.811,1.491-5.542,3.145-8.17,4.962c-2.629-1.817-5.36-3.471-8.17-4.962V24.511z M149.322,315.43
	c6.665-16.09,19.197-28.621,35.288-35.287c7.978-3.304,16.361-4.979,24.914-4.979c14.995,0,29.665,5.233,41.312,14.735
	c3.007,2.453,7.324,2.453,10.329,0c11.645-9.503,26.317-14.735,41.312-14.735c8.554,0,16.935,1.675,24.914,4.979
	c16.091,6.665,28.622,19.197,35.288,35.287c5,12.07,6.249,25.06,3.747,37.588c-14,1.134-21.865,7.044-28.866,12.336
	c-6.832,5.163-12.23,9.241-23.904,9.241c-11.676,0-17.072-4.079-23.905-9.241c-7.781-5.88-16.601-12.546-33.756-12.546
	c-17.153,0-25.971,6.665-33.752,12.546c-6.831,5.163-12.227,9.241-23.899,9.241c-11.673,0-17.07-4.079-23.901-9.241
	c-7.001-5.292-14.865-11.202-28.864-12.336C143.074,340.489,144.323,327.5,149.322,315.43z M148.464,495.66
	c3.373-9.51,12.459-16.34,23.111-16.34h12.735c2.729,0,5.278-1.363,6.793-3.631c1.516-2.269,1.799-5.145,0.754-7.666l-40.311-97.319
	c5.046,1.647,8.762,4.454,13.04,7.688c7.781,5.88,16.6,12.546,33.754,12.546c17.153,0,25.973-6.665,33.753-12.546
	c6.831-5.164,12.227-9.241,23.898-9.241c11.676,0,17.072,4.079,23.905,9.241c7.781,5.88,16.601,12.546,33.756,12.546
	c17.154,0,25.975-6.665,33.755-12.546c4.279-3.233,7.996-6.041,13.044-7.688l-40.311,97.32c-1.045,2.521-0.761,5.397,0.754,7.666
	c1.516,2.268,4.064,3.631,6.793,3.631h12.735c10.652,0,19.738,6.83,23.111,16.34H148.464V495.66z"/>
<path d="M218.451,338.538c4.655,0,8.443-3.788,8.443-8.443c0-4.655-3.788-8.443-8.443-8.443s-8.443,3.788-8.443,8.443
	C210.008,334.75,213.796,338.538,218.451,338.538z"/>
<path d="M185.77,316.75c4.655,0,8.443-3.788,8.443-8.443c0-4.655-3.788-8.443-8.443-8.443c-4.655,0-8.443,3.788-8.443,8.443
	C177.327,312.963,181.115,316.75,185.77,316.75z"/>
<g>
</g>
<g>
</g>
<g>
</g>
<g>
</g>
<g>
</g>
<g>
</g>
<g>
</g>
<g>
</g>
<g>
</g>
<g>
</g>
<g>
</g>
<g>
</g>
<g>
</g>
<g>
</g>
<g>
</g>
</svg>
