<?xml version="1.0" encoding="iso-8859-1"?>
<!-- Generator: Adobe Illustrator 19.0.0, SVG Export Plug-In . SVG Version: 6.00 Build 0)  -->
<svg version="1.1" id="Capa_1" xmlns="http://www.w3.org/2000/svg" xmlns:xlink="http://www.w3.org/1999/xlink" x="0px" y="0px"
	 viewBox="0 0 470.001 470.001" style="enable-background:new 0 0 470.001 470.001;" xml:space="preserve">
<g>
	<path style="fill:#EC6A65;" d="M392.44,115.963l-10.606,10.606c2.928,2.93,2.928,7.677,0,10.607L137.175,381.834
		c-1.464,1.464-3.384,2.196-5.303,2.196c-1.919,0-3.839-0.732-5.303-2.196l-10.606,10.606l33.096,33.097l276.478-276.478
		L392.44,115.963z"/>
	<path style="fill:#FFD77D;" d="M126.568,381.834c-2.929-2.93-2.929-7.678,0-10.607l244.658-244.658
		c2.93-2.928,7.678-2.928,10.607,0l10.606-10.605L354.037,77.56l-10.606,10.606c2.931,2.932,2.931,7.68,0.002,10.609
		L162.414,279.794c-1.464,1.464-3.384,2.196-5.303,2.196s-3.839-0.732-5.303-2.196c-0.003-0.003-10.609,10.604-10.609,10.604
		c2.931,2.932,2.931,7.68,0.002,10.609l-42.426,42.427c-1.464,1.464-3.384,2.196-5.303,2.196s-3.839-0.732-5.303-2.196
		c-0.003-0.003-10.609,10.604-10.609,10.604l38.403,38.403L126.568,381.834z"/>
	<path style="fill:#03E6FF;" d="M88.168,332.826l42.426-42.427c2.928-2.927,7.675-2.927,10.604-0.002l10.606-10.606
		c-2.926-2.93-2.926-7.676,0.003-10.604L332.826,88.168c2.93-2.928,7.676-2.927,10.605-0.002l10.606-10.606l-33.095-33.095
		L44.464,320.942l33.095,33.095l10.607-10.607C85.239,340.501,85.24,335.755,88.168,332.826z"/>
	<path style="fill:#FFFFFF;" d="M433.869,117.825l-6.091-18.012l-18.01-6.088c-2.215-0.749-3.954-2.488-4.703-4.703l-6.088-18.009
		l-18.009-6.089c-2.215-0.748-3.954-2.487-4.702-4.702l-6.089-18.009l-18.006-6.086c-2.216-0.749-3.955-2.488-4.704-4.704
		l-3.406-10.079l-12.513,12.513l104.595,104.595l12.514-12.515l-10.086-3.41C436.357,121.779,434.618,120.04,433.869,117.825z"/>
	<path style="fill:#3D2A20;" d="M469.803,120.993c-0.59-2.525-2.443-4.566-4.9-5.396l-18.012-6.091L440.8,91.494
		c-0.748-2.215-2.487-3.954-4.703-4.703l-18.009-6.088l-6.089-18.009c-0.748-2.215-2.487-3.954-4.702-4.702l-18.009-6.089
		L383.2,33.894c-0.748-2.215-2.487-3.954-4.703-4.703l-18.006-6.086l-6.085-18.006c-0.831-2.457-2.872-4.311-5.397-4.901
		c-2.525-0.593-5.178,0.166-7.011,1.999L2.197,341.998c-1.834,1.834-2.59,4.485-2,7.011c0.59,2.525,2.444,4.566,4.901,5.397
		l18.006,6.085l6.086,18.006c0.749,2.216,2.488,3.955,4.703,4.703l18.008,6.089l6.088,18.008c0.749,2.216,2.488,3.955,4.703,4.703
		l18.009,6.089l6.088,18.01c0.749,2.215,2.488,3.954,4.703,4.702l18.012,6.091l6.09,18.012c0.831,2.457,2.872,4.311,5.397,4.9
		c0.566,0.133,1.139,0.197,1.708,0.197c1.966,0,3.88-0.774,5.303-2.196l339.8-339.801
		C469.638,126.171,470.394,123.519,469.803,120.993z M117.825,433.87l-18.012-6.091l-6.089-18.01
		c-0.749-2.215-2.488-3.954-4.703-4.703l-18.008-6.088l-6.088-18.008c-0.749-2.216-2.488-3.955-4.703-4.703l-18.008-6.089
		l-6.086-18.006c-0.749-2.216-2.488-3.955-4.704-4.704l-10.079-3.406l12.513-12.513l104.594,104.594l-12.514,12.515l-3.41-10.086
		C121.778,436.357,120.039,434.618,117.825,433.87z M149.058,425.537l-33.096-33.097l-38.403-38.403l-33.095-33.095L320.942,44.465
		l33.095,33.095l38.403,38.403l33.097,33.097L149.058,425.537z M436.143,138.452L331.549,33.858l12.513-12.513l3.406,10.079
		c0.749,2.216,2.488,3.955,4.704,4.704l18.006,6.086l6.089,18.009c0.748,2.215,2.487,3.954,4.702,4.702l18.009,6.089l6.088,18.009
		c0.749,2.215,2.488,3.954,4.703,4.703l18.01,6.088l6.091,18.012c0.748,2.215,2.487,3.954,4.702,4.702l10.086,3.41L436.143,138.452z
		"/>
	<path style="fill:#FFFFFF;" d="M138.452,436.143L33.857,331.549l-12.513,12.513l10.079,3.406c2.215,0.749,3.955,2.488,4.704,4.704
		l6.086,18.006l18.008,6.089c2.215,0.748,3.955,2.487,4.703,4.703l6.088,18.008l18.008,6.088c2.215,0.749,3.954,2.488,4.703,4.703
		l6.089,18.01l18.012,6.091c2.215,0.748,3.954,2.487,4.703,4.702l3.41,10.086L138.452,436.143z"/>
	<path style="fill:#3D2A20;" d="M371.226,126.568L126.568,371.226c-2.929,2.93-2.929,7.678,0,10.607
		c1.464,1.464,3.384,2.196,5.303,2.196c1.919,0,3.839-0.732,5.303-2.196l244.659-244.658c2.929-2.93,2.929-7.677,0-10.607
		C378.904,123.64,374.156,123.64,371.226,126.568z"/>
	<path style="fill:#3D2A20;" d="M332.826,88.168L151.808,269.186c-2.928,2.929-2.929,7.675-0.003,10.604
		c1.467,1.467,3.386,2.199,5.306,2.199s3.839-0.732,5.303-2.196L343.433,98.775c2.929-2.93,2.929-7.678,0-10.607
		C340.502,85.241,335.755,85.24,332.826,88.168z"/>
	<path style="fill:#3D2A20;" d="M130.595,290.399l-42.426,42.427c-2.928,2.929-2.929,7.675-0.003,10.604
		c1.467,1.467,3.386,2.199,5.306,2.199s3.839-0.732,5.303-2.196l42.426-42.427c2.929-2.93,2.929-7.678,0-10.607
		C138.27,287.472,133.523,287.472,130.595,290.399z"/>
</g>
<g>
</g>
<g>
</g>
<g>
</g>
<g>
</g>
<g>
</g>
<g>
</g>
<g>
</g>
<g>
</g>
<g>
</g>
<g>
</g>
<g>
</g>
<g>
</g>
<g>
</g>
<g>
</g>
<g>
</g>
</svg>
