<?xml version="1.0" encoding="iso-8859-1"?>
<!-- Generator: Adobe Illustrator 19.0.0, SVG Export Plug-In . SVG Version: 6.00 Build 0)  -->
<svg version="1.1" id="Capa_1" xmlns="http://www.w3.org/2000/svg" xmlns:xlink="http://www.w3.org/1999/xlink" x="0px" y="0px"
	 viewBox="0 0 470 470" style="enable-background:new 0 0 470 470;" xml:space="preserve">
<g>
	<path style="fill:#66CD19;" d="M345.231,336.623c8.415-31.031,12.682-65.222,12.682-101.623
		c0-60.963-12.283-116.807-34.585-157.243c-12.914-23.413-34.094-50.492-65.663-59.586c6.16,11.56,11.385,28.687,15.758,51.534
		c0.779,4.068-1.888,7.998-5.956,8.776c-0.02,0.004-0.041,0.005-0.061,0.009c0.826,4.757,1.609,9.713,2.349,14.846
		c4.149-0.549,7.92,2.341,8.46,6.448c4.53,34.378,7.181,75.92,7.667,120.134c0.045,4.142-3.275,7.537-7.417,7.582
		c-0.007,2.492,0.002,4.989,0.002,7.5c0,2.511-0.009,5.01-0.023,7.501c4.162,0.045,7.483,3.439,7.438,7.581
		c-0.651,59.282-5.205,113.3-12.821,152.104c-4.297,21.896-9.401,38.385-15.386,49.623c32.725-9.436,60.1-39.632,78.5-87.375
		c1.476-3.83,5.751-5.749,9.589-4.336c1.647-4.652,3.197-9.423,4.647-14.306C346.472,344.67,344.155,340.588,345.231,336.623z"/>
	<path style="fill:#66CD19;" d="M104.656,242.505c4.104-0.076,7.547,3.129,7.682,7.248c1.899,57.605,15.044,109.876,37.015,147.184
		c12.629,21.445,33.076,46.219,62.972,54.877c-6.434-12.074-11.849-30.21-16.331-54.592C188.28,355.262,184.032,297.65,184.032,235
		s4.248-120.262,11.961-162.221c4.482-24.381,9.896-42.518,16.329-54.592c-29.894,8.658-50.341,33.432-62.97,54.877
		c-21.971,37.308-35.116,89.579-37.015,147.184c-0.134,4.056-3.464,7.253-7.492,7.253c-0.063,0-0.127-0.002-0.191-0.003
		c-0.041,2.492-0.069,4.991-0.069,7.503C104.587,237.513,104.615,240.012,104.656,242.505z"/>
	<path style="fill:#A3E175;" d="M299.553,24.389c13.906,11.549,26.377,27.026,36.909,46.123
		C359.968,113.13,372.913,171.546,372.913,235c0,37.727-4.443,73.238-13.205,105.549c-0.906,3.34-3.932,5.539-7.234,5.539
		c-0.65,0-1.31-0.085-1.967-0.263c-0.032-0.009-0.062-0.022-0.095-0.031c-1.45,4.882-3,9.653-4.647,14.306
		c0.035,0.013,0.071,0.021,0.106,0.035c3.865,1.489,5.791,5.83,4.301,9.695c-11.811,30.645-27.398,54.929-46.332,72.18
		c-1.333,1.214-2.679,2.385-4.035,3.521C386.716,418.895,444.852,338.461,444.852,235
		C444.852,131.439,386.604,50.946,299.553,24.389z"/>
	<path style="fill:#A3E175;" d="M278.445,227.5c-0.021,0-0.042,0-0.063,0c-4.104,0-7.453-3.304-7.498-7.417
		c-0.479-43.625-3.086-84.546-7.539-118.34c-0.539-4.091,2.328-7.844,6.411-8.407c-0.74-5.133-1.523-10.089-2.349-14.846
		c-0.456,0.083-0.91,0.127-1.358,0.127c-3.527,0-6.67-2.5-7.358-6.091C249.981,27.022,239.386,15,235,15
		c-4.543,0-15.458,12.643-24.254,60.491c-7.554,41.092-11.714,97.74-11.714,159.509s4.16,118.417,11.714,159.509
		C219.542,442.357,230.457,455,235,455c4.292,0,14.694-11.642,23.342-55.702c7.445-37.934,11.899-90.985,12.541-149.38
		c0.045-4.134,3.394-7.437,7.562-7.416c0.014-2.492,0.023-4.99,0.023-7.501C278.468,232.489,278.458,229.991,278.445,227.5z"/>
	<path style="fill:#A3E175;" d="M170.192,445.529c-12.593-10.526-23.92-24.265-33.765-40.981
		c-23.222-39.433-37.102-94.231-39.082-154.301c-0.136-4.14,3.109-7.606,7.249-7.743c0.021-0.001,0.04,0.002,0.061,0.001
		c-0.041-2.493-0.069-4.993-0.069-7.505c0-2.512,0.028-5.011,0.069-7.503c-0.02,0-0.04,0-0.061-0.001
		c-4.14-0.137-7.385-3.604-7.249-7.743c1.98-60.07,15.86-114.869,39.082-154.301c9.844-16.716,21.172-30.455,33.765-40.981
		C83.283,51.107,25.148,131.54,25.148,235S83.283,418.893,170.192,445.529z"/>
	<path style="fill:#3D2A20;" d="M398.682,69.058c-20.034-21.794-43.944-38.805-71.069-50.561C299.294,6.223,268.135,0,235,0
		s-64.294,6.223-92.613,18.497c-27.125,11.756-51.035,28.767-71.069,50.561C31.872,111.971,10.148,170.904,10.148,235
		c0,64.097,21.724,123.029,61.17,165.942c20.034,21.794,43.944,38.806,71.069,50.561C170.706,463.777,201.865,470,235,470
		s64.294-6.223,92.613-18.497c27.125-11.755,51.035-28.767,71.069-50.561c39.446-42.913,61.17-101.846,61.17-165.942
		C459.852,170.904,438.128,111.971,398.682,69.058z M170.192,24.471c-12.593,10.526-23.92,24.265-33.765,40.981
		c-23.222,39.433-37.102,94.231-39.082,154.301c-0.136,4.14,3.109,7.606,7.249,7.743c0.02,0.001,0.041,0,0.061,0.001
		c0.064,0.001,0.127,0.003,0.191,0.003c4.028,0,7.358-3.197,7.492-7.253c1.899-57.605,15.044-109.876,37.015-147.184
		c12.629-21.445,33.076-46.218,62.97-54.877c-6.434,12.074-11.848,30.211-16.329,54.592C188.28,114.738,184.032,172.35,184.032,235
		s4.248,120.262,11.961,162.221c4.482,24.382,9.897,42.519,16.331,54.592c-29.895-8.658-50.343-33.432-62.972-54.877
		c-21.971-37.308-35.116-89.579-37.015-147.184c-0.136-4.119-3.578-7.324-7.682-7.248c-0.021,0-0.04-0.002-0.061-0.001
		c-4.14,0.137-7.385,3.604-7.249,7.743c1.98,60.07,15.86,114.869,39.082,154.301c9.844,16.716,21.172,30.455,33.765,40.981
		C83.283,418.893,25.148,338.46,25.148,235S83.283,51.107,170.192,24.471z M299.805,445.53c1.356-1.136,2.702-2.307,4.035-3.521
		c18.933-17.25,34.521-41.535,46.332-72.18c1.49-3.865-0.436-8.206-4.301-9.695c-0.035-0.013-0.071-0.022-0.106-0.035
		c-3.839-1.414-8.114,0.505-9.589,4.336c-18.4,47.743-45.775,77.939-78.5,87.375c5.985-11.237,11.088-27.727,15.386-49.623
		c7.617-38.804,12.17-92.823,12.821-152.104c0.045-4.142-3.275-7.537-7.417-7.582c-4.188-0.02-7.537,3.283-7.582,7.417
		c-0.642,58.396-5.096,111.446-12.541,149.38C249.694,443.358,239.292,455,235,455c-4.543,0-15.458-12.643-24.254-60.491
		c-7.554-41.092-11.714-97.74-11.714-159.509s4.16-118.417,11.714-159.509C219.542,27.643,230.457,15,235,15
		c4.386,0,14.981,12.022,23.691,57.524c0.688,3.592,3.831,6.091,7.358,6.091c0.448,0,0.902-0.043,1.358-0.127
		c0.02-0.004,0.04-0.005,0.061-0.009c4.068-0.779,6.735-4.708,5.956-8.776c-4.373-22.847-9.598-39.974-15.758-51.534
		c31.569,9.094,52.75,36.173,65.663,59.586c22.302,40.437,34.585,96.28,34.585,157.243c0,36.401-4.267,70.592-12.682,101.623
		c-1.076,3.965,1.242,8.047,5.181,9.171c0.032,0.009,0.062,0.022,0.095,0.031c0.657,0.178,1.317,0.263,1.967,0.263
		c3.303,0,6.328-2.199,7.234-5.539c8.762-32.311,13.205-67.822,13.205-105.549c0-63.454-12.945-121.87-36.451-164.487
		c-10.533-19.097-23.004-34.575-36.909-46.123C386.604,50.946,444.852,131.439,444.852,235
		C444.852,338.461,386.716,418.895,299.805,445.53z"/>
	<path style="fill:#3D2A20;" d="M263.345,101.742c4.452,33.794,7.059,74.715,7.539,118.34c0.045,4.114,3.394,7.417,7.498,7.417
		c0.021,0,0.042,0,0.063,0c4.162-0.046,7.483-3.44,7.438-7.582c-0.486-44.214-3.137-85.756-7.667-120.134
		c-0.541-4.106-4.311-6.997-8.415-6.456C265.673,93.898,262.806,97.651,263.345,101.742z"/>
</g>
<g>
</g>
<g>
</g>
<g>
</g>
<g>
</g>
<g>
</g>
<g>
</g>
<g>
</g>
<g>
</g>
<g>
</g>
<g>
</g>
<g>
</g>
<g>
</g>
<g>
</g>
<g>
</g>
<g>
</g>
</svg>
