<?xml version="1.0" encoding="iso-8859-1"?>
<!-- Generator: Adobe Illustrator 19.0.0, SVG Export Plug-In . SVG Version: 6.00 Build 0)  -->
<svg version="1.1" id="Capa_1" xmlns="http://www.w3.org/2000/svg" xmlns:xlink="http://www.w3.org/1999/xlink" x="0px" y="0px"
	 viewBox="0 0 470.009 470.009" style="enable-background:new 0 0 470.009 470.009;" xml:space="preserve">
<g>
	<path style="fill:#E7453F;" d="M25.902,258.342h418.206l-15.569-140.761c-3.142-28.406-28.949-51.517-57.529-51.517H99
		c-28.58,0-54.387,23.11-57.529,51.517L25.902,258.342z M388.549,130.598h7.795c4.142,0,7.5,3.357,7.5,7.5s-3.358,7.5-7.5,7.5
		h-7.795c-4.142,0-7.5-3.357-7.5-7.5S384.407,130.598,388.549,130.598z M380.491,217.128c2.929-2.928,7.677-2.929,10.607,0.001
		l5.511,5.512c2.929,2.929,2.928,7.678,0,10.606c-1.464,1.464-3.384,2.196-5.303,2.196s-3.839-0.732-5.304-2.197l-5.511-5.512
		C377.561,224.806,377.562,220.057,380.491,217.128z M150.77,166.1v-7.795c0-4.143,3.358-7.5,7.5-7.5s7.5,3.357,7.5,7.5v7.795
		c0,4.143-3.358,7.5-7.5,7.5S150.77,170.243,150.77,166.1z M340.181,82.089c2.929-2.928,7.678-2.928,10.606,0l5.512,5.512
		c2.929,2.93,2.929,7.678,0,10.607c-1.464,1.464-3.384,2.196-5.303,2.196s-3.839-0.732-5.303-2.196l-5.512-5.512
		C337.252,89.767,337.252,85.019,340.181,82.089z M325.816,180.096h7.794c4.142,0,7.5,3.357,7.5,7.5s-3.358,7.5-7.5,7.5h-7.794
		c-4.142,0-7.5-3.357-7.5-7.5S321.674,180.096,325.816,180.096z M296.554,109.257c0-4.143,3.358-7.5,7.5-7.5s7.5,3.357,7.5,7.5
		v7.795c0,4.143-3.358,7.5-7.5,7.5s-7.5-3.357-7.5-7.5V109.257z M253.102,226.536l5.511-5.511c2.929-2.928,7.677-2.929,10.607,0.001
		c2.929,2.929,2.928,7.678,0,10.606l-5.511,5.511c-1.464,1.464-3.384,2.196-5.303,2.196c-1.919,0-3.839-0.732-5.304-2.197
		C250.173,234.214,250.174,229.465,253.102,226.536z M225.473,126.899c2.929-2.928,7.678-2.928,10.606,0l5.512,5.512
		c2.929,2.93,2.929,7.678,0,10.607c-1.464,1.464-3.384,2.196-5.303,2.196s-3.839-0.732-5.303-2.196l-5.512-5.512
		C222.544,134.577,222.544,129.828,225.473,126.899z M177.832,191.68c4.142,0,7.5,3.357,7.5,7.5s-3.358,7.5-7.5,7.5h-7.794
		c-4.142,0-7.5-3.357-7.5-7.5s3.358-7.5,7.5-7.5H177.832z M150.476,82.601h7.794c4.142,0,7.5,3.357,7.5,7.5s-3.358,7.5-7.5,7.5
		h-7.794c-4.142,0-7.5-3.357-7.5-7.5S146.334,82.601,150.476,82.601z M125.063,215.614c2.929-2.928,7.678-2.928,10.606,0
		l5.512,5.512c2.929,2.93,2.929,7.678,0,10.607c-1.464,1.464-3.384,2.196-5.303,2.196s-3.839-0.732-5.303-2.196l-5.512-5.512
		C122.134,223.291,122.134,218.543,125.063,215.614z M95.466,108.993c2.929-2.928,7.678-2.928,10.606,0l5.512,5.512
		c2.929,2.93,2.929,7.678,0,10.607c-1.464,1.464-3.384,2.196-5.303,2.196s-3.839-0.732-5.303-2.196l-5.512-5.512
		C92.537,116.67,92.537,111.922,95.466,108.993z M59.466,196.632l5.512-5.512c2.929-2.928,7.678-2.928,10.606,0
		c2.929,2.93,2.929,7.678,0,10.607l-5.512,5.512c-1.464,1.464-3.384,2.196-5.303,2.196c-1.919,0-3.839-0.732-5.303-2.196
		C56.537,204.31,56.537,199.562,59.466,196.632z"/>
	<path style="fill:#FFFFFF;" d="M103.525,298.337l345.007,0.005l-2.765-25H24.243l-2.765,24.999l52.047-0.004
		c4.142,0,7.5,3.357,7.5,7.499c4.817,0.001,9.823,0.001,15,0.001C96.025,301.696,99.384,298.337,103.525,298.337z"/>
	<path style="fill:#A3E175;" d="M454.697,354.077l-4.506-40.734l-346.666-0.005c-4.142,0-7.5-3.358-7.5-7.5c-5.177,0-10.183,0-15,0
		c0,4.142-3.358,7.5-7.499,7.5l-53.707,0.004l-4.506,40.735c-1.475,13.332,2.355,25.857,10.785,35.271
		c8.429,9.414,20.458,14.598,33.871,14.598h350.072c13.413,0,25.441-5.184,33.871-14.597
		C452.341,379.934,456.171,367.409,454.697,354.077z M51.373,367.699c-1.464,1.464-3.384,2.196-5.303,2.196
		s-3.839-0.732-5.303-2.196l-5.512-5.512c-2.929-2.93-2.929-7.678,0-10.607c2.929-2.928,7.678-2.928,10.606,0l5.512,5.512
		C54.302,360.021,54.302,364.769,51.373,367.699z M134.254,373.809h-7.795c-4.142,0-7.5-3.357-7.5-7.5s3.358-7.5,7.5-7.5h7.795
		c4.142,0,7.5,3.357,7.5,7.5S138.396,373.809,134.254,373.809z M211.095,350.234l-5.512,5.512c-1.464,1.464-3.384,2.196-5.303,2.196
		s-3.839-0.732-5.303-2.196c-2.929-2.93-2.929-7.678,0-10.607l5.512-5.512c2.929-2.928,7.678-2.928,10.606,0
		C214.024,342.556,214.024,347.304,211.095,350.234z M252.235,387.504h-7.794c-4.142,0-7.5-3.357-7.5-7.5s3.358-7.5,7.5-7.5h7.794
		c4.142,0,7.5,3.357,7.5,7.5S256.377,387.504,252.235,387.504z M300.528,366.557c-1.464,1.464-3.384,2.196-5.303,2.196
		s-3.839-0.732-5.303-2.196l-5.512-5.512c-2.929-2.93-2.929-7.678,0-10.607c2.929-2.928,7.678-2.928,10.606,0l5.512,5.512
		C303.457,358.879,303.457,363.627,300.528,366.557z M359.055,373.067l-5.512,5.512c-1.464,1.464-3.384,2.196-5.303,2.196
		s-3.839-0.732-5.303-2.196c-2.929-2.93-2.929-7.678,0-10.607l5.512-5.512c2.929-2.928,7.678-2.928,10.606,0
		C361.984,365.389,361.984,370.137,359.055,373.067z M428.547,359.639c0,4.143-3.358,7.5-7.5,7.5s-7.5-3.357-7.5-7.5v-7.794
		c0-4.143,3.358-7.5,7.5-7.5s7.5,3.357,7.5,7.5V359.639z"/>
	<path style="fill:#3D2A20;" d="M469.606,352.428l-26.158-236.495c-3.956-35.769-36.452-64.868-72.438-64.868H99
		c-35.986,0-68.481,29.1-72.438,64.868L0.404,352.428c-1.95,17.627,3.207,34.293,14.52,46.926
		c11.313,12.634,27.31,19.591,45.045,19.591h350.072c17.735,0,33.732-6.957,45.045-19.591
		C466.399,386.721,471.556,370.055,469.606,352.428z M410.041,403.945H59.969c-13.413,0-25.442-5.184-33.871-14.598
		c-8.43-9.413-12.26-21.938-10.785-35.271l4.506-40.735l53.707-0.004c4.142,0,7.499-3.358,7.499-7.5c0-4.143-3.358-7.5-7.5-7.5
		l-52.047,0.004l2.765-24.999h421.524l2.765,25l-345.007-0.005c-4.142,0-7.5,3.358-7.5,7.5s3.358,7.5,7.5,7.5l346.666,0.005
		l4.506,40.734c1.475,13.332-2.355,25.857-10.785,35.271C435.482,398.761,423.453,403.945,410.041,403.945z M99,66.065h272.009
		c28.58,0,54.387,23.11,57.529,51.517l15.569,140.761H25.902l15.569-140.761C44.613,89.175,70.421,66.065,99,66.065z"/>
	<path style="fill:#FFFFFF;" d="M388.549,145.598h7.795c4.142,0,7.5-3.357,7.5-7.5s-3.358-7.5-7.5-7.5h-7.795
		c-4.142,0-7.5,3.357-7.5,7.5S384.407,145.598,388.549,145.598z"/>
	<path style="fill:#FFFFFF;" d="M230.985,143.018c1.464,1.464,3.384,2.196,5.303,2.196s3.839-0.732,5.303-2.196
		c2.929-2.93,2.929-7.678,0-10.607l-5.512-5.512c-2.929-2.928-7.678-2.928-10.606,0c-2.929,2.93-2.929,7.678,0,10.607
		L230.985,143.018z"/>
	<path style="fill:#FFFFFF;" d="M100.978,125.112c1.464,1.464,3.384,2.196,5.303,2.196s3.839-0.732,5.303-2.196
		c2.929-2.93,2.929-7.678,0-10.607l-5.512-5.512c-2.929-2.928-7.678-2.928-10.606,0c-2.929,2.93-2.929,7.678,0,10.607
		L100.978,125.112z"/>
	<path style="fill:#FFFFFF;" d="M258.406,239.34c1.919,0,3.839-0.732,5.303-2.196l5.511-5.511c2.929-2.929,2.929-7.678,0-10.606
		c-2.93-2.93-7.678-2.929-10.607-0.001l-5.511,5.511c-2.929,2.929-2.929,7.678,0,10.606
		C254.567,238.608,256.486,239.34,258.406,239.34z"/>
	<path style="fill:#FFFFFF;" d="M162.538,199.18c0,4.143,3.358,7.5,7.5,7.5h7.794c4.142,0,7.5-3.357,7.5-7.5s-3.358-7.5-7.5-7.5
		h-7.794C165.896,191.68,162.538,195.037,162.538,199.18z"/>
	<path style="fill:#FFFFFF;" d="M64.769,209.436c1.919,0,3.839-0.732,5.303-2.196l5.512-5.512c2.929-2.93,2.929-7.678,0-10.607
		c-2.929-2.928-7.678-2.928-10.606,0l-5.512,5.512c-2.929,2.93-2.929,7.678,0,10.607C60.931,208.703,62.85,209.436,64.769,209.436z"
		/>
	<path style="fill:#FFFFFF;" d="M134.254,358.809h-7.795c-4.142,0-7.5,3.357-7.5,7.5s3.358,7.5,7.5,7.5h7.795
		c4.142,0,7.5-3.357,7.5-7.5S138.396,358.809,134.254,358.809z"/>
	<path style="fill:#FFFFFF;" d="M304.054,124.552c4.142,0,7.5-3.357,7.5-7.5v-7.795c0-4.143-3.358-7.5-7.5-7.5s-7.5,3.357-7.5,7.5
		v7.795C296.554,121.195,299.911,124.552,304.054,124.552z"/>
	<path style="fill:#FFFFFF;" d="M325.816,195.096h7.794c4.142,0,7.5-3.357,7.5-7.5s-3.358-7.5-7.5-7.5h-7.794
		c-4.142,0-7.5,3.357-7.5,7.5S321.674,195.096,325.816,195.096z"/>
	<path style="fill:#FFFFFF;" d="M386.001,233.246c1.465,1.465,3.384,2.197,5.304,2.197s3.839-0.732,5.303-2.196
		c2.929-2.929,2.929-7.678,0-10.606l-5.511-5.512c-2.93-2.93-7.678-2.929-10.607-0.001c-2.929,2.929-2.929,7.678,0,10.606
		L386.001,233.246z"/>
	<path style="fill:#FFFFFF;" d="M252.235,372.504h-7.794c-4.142,0-7.5,3.357-7.5,7.5s3.358,7.5,7.5,7.5h7.794
		c4.142,0,7.5-3.357,7.5-7.5S256.377,372.504,252.235,372.504z"/>
	<path style="fill:#FFFFFF;" d="M348.449,362.459l-5.512,5.512c-2.929,2.93-2.929,7.678,0,10.607
		c1.464,1.464,3.384,2.196,5.303,2.196s3.839-0.732,5.303-2.196l5.512-5.512c2.929-2.93,2.929-7.678,0-10.607
		C356.126,359.532,351.377,359.532,348.449,362.459z"/>
	<path style="fill:#FFFFFF;" d="M45.861,351.579c-2.929-2.928-7.678-2.928-10.606,0c-2.929,2.93-2.929,7.678,0,10.607l5.512,5.512
		c1.464,1.464,3.384,2.196,5.303,2.196s3.839-0.732,5.303-2.196c2.929-2.93,2.929-7.678,0-10.607L45.861,351.579z"/>
	<path style="fill:#FFFFFF;" d="M421.047,344.345c-4.142,0-7.5,3.357-7.5,7.5v7.794c0,4.143,3.358,7.5,7.5,7.5s7.5-3.357,7.5-7.5
		v-7.794C428.547,347.703,425.189,344.345,421.047,344.345z"/>
	<path style="fill:#FFFFFF;" d="M130.575,231.733c1.464,1.464,3.384,2.196,5.303,2.196s3.839-0.732,5.303-2.196
		c2.929-2.93,2.929-7.678,0-10.607l-5.512-5.512c-2.929-2.928-7.678-2.928-10.606,0c-2.929,2.93-2.929,7.678,0,10.607
		L130.575,231.733z"/>
	<path style="fill:#FFFFFF;" d="M295.016,350.438c-2.929-2.928-7.678-2.928-10.606,0c-2.929,2.93-2.929,7.678,0,10.607l5.512,5.512
		c1.464,1.464,3.384,2.196,5.303,2.196s3.839-0.732,5.303-2.196c2.929-2.93,2.929-7.678,0-10.607L295.016,350.438z"/>
	<path style="fill:#FFFFFF;" d="M200.489,339.626l-5.512,5.512c-2.929,2.93-2.929,7.678,0,10.607
		c1.464,1.464,3.384,2.196,5.303,2.196s3.839-0.732,5.303-2.196l5.512-5.512c2.929-2.93,2.929-7.678,0-10.607
		C208.166,336.699,203.417,336.699,200.489,339.626z"/>
	<path style="fill:#FFFFFF;" d="M165.77,166.1v-7.795c0-4.143-3.358-7.5-7.5-7.5s-7.5,3.357-7.5,7.5v7.795
		c0,4.143,3.358,7.5,7.5,7.5S165.77,170.243,165.77,166.1z"/>
	<path style="fill:#FFFFFF;" d="M150.476,97.601h7.794c4.142,0,7.5-3.357,7.5-7.5s-3.358-7.5-7.5-7.5h-7.794
		c-4.142,0-7.5,3.357-7.5,7.5S146.334,97.601,150.476,97.601z"/>
	<path style="fill:#FFFFFF;" d="M345.693,98.208c1.464,1.464,3.384,2.196,5.303,2.196s3.839-0.732,5.303-2.196
		c2.929-2.93,2.929-7.678,0-10.607l-5.512-5.512c-2.929-2.928-7.678-2.928-10.606,0c-2.929,2.93-2.929,7.678,0,10.607
		L345.693,98.208z"/>
</g>
<g>
</g>
<g>
</g>
<g>
</g>
<g>
</g>
<g>
</g>
<g>
</g>
<g>
</g>
<g>
</g>
<g>
</g>
<g>
</g>
<g>
</g>
<g>
</g>
<g>
</g>
<g>
</g>
<g>
</g>
</svg>
